<svg width="600.000000" height="600.000000" viewBox="0 0 600 600" fill="none" xmlns="http://www.w3.org/2000/svg" xmlns:xlink="http://www.w3.org/1999/xlink">
	<desc>
			Created with Pixso.
	</desc>
	<rect id="Chart 4" rx="16.000000" width="600.000000" height="600.000000" fill="#FFFFFF"/>
	<g clip-path="url(#clip15_65)">
		<rect id="Rectangle 124" x="85.000000" y="368.000000" rx="5.000000" width="10.000000" height="110.000000" fill="url(#paint_linear_15_106_0)"/>
		<g opacity="0.300000">
			<rect id="Rectangle 131" x="85.000000" y="98.000000" rx="5.000000" width="10.000000" height="265.000000" fill="#FFC54A"/>
		</g>
		<rect id="Rectangle 126" x="225.000000" y="288.000000" rx="5.000000" width="10.000000" height="190.000000" fill="url(#paint_linear_15_108_0)"/>
		<g opacity="0.300000">
			<rect id="Rectangle 132" x="225.000000" y="98.000000" rx="5.000000" width="10.000000" height="185.000000" fill="#FFC54A"/>
		</g>
		<rect id="Rectangle 128" x="365.000000" y="198.000000" rx="5.000000" width="10.000000" height="280.000000" fill="url(#paint_linear_15_110_0)"/>
		<g opacity="0.300000">
			<rect id="Rectangle 133" x="365.000000" y="98.000000" rx="5.000000" width="10.000000" height="95.000000" fill="#FFC54A"/>
		</g>
		<rect id="Rectangle 130" x="505.000000" y="248.000000" rx="5.000000" width="10.000000" height="230.000000" fill="url(#paint_linear_15_112_0)"/>
		<g opacity="0.300000">
			<rect id="Rectangle 134" x="505.000000" y="98.000000" rx="5.000000" width="10.000000" height="145.000000" fill="#FFC54A"/>
		</g>
		<rect id="Rectangle 125" x="155.000000" y="238.000000" rx="5.000000" width="10.000000" height="240.000000" fill="url(#paint_linear_15_107_0)"/>
		<g opacity="0.300000">
			<rect id="Rectangle 135" x="155.000000" y="98.000000" rx="5.000000" width="10.000000" height="135.000000" fill="#FFC54A"/>
		</g>
		<rect id="Rectangle 127" x="295.000000" y="408.000000" rx="5.000000" width="10.000000" height="70.000000" fill="url(#paint_linear_15_109_0)"/>
		<g opacity="0.300000">
			<rect id="Rectangle 136" x="295.000000" y="98.000000" rx="5.000000" width="10.000000" height="305.000000" fill="#FFC54A"/>
		</g>
		<rect id="Rectangle 129" x="435.000000" y="328.000000" rx="5.000000" width="10.000000" height="150.000000" fill="url(#paint_linear_15_111_0)"/>
		<g opacity="0.300000">
			<rect id="Rectangle 137" x="435.000000" y="98.000000" rx="5.000000" width="10.000000" height="225.000000" fill="#FFC54A"/>
		</g>
		<g opacity="0.500000">
			<path id="Mon" opacity="0.500000" d="M80.3789 499.266L79.1836 499.266L79.1836 490.811L80.7012 490.811L83.4375 497.561L83.4727 497.561L86.2148 490.811L87.7266 490.811L87.7266 499.266L86.5312 499.266L86.5312 493.025L86.4902 493.025L83.9414 499.266L82.9688 499.266L80.4199 493.025L80.3789 493.025L80.3789 499.266ZM94.7051 496.184C94.7051 498.17 93.5449 499.389 91.7812 499.389C90.0117 499.389 88.8574 498.164 88.8574 496.184L88.8574 496.172C88.8574 494.203 90.0234 492.984 91.7754 492.984C93.5332 492.984 94.7051 494.197 94.7051 496.172L94.7051 496.184ZM96.9492 499.266L95.6836 499.266L95.6836 493.102L96.9492 493.102L96.9492 494.033L96.9785 494.033C97.3008 493.406 97.9336 492.984 98.8652 492.984C100.219 492.984 100.998 493.857 100.998 495.275L100.998 499.266L99.7266 499.266L99.7266 495.516C99.7266 494.59 99.293 494.068 98.4141 494.068C97.5234 494.068 96.9492 494.713 96.9492 495.674L96.9492 499.266ZM90.1523 496.184C90.1523 497.549 90.7969 498.328 91.7871 498.328C92.7773 498.328 93.4102 497.543 93.4102 496.184L93.4102 496.172C93.4102 494.824 92.7656 494.045 91.7754 494.045C90.8027 494.045 90.1523 494.824 90.1523 496.172L90.1523 496.184Z" fill="#454459FF"/>
		</g>
		<path id="Fri" d="M376.117 491.367C376.117 491.801 375.766 492.164 375.309 492.164C374.852 492.164 374.494 491.801 374.494 491.367C374.494 490.922 374.852 490.564 375.309 490.564C375.766 490.564 376.117 490.922 376.117 491.367ZM365.576 499.266L364.064 499.266L364.064 490.811L369.455 490.811L369.455 492.082L365.576 492.082L365.576 494.584L369.121 494.584L369.121 495.814L365.576 495.814L365.576 499.266ZM371.869 499.266L370.41 499.266L370.41 493.055L371.869 493.055L371.869 494.127L371.898 494.127C372.092 493.377 372.607 492.926 373.322 492.926C373.504 492.926 373.674 492.955 373.785 492.984L373.785 494.303C373.662 494.256 373.439 494.221 373.193 494.221C372.367 494.221 371.869 494.742 371.869 495.662L371.869 499.266ZM376.035 499.266L374.576 499.266L374.576 493.055L376.035 493.055L376.035 499.266Z" fill="#454459FF"/>
		<g opacity="0.500000">
			<path id="Tue" opacity="0.500000" d="M155.279 499.266L153.967 499.266L153.967 491.941L151.377 491.941L151.377 490.811L157.863 490.811L157.863 491.941L155.279 491.941L155.279 499.266ZM169.471 497.52C169.271 498.498 168.322 499.389 166.828 499.389C165.018 499.389 163.922 498.152 163.922 496.207L163.922 496.201C163.922 494.273 165.035 492.984 166.764 492.984C168.492 492.984 169.553 494.227 169.553 496.078L169.553 496.506L165.188 496.506C165.211 497.672 165.85 498.352 166.857 498.352C167.607 498.352 168.105 497.965 168.264 497.502L168.281 497.455L169.482 497.455L169.471 497.52ZM161.643 498.34C161.32 498.961 160.693 499.389 159.756 499.389C158.402 499.389 157.629 498.516 157.629 497.098L157.629 493.102L158.895 493.102L158.895 496.852C158.895 497.783 159.328 498.299 160.207 498.299C161.098 498.299 161.672 497.66 161.672 496.699L161.672 493.102L162.943 493.102L162.943 499.266L161.672 499.266L161.672 498.34L161.643 498.34ZM168.299 495.609C168.193 494.543 167.596 494.021 166.77 494.021C165.949 494.021 165.316 494.578 165.205 495.609L168.299 495.609Z" fill="#454459FF"/>
		</g>
		<g opacity="0.500000">
			<path id="Wed" opacity="0.500000" d="M221.908 499.266L220.648 499.266L218.369 490.811L219.734 490.811L221.311 497.438L221.334 497.438L223.121 490.811L224.363 490.811L226.15 497.438L226.18 497.438L227.756 490.811L229.121 490.811L226.836 499.266L225.576 499.266L223.76 492.891L223.73 492.891L221.908 499.266ZM239.92 498.223C239.551 498.943 238.871 499.389 237.986 499.389C236.416 499.389 235.408 498.146 235.408 496.184L235.408 496.178C235.408 494.215 236.428 492.984 237.975 492.984C238.848 492.984 239.551 493.424 239.92 494.15L239.943 494.15L239.943 490.811L241.215 490.811L241.215 499.266L239.943 499.266L239.943 498.223L239.92 498.223ZM234.617 497.52C234.418 498.498 233.469 499.389 231.975 499.389C230.164 499.389 229.068 498.152 229.068 496.207L229.068 496.201C229.068 494.273 230.182 492.984 231.91 492.984C233.639 492.984 234.699 494.227 234.699 496.078L234.699 496.506L230.334 496.506C230.357 497.672 230.996 498.352 232.004 498.352C232.754 498.352 233.252 497.965 233.41 497.502L233.428 497.455L234.629 497.455L234.617 497.52ZM233.445 495.609C233.34 494.543 232.742 494.021 231.916 494.021C231.096 494.021 230.463 494.578 230.352 495.609L233.445 495.609ZM236.703 496.184C236.703 497.496 237.318 498.299 238.32 498.299C239.275 498.299 239.949 497.467 239.949 496.184L239.949 496.178C239.949 494.9 239.27 494.068 238.32 494.068C237.324 494.068 236.703 494.877 236.703 496.178L236.703 496.184Z" fill="#454459FF"/>
		</g>
		<g opacity="0.500000">
			<path id="Sat" opacity="0.500000" d="M439.201 496.887C439.201 498.428 437.982 499.406 435.979 499.406C434.08 499.406 432.826 498.504 432.721 497.016L432.715 496.928L433.992 496.928L434.004 497.004C434.121 497.783 434.9 498.27 436.031 498.27C437.162 498.27 437.877 497.76 437.877 496.969L437.877 496.963C437.877 496.283 437.414 495.914 436.295 495.668L435.375 495.475C433.717 495.123 432.914 494.361 432.914 493.107L432.914 493.102C432.92 491.66 434.191 490.67 435.979 490.67C437.742 490.67 438.949 491.631 439.037 493.049L439.043 493.148L437.766 493.148L437.76 493.066C437.643 492.281 436.963 491.807 435.961 491.807C434.912 491.812 434.244 492.311 434.244 493.049L434.244 493.055C434.244 493.688 434.725 494.074 435.779 494.303L436.705 494.496C438.451 494.865 439.201 495.574 439.201 496.881L439.201 496.887ZM449.262 499.336C449.115 499.359 448.875 499.389 448.617 499.389C447.398 499.389 446.812 498.873 446.812 497.643L446.812 494.109L445.928 494.109L445.928 493.102L446.812 493.102L446.812 491.496L448.107 491.496L448.107 493.102L449.262 493.102L449.262 494.109L448.107 494.109L448.107 497.566C448.107 498.193 448.389 498.381 448.922 498.381C449.057 498.381 449.168 498.369 449.262 498.357L449.262 499.336ZM443.93 498.293C443.572 498.955 442.857 499.377 442.043 499.377C440.812 499.377 439.986 498.621 439.986 497.514L439.986 497.502C439.986 496.43 440.818 495.773 442.277 495.686L443.953 495.586L443.953 495.123C443.953 494.443 443.514 494.033 442.729 494.033C441.996 494.033 441.545 494.379 441.439 494.871L441.428 494.924L440.232 494.924L440.238 494.859C440.326 493.799 441.246 492.984 442.764 492.984C444.27 492.984 445.225 493.781 445.225 495.018L445.225 499.266L443.953 499.266L443.953 498.293L443.93 498.293ZM441.264 497.473L441.264 497.484C441.264 498.023 441.709 498.363 442.389 498.363C443.279 498.363 443.953 497.76 443.953 496.957L443.953 496.477L442.447 496.57C441.686 496.617 441.264 496.951 441.264 497.473Z" fill="#454459FF"/>
		</g>
		<g opacity="0.500000">
			<path id="Thu" opacity="0.500000" d="M295.553 499.266L294.24 499.266L294.24 491.941L291.65 491.941L291.65 490.811L298.137 490.811L298.137 491.941L295.553 491.941L295.553 499.266ZM300.369 499.266L299.104 499.266L299.104 490.811L300.369 490.811L300.369 494.115L300.398 494.115C300.727 493.4 301.389 492.984 302.309 492.984C303.627 492.984 304.494 493.969 304.494 495.457L304.494 499.266L303.229 499.266L303.229 495.697C303.229 494.678 302.713 494.068 301.822 494.068C300.949 494.068 300.369 494.736 300.369 495.697L300.369 499.266ZM309.709 498.34C309.387 498.961 308.76 499.389 307.822 499.389C306.469 499.389 305.695 498.516 305.695 497.098L305.695 493.102L306.961 493.102L306.961 496.852C306.961 497.783 307.395 498.299 308.273 498.299C309.164 498.299 309.738 497.66 309.738 496.699L309.738 493.102L311.01 493.102L311.01 499.266L309.738 499.266L309.738 498.34L309.709 498.34Z" fill="#454459FF"/>
		</g>
		<g opacity="0.500000">
			<path id="Sun" opacity="0.500000" d="M508.201 496.887C508.201 498.428 506.982 499.406 504.979 499.406C503.08 499.406 501.826 498.504 501.721 497.016L501.715 496.928L502.992 496.928L503.004 497.004C503.121 497.783 503.9 498.27 505.031 498.27C506.162 498.27 506.877 497.76 506.877 496.969L506.877 496.963C506.877 496.283 506.414 495.914 505.295 495.668L504.375 495.475C502.717 495.123 501.914 494.361 501.914 493.107L501.914 493.102C501.92 491.66 503.191 490.67 504.979 490.67C506.742 490.67 507.949 491.631 508.037 493.049L508.043 493.148L506.766 493.148L506.76 493.066C506.643 492.281 505.963 491.807 504.961 491.807C503.912 491.812 503.244 492.311 503.244 493.049L503.244 493.055C503.244 493.688 503.725 494.074 504.779 494.303L505.705 494.496C507.451 494.865 508.201 495.574 508.201 496.881L508.201 496.887ZM517.037 499.266L515.771 499.266L515.771 493.102L517.037 493.102L517.037 494.033L517.066 494.033C517.389 493.406 518.021 492.984 518.953 492.984C520.307 492.984 521.086 493.857 521.086 495.275L521.086 499.266L519.814 499.266L519.814 495.516C519.814 494.59 519.381 494.068 518.502 494.068C517.611 494.068 517.037 494.713 517.037 495.674L517.037 499.266ZM513.217 498.34C512.895 498.961 512.268 499.389 511.33 499.389C509.977 499.389 509.203 498.516 509.203 497.098L509.203 493.102L510.469 493.102L510.469 496.852C510.469 497.783 510.902 498.299 511.781 498.299C512.672 498.299 513.246 497.66 513.246 496.699L513.246 493.102L514.518 493.102L514.518 499.266L513.246 499.266L513.246 498.34L513.217 498.34Z" fill="#454459FF"/>
		</g>
	</g>
	<defs>
		<clipPath id="clip15_65">
			<rect id="Chart 4" rx="16.000000" width="600.000000" height="600.000000" fill="white"/>
		</clipPath>
		<linearGradient id="paint_linear_15_106_0" x1="90.000000" y1="368.000000" x2="90.000000" y2="478.000000" gradientUnits="userSpaceOnUse">
			<stop stop-color="#FFD572"/>
			<stop offset="1.000000" stop-color="#FEBD38"/>
		</linearGradient>
		<linearGradient id="paint_linear_15_108_0" x1="230.000000" y1="288.000000" x2="230.000000" y2="478.000000" gradientUnits="userSpaceOnUse">
			<stop stop-color="#FFD572"/>
			<stop offset="1.000000" stop-color="#FEBD38"/>
		</linearGradient>
		<linearGradient id="paint_linear_15_110_0" x1="370.000000" y1="198.000000" x2="370.000000" y2="478.000000" gradientUnits="userSpaceOnUse">
			<stop stop-color="#FF9364"/>
			<stop offset="1.000000" stop-color="#F25F33"/>
		</linearGradient>
		<linearGradient id="paint_linear_15_112_0" x1="510.000000" y1="248.000000" x2="510.000000" y2="478.000000" gradientUnits="userSpaceOnUse">
			<stop stop-color="#FFD572"/>
			<stop offset="1.000000" stop-color="#FEBD38"/>
		</linearGradient>
		<linearGradient id="paint_linear_15_107_0" x1="160.000000" y1="238.000000" x2="160.000000" y2="478.000000" gradientUnits="userSpaceOnUse">
			<stop stop-color="#FFD572"/>
			<stop offset="1.000000" stop-color="#FEBD38"/>
		</linearGradient>
		<linearGradient id="paint_linear_15_109_0" x1="300.000000" y1="408.000000" x2="300.000000" y2="478.000000" gradientUnits="userSpaceOnUse">
			<stop stop-color="#FFD572"/>
			<stop offset="1.000000" stop-color="#FEBD38"/>
		</linearGradient>
		<linearGradient id="paint_linear_15_111_0" x1="440.000000" y1="328.000000" x2="440.000000" y2="478.000000" gradientUnits="userSpaceOnUse">
			<stop stop-color="#FFD572"/>
			<stop offset="1.000000" stop-color="#FEBD38"/>
		</linearGradient>
	</defs>
</svg>
