<svg width="600.000000" height="600.000000" viewBox="0 0 600 600" fill="none" xmlns="http://www.w3.org/2000/svg" xmlns:xlink="http://www.w3.org/1999/xlink">
	<desc>
			Created with Pixso.
	</desc>
	<rect id="Chart 13" rx="16.000000" width="600.000000" height="600.000000" fill="#171724"/>
	<g clip-path="url(#clip17_77)">
		<g opacity="0.300000">
			<rect id="Rectangle 157" x="407.000000" y="72.000000" rx="35.000000" width="70.000000" height="426.000000" fill="#454459"/>
		</g>
		<g opacity="0.500000">
			<rect id="Rectangle 124" x="89.000000" y="102.000000" rx="4.000000" width="8.000000" height="366.000000" fill="#454459"/>
		</g>
		<rect id="Rectangle 131" x="88.000000" y="368.000000" rx="5.000000" width="10.000000" height="100.000000" fill="url(#paint_linear_18_7_0)"/>
		<g opacity="0.500000">
			<rect id="Rectangle 126" x="228.000000" y="102.000000" rx="4.000000" width="8.000000" height="366.000000" fill="#454459"/>
		</g>
		<rect id="Rectangle 132" x="227.000000" y="256.000000" rx="5.000000" width="10.000000" height="212.000000" fill="url(#paint_linear_18_8_0)"/>
		<g opacity="0.500000">
			<rect id="Rectangle 128" x="368.000000" y="102.000000" rx="4.000000" width="8.000000" height="366.000000" fill="#454459"/>
		</g>
		<rect id="Rectangle 133" x="367.000000" y="227.000000" rx="5.000000" width="10.000000" height="241.000000" fill="url(#paint_linear_18_9_0)"/>
		<g opacity="0.500000">
			<rect id="Rectangle 130" x="508.000000" y="102.000000" rx="4.000000" width="8.000000" height="366.000000" fill="#454459"/>
		</g>
		<rect id="Rectangle 134" x="507.000000" y="325.000000" rx="5.000000" width="10.000000" height="143.000000" fill="url(#paint_linear_18_10_0)"/>
		<g opacity="0.500000">
			<rect id="Rectangle 125" x="158.000000" y="102.000000" rx="4.000000" width="8.000000" height="366.000000" fill="#454459"/>
		</g>
		<rect id="Rectangle 135" x="157.000000" y="325.000000" rx="5.000000" width="10.000000" height="143.000000" fill="url(#paint_linear_18_11_0)"/>
		<g opacity="0.500000">
			<rect id="Rectangle 127" x="298.000000" y="102.000000" rx="4.000000" width="8.000000" height="366.000000" fill="#454459"/>
		</g>
		<rect id="Rectangle 136" x="297.000000" y="372.000000" rx="5.000000" width="10.000000" height="96.000000" fill="url(#paint_linear_18_12_0)"/>
		<g opacity="0.500000">
			<rect id="Rectangle 129" x="438.000000" y="102.000000" rx="4.000000" width="8.000000" height="366.000000" fill="#454459"/>
		</g>
		<rect id="Rectangle 137" x="437.000000" y="171.000000" rx="5.000000" width="10.000000" height="297.000000" fill="url(#paint_linear_18_13_0)"/>
		<g opacity="0.500000">
			<path id="Mon" opacity="0.500000" d="M81.3789 504.266L80.1836 504.266L80.1836 495.811L81.7012 495.811L84.4375 502.561L84.4727 502.561L87.2148 495.811L88.7266 495.811L88.7266 504.266L87.5312 504.266L87.5312 498.025L87.4902 498.025L84.9414 504.266L83.9688 504.266L81.4199 498.025L81.3789 498.025L81.3789 504.266ZM95.7051 501.184C95.7051 503.17 94.5449 504.389 92.7812 504.389C91.0117 504.389 89.8574 503.164 89.8574 501.184L89.8574 501.172C89.8574 499.203 91.0234 497.984 92.7754 497.984C94.5332 497.984 95.7051 499.197 95.7051 501.172L95.7051 501.184ZM97.9492 504.266L96.6836 504.266L96.6836 498.102L97.9492 498.102L97.9492 499.033L97.9785 499.033C98.3008 498.406 98.9336 497.984 99.8652 497.984C101.219 497.984 101.998 498.857 101.998 500.275L101.998 504.266L100.727 504.266L100.727 500.516C100.727 499.59 100.293 499.068 99.4141 499.068C98.5234 499.068 97.9492 499.713 97.9492 500.674L97.9492 504.266ZM91.1523 501.184C91.1523 502.549 91.7969 503.328 92.7871 503.328C93.7773 503.328 94.4102 502.543 94.4102 501.184L94.4102 501.172C94.4102 499.824 93.7656 499.045 92.7754 499.045C91.8027 499.045 91.1523 499.824 91.1523 501.172L91.1523 501.184Z" fill="#FFFFFFFF"/>
		</g>
		<g opacity="0.500000">
			<path id="Fri" opacity="0.500000" d="M377.418 496.426C377.418 496.824 377.096 497.152 376.68 497.152C376.27 497.152 375.941 496.824 375.941 496.426C375.941 496.021 376.27 495.693 376.68 495.693C377.096 495.693 377.418 496.021 377.418 496.426ZM367.1 504.266L365.787 504.266L365.787 495.811L371.066 495.811L371.066 496.941L367.1 496.941L367.1 499.619L370.732 499.619L370.732 500.727L367.1 500.727L367.1 504.266ZM373.322 504.266L372.057 504.266L372.057 498.102L373.322 498.102L373.322 499.156L373.352 499.156C373.551 498.436 374.066 497.984 374.77 497.984C374.951 497.984 375.109 498.014 375.209 498.031L375.209 499.209C375.109 499.168 374.887 499.139 374.641 499.139C373.826 499.139 373.322 499.672 373.322 500.592L373.322 504.266ZM377.312 498.102L377.312 504.266L376.047 504.266L376.047 498.102L377.312 498.102Z" fill="#FFFFFFFF"/>
		</g>
		<g opacity="0.500000">
			<path id="Tue" opacity="0.500000" d="M156.279 504.266L154.967 504.266L154.967 496.941L152.377 496.941L152.377 495.811L158.863 495.811L158.863 496.941L156.279 496.941L156.279 504.266ZM170.471 502.52C170.271 503.498 169.322 504.389 167.828 504.389C166.018 504.389 164.922 503.152 164.922 501.207L164.922 501.201C164.922 499.273 166.035 497.984 167.764 497.984C169.492 497.984 170.553 499.227 170.553 501.078L170.553 501.506L166.188 501.506C166.211 502.672 166.85 503.352 167.857 503.352C168.607 503.352 169.105 502.965 169.264 502.502L169.281 502.455L170.482 502.455L170.471 502.52ZM162.643 503.34C162.32 503.961 161.693 504.389 160.756 504.389C159.402 504.389 158.629 503.516 158.629 502.098L158.629 498.102L159.895 498.102L159.895 501.852C159.895 502.783 160.328 503.299 161.207 503.299C162.098 503.299 162.672 502.66 162.672 501.699L162.672 498.102L163.943 498.102L163.943 504.266L162.672 504.266L162.672 503.34L162.643 503.34ZM169.299 500.609C169.193 499.543 168.596 499.021 167.77 499.021C166.949 499.021 166.316 499.578 166.205 500.609L169.299 500.609Z" fill="#FFFFFFFF"/>
		</g>
		<g opacity="0.500000">
			<path id="Wed" opacity="0.500000" d="M222.908 504.266L221.648 504.266L219.369 495.811L220.734 495.811L222.311 502.438L222.334 502.438L224.121 495.811L225.363 495.811L227.15 502.438L227.18 502.438L228.756 495.811L230.121 495.811L227.836 504.266L226.576 504.266L224.76 497.891L224.73 497.891L222.908 504.266ZM240.92 503.223C240.551 503.943 239.871 504.389 238.986 504.389C237.416 504.389 236.408 503.146 236.408 501.184L236.408 501.178C236.408 499.215 237.428 497.984 238.975 497.984C239.848 497.984 240.551 498.424 240.92 499.15L240.943 499.15L240.943 495.811L242.215 495.811L242.215 504.266L240.943 504.266L240.943 503.223L240.92 503.223ZM235.617 502.52C235.418 503.498 234.469 504.389 232.975 504.389C231.164 504.389 230.068 503.152 230.068 501.207L230.068 501.201C230.068 499.273 231.182 497.984 232.91 497.984C234.639 497.984 235.699 499.227 235.699 501.078L235.699 501.506L231.334 501.506C231.357 502.672 231.996 503.352 233.004 503.352C233.754 503.352 234.252 502.965 234.41 502.502L234.428 502.455L235.629 502.455L235.617 502.52ZM234.445 500.609C234.34 499.543 233.742 499.021 232.916 499.021C232.096 499.021 231.463 499.578 231.352 500.609L234.445 500.609ZM237.703 501.184C237.703 502.496 238.318 503.299 239.32 503.299C240.275 503.299 240.949 502.467 240.949 501.184L240.949 501.178C240.949 499.9 240.27 499.068 239.32 499.068C238.324 499.068 237.703 499.877 237.703 501.178L237.703 501.184Z" fill="#FFFFFFFF"/>
		</g>
		<path id="Sat" d="M439.49 521.758C439.49 523.381 438.213 524.412 436.08 524.412C434.07 524.412 432.775 523.492 432.676 521.934L432.67 521.84L434.34 521.84L434.352 521.904C434.463 522.561 435.16 522.971 436.127 522.971C437.105 522.971 437.721 522.543 437.721 521.898L437.721 521.893C437.721 521.318 437.305 521.031 436.256 520.814L435.365 520.639C433.695 520.305 432.852 519.508 432.852 518.236L432.852 518.23C432.852 516.684 434.199 515.664 436.074 515.664C438.031 515.664 439.232 516.643 439.314 518.125L439.32 518.236L437.65 518.236L437.645 518.166C437.557 517.504 436.947 517.1 436.074 517.1C435.166 517.105 434.621 517.521 434.621 518.125L434.621 518.131C434.621 518.664 435.055 518.975 436.027 519.168L436.924 519.35C438.693 519.701 439.49 520.422 439.49 521.752L439.49 521.758ZM450.324 524.33C450.131 524.359 449.855 524.395 449.498 524.395C448.104 524.395 447.447 523.855 447.447 522.508L447.447 519.273L446.574 519.273L446.574 517.984L447.447 517.984L447.447 516.449L449.176 516.449L449.176 517.984L450.324 517.984L450.324 519.273L449.176 519.273L449.176 522.32C449.176 522.906 449.439 523.105 449.955 523.105C450.107 523.105 450.219 523.088 450.324 523.076L450.324 524.33ZM444.148 523.328C443.791 523.973 443.123 524.365 442.297 524.365C441.037 524.365 440.188 523.574 440.188 522.467L440.188 522.455C440.188 521.312 441.072 520.645 442.631 520.545L444.184 520.451L444.184 520.064C444.184 519.508 443.82 519.162 443.152 519.162C442.514 519.162 442.127 519.461 442.045 519.865L442.033 519.918L440.469 519.918L440.475 519.848C440.568 518.688 441.564 517.855 443.223 517.855C444.846 517.855 445.895 518.693 445.895 519.959L445.895 524.266L444.184 524.266L444.184 523.328L444.148 523.328ZM441.881 522.367L441.881 522.379C441.881 522.842 442.262 523.117 442.854 523.117C443.621 523.117 444.184 522.625 444.184 521.969L444.184 521.518L442.889 521.6C442.227 521.641 441.881 521.922 441.881 522.367Z" fill="#FFFFFFFF"/>
		<g opacity="0.500000">
			<path id="Thu" opacity="0.500000" d="M295.553 504.266L294.24 504.266L294.24 496.941L291.65 496.941L291.65 495.811L298.137 495.811L298.137 496.941L295.553 496.941L295.553 504.266ZM300.369 504.266L299.104 504.266L299.104 495.811L300.369 495.811L300.369 499.115L300.398 499.115C300.727 498.4 301.389 497.984 302.309 497.984C303.627 497.984 304.494 498.969 304.494 500.457L304.494 504.266L303.229 504.266L303.229 500.697C303.229 499.678 302.713 499.068 301.822 499.068C300.949 499.068 300.369 499.736 300.369 500.697L300.369 504.266ZM309.709 503.34C309.387 503.961 308.76 504.389 307.822 504.389C306.469 504.389 305.695 503.516 305.695 502.098L305.695 498.102L306.961 498.102L306.961 501.852C306.961 502.783 307.395 503.299 308.273 503.299C309.164 503.299 309.738 502.66 309.738 501.699L309.738 498.102L311.01 498.102L311.01 504.266L309.738 504.266L309.738 503.34L309.709 503.34Z" fill="#FFFFFFFF"/>
		</g>
		<g opacity="0.500000">
			<path id="Sun" opacity="0.500000" d="M508.201 501.887C508.201 503.428 506.982 504.406 504.979 504.406C503.08 504.406 501.826 503.504 501.721 502.016L501.715 501.928L502.992 501.928L503.004 502.004C503.121 502.783 503.9 503.27 505.031 503.27C506.162 503.27 506.877 502.76 506.877 501.969L506.877 501.963C506.877 501.283 506.414 500.914 505.295 500.668L504.375 500.475C502.717 500.123 501.914 499.361 501.914 498.107L501.914 498.102C501.92 496.66 503.191 495.67 504.979 495.67C506.742 495.67 507.949 496.631 508.037 498.049L508.043 498.148L506.766 498.148L506.76 498.066C506.643 497.281 505.963 496.807 504.961 496.807C503.912 496.812 503.244 497.311 503.244 498.049L503.244 498.055C503.244 498.688 503.725 499.074 504.779 499.303L505.705 499.496C507.451 499.865 508.201 500.574 508.201 501.881L508.201 501.887ZM517.037 504.266L515.771 504.266L515.771 498.102L517.037 498.102L517.037 499.033L517.066 499.033C517.389 498.406 518.021 497.984 518.953 497.984C520.307 497.984 521.086 498.857 521.086 500.275L521.086 504.266L519.814 504.266L519.814 500.516C519.814 499.59 519.381 499.068 518.502 499.068C517.611 499.068 517.037 499.713 517.037 500.674L517.037 504.266ZM513.217 503.34C512.895 503.961 512.268 504.389 511.33 504.389C509.977 504.389 509.203 503.516 509.203 502.098L509.203 498.102L510.469 498.102L510.469 501.852C510.469 502.783 510.902 503.299 511.781 503.299C512.672 503.299 513.246 502.66 513.246 501.699L513.246 498.102L514.518 498.102L514.518 504.266L513.246 504.266L513.246 503.34L513.217 503.34Z" fill="#FFFFFFFF"/>
		</g>
	</g>
	<defs>
		<clipPath id="clip17_77">
			<rect id="Chart 13" rx="16.000000" width="600.000000" height="600.000000" fill="white"/>
		</clipPath>
		<linearGradient id="paint_linear_18_7_0" x1="93.000000" y1="368.000000" x2="93.000000" y2="468.000000" gradientUnits="userSpaceOnUse">
			<stop stop-color="#99FFA3"/>
			<stop offset="1.000000" stop-color="#68EE76"/>
		</linearGradient>
		<linearGradient id="paint_linear_18_8_0" x1="232.000000" y1="256.000000" x2="232.000000" y2="468.000000" gradientUnits="userSpaceOnUse">
			<stop stop-color="#99FFA3"/>
			<stop offset="1.000000" stop-color="#68EE76"/>
		</linearGradient>
		<linearGradient id="paint_linear_18_9_0" x1="372.000000" y1="227.000000" x2="372.000000" y2="468.000000" gradientUnits="userSpaceOnUse">
			<stop stop-color="#99FFA3"/>
			<stop offset="1.000000" stop-color="#68EE76"/>
		</linearGradient>
		<linearGradient id="paint_linear_18_10_0" x1="512.000000" y1="325.000000" x2="512.000000" y2="468.000000" gradientUnits="userSpaceOnUse">
			<stop stop-color="#99FFA3"/>
			<stop offset="1.000000" stop-color="#68EE76"/>
		</linearGradient>
		<linearGradient id="paint_linear_18_11_0" x1="162.000000" y1="325.000000" x2="162.000000" y2="468.000000" gradientUnits="userSpaceOnUse">
			<stop stop-color="#99FFA3"/>
			<stop offset="1.000000" stop-color="#68EE76"/>
		</linearGradient>
		<linearGradient id="paint_linear_18_12_0" x1="302.000000" y1="372.000000" x2="302.000000" y2="468.000000" gradientUnits="userSpaceOnUse">
			<stop stop-color="#99FFA3"/>
			<stop offset="1.000000" stop-color="#68EE76"/>
		</linearGradient>
		<linearGradient id="paint_linear_18_13_0" x1="442.000000" y1="171.000000" x2="442.000000" y2="468.000000" gradientUnits="userSpaceOnUse">
			<stop stop-color="#99FFA3"/>
			<stop offset="1.000000" stop-color="#68EE76"/>
		</linearGradient>
	</defs>
</svg>
