<svg width="600.000000" height="600.000000" viewBox="0 0 600 600" fill="none" xmlns="http://www.w3.org/2000/svg" xmlns:xlink="http://www.w3.org/1999/xlink">
	<desc>
			Created with Pixso.
	</desc>
	<rect id="Chart 11" rx="16.000000" width="600.000000" height="600.000000" fill="#171724"/>
	<g clip-path="url(#clip8_34)">
		<g opacity="0.100000">
			<path id="Ellipse 8" d="M382.301 447.008C414.299 428.534 438.939 392.68 452.672 358.379C466.406 324.078 468.214 286.158 457.808 250.706C447.401 215.254 425.383 184.327 395.289 162.891C365.195 141.456 328.77 130.755 291.864 132.507C254.958 134.259 219.711 148.362 191.782 172.552C163.854 196.742 144.865 229.616 137.864 265.894C130.862 302.173 136.255 339.751 153.176 372.597C170.097 405.442 197.565 431.649 231.169 447.008" stroke="url(#paint_linear_8_51_0)" stroke-width="35.000000" stroke-linecap="round"/>
		</g>
		<g filter="url(#filter_8_52_dd)">
			<path id="Ellipse 9" d="M458 251.5C447.594 216.048 426.827 184.327 396.733 162.891C366.639 141.456 330.214 130.755 293.308 132.507C256.402 134.259 221.155 148.362 193.226 172.552C165.298 196.742 146.309 229.616 139.307 265.894C132.306 302.172 137.699 339.751 154.62 372.597C171.541 405.442 199.009 431.649 232.613 447.008" stroke="url(#paint_linear_8_52_0)" stroke-width="35.000000" stroke-linecap="round"/>
		</g>
		<g filter="url(#filter_8_53_dd)">
			<circle id="Ellipse 10" cx="457.500122" cy="251.500000" r="3.500000" fill="#FFFFFF"/>
		</g>
		<path id="65°" d="M286.547 333.523C286.547 341.878 279.892 347.825 270.801 347.825C260.945 347.825 253.752 340.887 253.752 327.038L253.752 326.981C253.752 313.586 260.237 305.543 270.886 305.543C278.787 305.543 284.734 310.103 285.952 316.418L286.009 316.701L277.569 316.701L277.484 316.446C276.465 313.982 274.199 312.312 270.857 312.312C264.882 312.312 262.276 318.004 261.965 325.226C261.937 325.792 261.908 326.358 261.908 326.783L262.078 326.783C263.692 322.988 267.714 320.213 273.236 320.213C281.138 320.213 286.547 325.82 286.547 333.467L286.547 333.523ZM323.646 333.467C323.646 342.02 317.189 347.825 307.844 347.825C298.951 347.825 293.061 342.643 292.551 335.817L292.522 335.393L300.424 335.393L300.48 335.591C301.075 338.678 303.936 341.057 307.872 341.057C312.347 341.057 315.49 337.998 315.49 333.637L315.49 333.58C315.462 329.275 312.318 326.245 307.9 326.245C305.805 326.245 304.021 326.868 302.633 327.973C301.812 328.596 301.16 329.389 300.679 330.238L293.23 330.238L295.1 306.251L321.183 306.251L321.183 313.048L301.896 313.048L300.905 324.546L301.075 324.546C302.774 321.799 306.145 320.128 310.279 320.128C318.039 320.128 323.646 325.707 323.646 333.41L323.646 333.467ZM348.512 316.814C348.512 322.394 344.235 326.585 338.543 326.585C332.851 326.585 328.574 322.394 328.574 316.814L328.574 316.786C328.603 311.207 332.851 307.016 338.543 307.016C344.235 307.016 348.512 311.207 348.512 316.786L348.512 316.814ZM334.748 316.814C334.748 318.995 336.447 320.694 338.543 320.694C340.724 320.694 342.338 318.995 342.338 316.814L342.338 316.786C342.338 314.549 340.667 312.906 338.543 312.906C336.476 312.906 334.748 314.549 334.748 316.786L334.748 316.814ZM263.211 333.665L263.211 333.722C263.211 337.828 266.496 341.028 270.688 341.028C274.851 341.028 278.221 337.856 278.221 333.835L278.221 333.778C278.221 329.53 275.021 326.528 270.772 326.528C266.496 326.528 263.211 329.502 263.211 333.665Z" fill="#FFFFFFFF"/>
		<path id="Temperature" d="M254.795 277.109L253.457 277.109L253.457 264.229L248.809 264.229L248.809 263.018L259.453 263.018L259.453 264.229L254.795 264.229L254.795 277.109ZM324.912 277.217C324.707 277.256 324.375 277.295 324.062 277.295C322.393 277.295 321.572 276.504 321.572 274.727L321.572 268.037L320.078 268.037L320.078 266.953L321.572 266.953L321.572 264.209L322.9 264.209L322.9 266.953L324.912 266.953L324.912 268.037L322.9 268.037L322.9 274.707C322.9 275.83 323.379 276.211 324.326 276.211C324.561 276.211 324.766 276.182 324.912 276.162L324.912 277.217ZM266.738 274.297C266.387 276.035 264.766 277.295 262.568 277.295C259.717 277.295 257.949 275.273 257.949 272.061L257.949 272.051C257.949 268.867 259.746 266.768 262.461 266.768C265.176 266.768 266.885 268.799 266.885 271.836L266.885 272.344L259.258 272.344C259.297 274.766 260.596 276.143 262.598 276.143C264.092 276.143 265.127 275.391 265.459 274.287L265.479 274.199L266.758 274.199L266.738 274.297ZM285.742 280.527L284.453 280.527L284.453 266.953L285.742 266.953L285.742 269.102L285.781 269.102C286.348 267.725 287.598 266.768 289.229 266.768C291.807 266.768 293.535 268.857 293.535 272.031L293.535 272.041C293.535 275.225 291.797 277.295 289.248 277.295C287.627 277.295 286.338 276.348 285.781 274.99L285.742 274.99L285.742 280.527ZM303.555 274.297C303.203 276.035 301.582 277.295 299.385 277.295C296.533 277.295 294.766 275.273 294.766 272.061L294.766 272.051C294.766 268.867 296.562 266.768 299.277 266.768C301.992 266.768 303.701 268.799 303.701 271.836L303.701 272.344L296.074 272.344C296.113 274.766 297.412 276.143 299.414 276.143C300.908 276.143 301.943 275.391 302.275 274.287L302.295 274.199L303.574 274.199L303.555 274.297ZM306.719 277.109L305.43 277.109L305.43 266.953L306.719 266.953L306.719 268.779L306.758 268.779C307.119 267.539 308.018 266.768 309.248 266.768C309.59 266.768 309.893 266.836 310.049 266.885L310.049 268.145C309.883 268.076 309.521 268.008 309.082 268.008C307.637 268.008 306.719 269.102 306.719 270.82L306.719 277.109ZM317.539 275.254C316.982 276.465 315.645 277.295 314.141 277.295C312.139 277.295 310.771 276.094 310.771 274.297L310.771 274.277C310.771 272.549 312.08 271.504 314.414 271.348L317.578 271.152L317.578 270.273C317.578 268.809 316.65 267.92 315.068 267.92C313.594 267.92 312.627 268.633 312.412 269.785L312.393 269.883L311.143 269.883L311.152 269.766C311.348 268.018 312.793 266.768 315.088 266.768C317.412 266.768 318.867 268.076 318.867 270.156L318.867 277.109L317.578 277.109L317.578 275.254L317.539 275.254ZM338.379 277.109L337.09 277.109L337.09 266.953L338.379 266.953L338.379 268.779L338.418 268.779C338.779 267.539 339.678 266.768 340.908 266.768C341.25 266.768 341.553 266.836 341.709 266.885L341.709 268.145C341.543 268.076 341.182 268.008 340.742 268.008C339.297 268.008 338.379 269.102 338.379 270.82L338.379 277.109ZM350.801 274.297C350.449 276.035 348.828 277.295 346.631 277.295C343.779 277.295 342.012 275.273 342.012 272.061L342.012 272.051C342.012 268.867 343.809 266.768 346.523 266.768C349.238 266.768 350.947 268.799 350.947 271.836L350.947 272.344L343.32 272.344C343.359 274.766 344.658 276.143 346.66 276.143C348.154 276.143 349.189 275.391 349.521 274.287L349.541 274.199L350.82 274.199L350.801 274.297ZM269.902 277.109L268.613 277.109L268.613 266.953L269.902 266.953L269.902 268.701L269.941 268.701C270.361 267.578 271.396 266.777 272.822 266.777C274.307 266.777 275.381 267.637 275.762 268.926L275.791 268.926C276.279 267.666 277.441 266.777 278.984 266.777C280.977 266.777 282.275 268.105 282.275 270.166L282.275 277.109L280.986 277.109L280.986 270.459C280.986 268.877 280.107 267.93 278.633 267.93C277.129 267.93 276.094 269.082 276.094 270.713L276.094 277.109L274.795 277.109L274.795 270.342C274.795 268.887 273.857 267.93 272.471 267.93C270.977 267.93 269.902 269.131 269.902 270.869L269.902 277.109ZM333.535 275.381C333.018 276.475 331.885 277.285 330.244 277.285C327.998 277.285 326.66 275.84 326.66 273.457L326.66 266.953L327.959 266.953L327.959 273.242C327.959 275.127 328.896 276.133 330.615 276.133C332.393 276.133 333.564 274.863 333.564 272.969L333.564 266.953L334.863 266.953L334.863 277.109L333.564 277.109L333.564 275.381L333.535 275.381ZM265.586 271.318C265.439 269.102 264.189 267.92 262.451 267.92C260.723 267.92 259.434 269.16 259.277 271.318L265.586 271.318ZM285.742 272.041C285.742 274.492 287.1 276.143 289.004 276.143C290.957 276.143 292.217 274.531 292.217 272.041L292.217 272.031C292.217 269.521 290.957 267.92 289.004 267.92C287.09 267.92 285.742 269.57 285.742 272.031L285.742 272.041ZM302.402 271.318C302.256 269.102 301.006 267.92 299.268 267.92C297.539 267.92 296.25 269.16 296.094 271.318L302.402 271.318ZM349.648 271.318C349.502 269.102 348.252 267.92 346.514 267.92C344.785 267.92 343.496 269.16 343.34 271.318L349.648 271.318ZM312.09 274.277L312.09 274.297C312.09 275.41 313.027 276.162 314.404 276.162C316.182 276.162 317.578 274.912 317.578 273.291L317.578 272.168L314.57 272.373C312.979 272.471 312.09 273.164 312.09 274.277Z" fill="#FFFFFFFF"/>
		<path id="Ellipse 16" d="M369.662 416.828C395.668 401.813 415.945 378.577 427.301 350.778C438.657 322.978 440.448 292.191 432.393 263.262C424.337 234.333 406.892 208.903 382.803 190.973C358.713 173.043 329.346 163.632 299.322 164.219C269.297 164.806 240.321 175.359 216.95 194.216C193.58 213.074 177.142 239.167 170.224 268.389C163.305 297.611 166.299 328.303 178.733 355.638C191.167 382.973 212.337 405.398 238.91 419.384" stroke="#6BCCFE" stroke-linecap="round" stroke-dasharray="0 1 14 0 1 14"/>
	</g>
	<defs>
		<filter id="filter_8_52_dd" x="103.804688" y="104.817261" width="386.723999" height="379.739136" filterUnits="userSpaceOnUse" color-interpolation-filters="sRGB">
			<feFlood flood-opacity="0" result="BackgroundImageFix"/>
			<feColorMatrix in="SourceAlpha" type="matrix" values="0 0 0 0 0 0 0 0 0 0 0 0 0 0 0 0 0 0 127 0"/>
			<feOffset dx="0" dy="5"/>
			<feGaussianBlur stdDeviation="5"/>
			<feColorMatrix type="matrix" values="0 0 0 0 0.50588 0 0 0 0 0.83137 0 0 0 0 0.99608 0 0 0 0.2 0"/>
			<feBlend mode="normal" in2="BackgroundImageFix" result="effect_dropShadow_1"/>
			<feBlend mode="normal" in="SourceGraphic" in2="effect_dropShadow_1" result="shape"/>
		</filter>
		<filter id="filter_8_53_dd" x="453.000122" y="247.000000" width="9.000000" height="9.000000" filterUnits="userSpaceOnUse" color-interpolation-filters="sRGB">
			<feFlood flood-opacity="0" result="BackgroundImageFix"/>
			<feColorMatrix in="SourceAlpha" type="matrix" values="0 0 0 0 0 0 0 0 0 0 0 0 0 0 0 0 0 0 127 0"/>
			<feOffset dx="0" dy="0"/>
			<feGaussianBlur stdDeviation="0.333333"/>
			<feColorMatrix type="matrix" values="0 0 0 0 0 0 0 0 0 0 0 0 0 0 0 0 0 0 0.15 0"/>
			<feBlend mode="normal" in2="BackgroundImageFix" result="effect_dropShadow_1"/>
			<feBlend mode="normal" in="SourceGraphic" in2="effect_dropShadow_1" result="shape"/>
		</filter>
		<clipPath id="clip8_34">
			<rect id="Chart 11" rx="16.000000" width="600.000000" height="600.000000" fill="white"/>
		</clipPath>
		<linearGradient id="paint_linear_8_51_0" x1="443.979401" y1="217.456421" x2="158.535675" y2="382.257385" gradientUnits="userSpaceOnUse">
			<stop stop-color="#7AD3FF"/>
			<stop offset="1.000000" stop-color="#4FBAF0"/>
		</linearGradient>
		<linearGradient id="paint_linear_8_52_0" x1="425.647766" y1="185.245667" x2="141.087967" y2="349.536316" gradientUnits="userSpaceOnUse">
			<stop stop-color="#7AD3FF"/>
			<stop offset="1.000000" stop-color="#4FBAF0"/>
		</linearGradient>
	</defs>
</svg>
