<svg width="600.000000" height="600.000000" viewBox="0 0 600 600" fill="none" xmlns="http://www.w3.org/2000/svg" xmlns:xlink="http://www.w3.org/1999/xlink">
	<desc>
			Created with Pixso.
	</desc>
	<rect id="Chart 9" rx="16.000000" width="600.000000" height="600.000000" fill="#FFFFFF"/>
	<g clip-path="url(#clip17_2)">
		<path id="Vector 10" d="M0.5 325.5C0.5 325.5 65.1961 273.16 113 276.5C154.297 279.385 165.611 324.69 207 325.5C290.816 327.14 229.967 94.6689 304 134C336.735 151.391 324.974 197.511 359.5 211C393.813 224.405 416.723 181.888 452 192.5C500.703 207.15 472.329 293.663 522.5 302C553.931 307.223 600 276.5 600 276.5L600 497L0.5 497L0.5 325.5Z" fill-rule="evenodd" fill="url(#paint_linear_42_23_0)"/>
		<path id="Vector 8" d="M0.5 325.5C0.5 325.5 65.1961 273.16 113 276.5C154.297 279.385 165.611 324.69 207 325.5C290.816 327.14 229.967 94.6689 304 134C336.735 151.391 324.974 197.511 359.5 211C393.813 224.405 416.723 181.888 452 192.5C500.703 207.15 472.329 293.663 522.5 302C553.931 307.223 600 276.5 600 276.5" stroke="url(#paint_linear_17_19_0)" stroke-width="5.000000" stroke-linecap="round"/>
		<path id="Vector 9" d="M0 218C0 218 49.9508 254.328 84 251.5C126.538 247.967 128.846 187.615 171.5 186C222.167 184.082 221.477 282.945 270.5 270C298.032 262.73 297.277 229.354 324.5 221C371.691 206.519 384.547 291.343 433.5 285C473.938 279.76 473.484 217.595 514 213C548.677 209.067 560.5 232.5 600.5 243.5" stroke="url(#paint_linear_17_20_0)" stroke-width="5.000000" stroke-linecap="round"/>
		<g opacity="0.500000">
			<path id="Jan" opacity="0.500000" d="M47.4863 520.764C47.4863 522.428 46.5078 523.406 44.8496 523.406C43.2852 523.406 42.3711 522.451 42.3008 521.104L42.2949 521.033L43.5898 521.033L43.5957 521.086C43.6484 521.73 44.0527 522.234 44.8379 522.234C45.7051 522.234 46.1738 521.719 46.1738 520.752L46.1738 514.811L47.4863 514.811L47.4863 520.764ZM52.4902 522.293C52.1328 522.955 51.418 523.377 50.6035 523.377C49.373 523.377 48.5469 522.621 48.5469 521.514L48.5469 521.502C48.5469 520.43 49.3789 519.773 50.8379 519.686L52.5137 519.586L52.5137 519.123C52.5137 518.443 52.0742 518.033 51.2891 518.033C50.5566 518.033 50.1055 518.379 50 518.871L49.9883 518.924L48.793 518.924L48.7988 518.859C48.8867 517.799 49.8066 516.984 51.3242 516.984C52.8301 516.984 53.7852 517.781 53.7852 519.018L53.7852 523.266L52.5137 523.266L52.5137 522.293L52.4902 522.293ZM56.2812 523.266L55.0156 523.266L55.0156 517.102L56.2812 517.102L56.2812 518.033L56.3105 518.033C56.6328 517.406 57.2656 516.984 58.1973 516.984C59.5508 516.984 60.3301 517.857 60.3301 519.275L60.3301 523.266L59.0586 523.266L59.0586 519.516C59.0586 518.59 58.625 518.068 57.7461 518.068C56.8555 518.068 56.2812 518.713 56.2812 519.674L56.2812 523.266ZM49.8242 521.473L49.8242 521.484C49.8242 522.023 50.2695 522.363 50.9492 522.363C51.8398 522.363 52.5137 521.76 52.5137 520.957L52.5137 520.477L51.0078 520.57C50.2461 520.617 49.8242 520.951 49.8242 521.473Z" fill="#454459FF"/>
		</g>
		<g opacity="0.500000">
			<path id="May" opacity="0.500000" d="M374.865 523.266L373.67 523.266L373.67 514.811L375.188 514.811L377.924 521.561L377.959 521.561L380.701 514.811L382.213 514.811L382.213 523.266L381.018 523.266L381.018 517.025L380.977 517.025L378.428 523.266L377.455 523.266L374.906 517.025L374.865 517.025L374.865 523.266ZM387.152 522.293C386.795 522.955 386.08 523.377 385.266 523.377C384.035 523.377 383.209 522.621 383.209 521.514L383.209 521.502C383.209 520.43 384.041 519.773 385.5 519.686L387.176 519.586L387.176 519.123C387.176 518.443 386.736 518.033 385.951 518.033C385.219 518.033 384.768 518.379 384.662 518.871L384.65 518.924L383.455 518.924L383.461 518.859C383.549 517.799 384.469 516.984 385.986 516.984C387.492 516.984 388.447 517.781 388.447 519.018L388.447 523.266L387.176 523.266L387.176 522.293L387.152 522.293ZM392.701 523.553C392.244 524.83 391.6 525.322 390.393 525.322C390.146 525.322 389.883 525.293 389.73 525.264L389.73 524.273C389.83 524.297 389.977 524.32 390.146 524.32C390.744 524.32 391.072 524.162 391.283 523.564L391.389 523.271L389.145 517.102L390.516 517.102L392.068 522.117L392.109 522.117L393.662 517.102L394.998 517.102L392.701 523.553ZM384.486 521.473L384.486 521.484C384.486 522.023 384.932 522.363 385.611 522.363C386.502 522.363 387.176 521.76 387.176 520.957L387.176 520.477L385.67 520.57C384.908 520.617 384.486 520.951 384.486 521.473Z" fill="#454459FF"/>
		</g>
		<g opacity="0.500000">
			<path id="Feb" opacity="0.500000" d="M126.4 523.266L125.088 523.266L125.088 514.811L130.367 514.811L130.367 515.941L126.4 515.941L126.4 518.619L130.033 518.619L130.033 519.727L126.4 519.727L126.4 523.266ZM143.34 520.184C143.34 522.146 142.326 523.389 140.762 523.389C139.877 523.389 139.191 522.943 138.828 522.223L138.799 522.223L138.799 523.266L137.533 523.266L137.533 514.811L138.799 514.811L138.799 518.15L138.828 518.15C139.197 517.424 139.9 516.984 140.773 516.984C142.32 516.984 143.34 518.215 143.34 520.178L143.34 520.184ZM136.42 521.52C136.221 522.498 135.271 523.389 133.777 523.389C131.967 523.389 130.871 522.152 130.871 520.207L130.871 520.201C130.871 518.273 131.984 516.984 133.713 516.984C135.441 516.984 136.502 518.227 136.502 520.078L136.502 520.506L132.137 520.506C132.16 521.672 132.799 522.352 133.807 522.352C134.557 522.352 135.055 521.965 135.213 521.502L135.23 521.455L136.432 521.455L136.42 521.52ZM135.248 519.609C135.143 518.543 134.545 518.021 133.719 518.021C132.898 518.021 132.266 518.578 132.154 519.609L135.248 519.609ZM138.793 520.184C138.793 521.467 139.467 522.299 140.428 522.299C141.424 522.299 142.045 521.496 142.045 520.184L142.045 520.178C142.045 518.877 141.424 518.068 140.428 518.068C139.473 518.068 138.793 518.9 138.793 520.178L138.793 520.184Z" fill="#454459FF"/>
		</g>
		<g opacity="0.500000">
			<path id="Mar" opacity="0.500000" d="M209.426 523.266L208.23 523.266L208.23 514.811L209.748 514.811L212.484 521.561L212.52 521.561L215.262 514.811L216.773 514.811L216.773 523.266L215.578 523.266L215.578 517.025L215.537 517.025L212.988 523.266L212.016 523.266L209.467 517.025L209.426 517.025L209.426 523.266ZM221.713 522.293C221.355 522.955 220.641 523.377 219.826 523.377C218.596 523.377 217.77 522.621 217.77 521.514L217.77 521.502C217.77 520.43 218.602 519.773 220.061 519.686L221.736 519.586L221.736 519.123C221.736 518.443 221.297 518.033 220.512 518.033C219.779 518.033 219.328 518.379 219.223 518.871L219.211 518.924L218.016 518.924L218.021 518.859C218.109 517.799 219.029 516.984 220.547 516.984C222.053 516.984 223.008 517.781 223.008 519.018L223.008 523.266L221.736 523.266L221.736 522.293L221.713 522.293ZM225.504 523.266L224.238 523.266L224.238 517.102L225.504 517.102L225.504 518.156L225.533 518.156C225.732 517.436 226.248 516.984 226.951 516.984C227.133 516.984 227.291 517.014 227.391 517.031L227.391 518.209C227.291 518.168 227.068 518.139 226.822 518.139C226.008 518.139 225.504 518.672 225.504 519.592L225.504 523.266ZM219.047 521.473L219.047 521.484C219.047 522.023 219.492 522.363 220.172 522.363C221.062 522.363 221.736 521.76 221.736 520.957L221.736 520.477L220.23 520.57C219.469 520.617 219.047 520.951 219.047 521.473Z" fill="#454459FF"/>
		</g>
		<g opacity="0.500000">
			<path id="Jun" opacity="0.500000" d="M463.77 520.764C463.77 522.428 462.791 523.406 461.133 523.406C459.568 523.406 458.654 522.451 458.584 521.104L458.578 521.033L459.873 521.033L459.879 521.086C459.932 521.73 460.336 522.234 461.121 522.234C461.988 522.234 462.457 521.719 462.457 520.752L462.457 514.811L463.77 514.811L463.77 520.764ZM472.998 523.266L471.732 523.266L471.732 517.102L472.998 517.102L472.998 518.033L473.027 518.033C473.35 517.406 473.982 516.984 474.914 516.984C476.268 516.984 477.047 517.857 477.047 519.275L477.047 523.266L475.775 523.266L475.775 519.516C475.775 518.59 475.342 518.068 474.463 518.068C473.572 518.068 472.998 518.713 472.998 519.674L472.998 523.266ZM469.178 522.34C468.855 522.961 468.229 523.389 467.291 523.389C465.938 523.389 465.164 522.516 465.164 521.098L465.164 517.102L466.43 517.102L466.43 520.852C466.43 521.783 466.863 522.299 467.742 522.299C468.633 522.299 469.207 521.66 469.207 520.699L469.207 517.102L470.479 517.102L470.479 523.266L469.207 523.266L469.207 522.34L469.178 522.34Z" fill="#454459FF"/>
		</g>
		<path id="Apr" d="M292.684 523.266L291.102 523.266L294.125 514.811L295.824 514.811L298.848 523.266L297.26 523.266L296.545 521.08L293.398 521.08L292.684 523.266ZM294.992 516.316L294.957 516.316L293.779 519.914L296.164 519.914L294.992 516.316ZM301.062 525.316L299.604 525.316L299.604 517.055L301.062 517.055L301.062 518.127L301.092 518.127C301.449 517.383 302.129 516.926 303.02 516.926C304.596 516.926 305.592 518.156 305.592 520.16L305.592 520.166C305.592 522.158 304.596 523.389 303.037 523.389C302.152 523.389 301.443 522.943 301.092 522.217L301.062 522.217L301.062 525.316ZM307.988 523.266L306.529 523.266L306.529 517.055L307.988 517.055L307.988 518.127L308.018 518.127C308.211 517.377 308.727 516.926 309.441 516.926C309.623 516.926 309.793 516.955 309.904 516.984L309.904 518.303C309.781 518.256 309.559 518.221 309.312 518.221C308.486 518.221 307.988 518.742 307.988 519.662L307.988 523.266ZM301.051 520.166C301.051 521.379 301.684 522.158 302.586 522.158C303.518 522.158 304.104 521.391 304.104 520.166L304.104 520.16C304.104 518.918 303.518 518.156 302.586 518.156C301.684 518.156 301.051 518.941 301.051 520.16L301.051 520.166Z" fill="#454459FF"/>
		<g opacity="0.500000">
			<path id="Jul" opacity="0.500000" d="M546.732 520.764C546.732 522.428 545.754 523.406 544.096 523.406C542.531 523.406 541.617 522.451 541.547 521.104L541.541 521.033L542.836 521.033L542.842 521.086C542.895 521.73 543.299 522.234 544.084 522.234C544.951 522.234 545.42 521.719 545.42 520.752L545.42 514.811L546.732 514.811L546.732 520.764ZM556.008 523.266L554.742 523.266L554.742 514.811L556.008 514.811L556.008 523.266ZM552.141 522.34C551.818 522.961 551.191 523.389 550.254 523.389C548.9 523.389 548.127 522.516 548.127 521.098L548.127 517.102L549.393 517.102L549.393 520.852C549.393 521.783 549.826 522.299 550.705 522.299C551.596 522.299 552.17 521.66 552.17 520.699L552.17 517.102L553.441 517.102L553.441 523.266L552.17 523.266L552.17 522.34L552.141 522.34Z" fill="#454459FF"/>
		</g>
		<g opacity="0.300000">
			<path id="Vector 21" d="M51.5 494L51.5 94" stroke="#171724" stroke-linecap="round" stroke-dasharray="0 1 14 0 1 14"/>
		</g>
		<g opacity="0.300000">
			<path id="Vector 22" d="M134 494L134 94" stroke="#171724" stroke-linecap="round" stroke-dasharray="0 1 14 0 1 14"/>
		</g>
		<g opacity="0.300000">
			<path id="Vector 23" d="M216.5 494L216.5 94" stroke="#171724" stroke-linecap="round" stroke-dasharray="0 1 14 0 1 14"/>
		</g>
		<g opacity="0.300000">
			<path id="Vector 24" d="M299 497L299 97" stroke="#171724" stroke-linecap="round" stroke-dasharray="0 1 14 0 1 14"/>
		</g>
		<g opacity="0.300000">
			<path id="Vector 25" d="M381.5 497L381.5 97" stroke="#171724" stroke-linecap="round" stroke-dasharray="0 1 14 0 1 14"/>
		</g>
		<g opacity="0.300000">
			<path id="Vector 26" d="M464 497L464 97" stroke="#171724" stroke-linecap="round" stroke-dasharray="0 1 14 0 1 14"/>
		</g>
		<g opacity="0.300000">
			<path id="Vector 27" d="M546.5 497L546.5 97" stroke="#171724" stroke-linecap="round" stroke-dasharray="0 1 14 0 1 14"/>
		</g>
		<g filter="url(#filter_17_21_dd)">
			<circle id="Ellipse 42" cx="299.000000" cy="130.000000" r="20.000000" fill="url(#paint_linear_17_21_0)"/>
			<circle id="Ellipse 42" cx="299.000000" cy="130.000000" r="16.000000" stroke="#FFFFFF" stroke-width="8.000000"/>
		</g>
	</g>
	<defs>
		<filter id="filter_17_21_dd" x="254.000000" y="90.000000" width="90.000000" height="90.000000" filterUnits="userSpaceOnUse" color-interpolation-filters="sRGB">
			<feFlood flood-opacity="0" result="BackgroundImageFix"/>
			<feColorMatrix in="SourceAlpha" type="matrix" values="0 0 0 0 0 0 0 0 0 0 0 0 0 0 0 0 0 0 127 0"/>
			<feOffset dx="0" dy="5"/>
			<feGaussianBlur stdDeviation="8.33333"/>
			<feColorMatrix type="matrix" values="0 0 0 0 0 0 0 0 0 0 0 0 0 0 0 0 0 0 0.1 0"/>
			<feBlend mode="normal" in2="BackgroundImageFix" result="effect_dropShadow_1"/>
			<feBlend mode="normal" in="SourceGraphic" in2="effect_dropShadow_1" result="shape"/>
		</filter>
		<clipPath id="clip17_2">
			<rect id="Chart 9" rx="16.000000" width="600.000000" height="600.000000" fill="white"/>
		</clipPath>
		<linearGradient id="paint_linear_42_23_0" x1="300.250000" y1="129.517334" x2="300.250000" y2="497.000000" gradientUnits="userSpaceOnUse">
			<stop stop-color="#FF9364" stop-opacity="0.301961"/>
			<stop offset="1.000000" stop-color="#F25F33" stop-opacity="0.000000"/>
		</linearGradient>
		<linearGradient id="paint_linear_17_19_0" x1="300.250000" y1="129.517334" x2="300.250000" y2="325.508606" gradientUnits="userSpaceOnUse">
			<stop stop-color="#FF9364"/>
			<stop offset="1.000000" stop-color="#F25F33"/>
		</linearGradient>
		<linearGradient id="paint_linear_17_20_0" x1="300.250000" y1="185.972412" x2="300.250000" y2="285.339478" gradientUnits="userSpaceOnUse">
			<stop stop-color="#B09FFF"/>
			<stop offset="1.000000" stop-color="#8D79F6"/>
		</linearGradient>
		<linearGradient id="paint_linear_17_21_0" x1="299.000000" y1="110.000000" x2="299.000000" y2="150.000000" gradientUnits="userSpaceOnUse">
			<stop stop-color="#FF9364"/>
			<stop offset="1.000000" stop-color="#F25F33"/>
		</linearGradient>
	</defs>
</svg>
