<svg width="600.000000" height="600.000000" viewBox="0 0 600 600" fill="none" xmlns="http://www.w3.org/2000/svg" xmlns:xlink="http://www.w3.org/1999/xlink">
	<desc>
			Created with Pixso.
	</desc>
	<rect id="Chart 8" rx="16.000000" width="600.000000" height="600.000000" fill="#FFFFFF"/>
	<g clip-path="url(#clip15_31)">
		<g opacity="0.100000">
			<path id="Vector 8" d="M0 376.5C11 371 7.24585 368.766 25 366C55.3815 361.266 41.2521 314.585 72 314.5C94.8322 314.437 93.6854 280.835 116 276C139.294 270.953 151.217 302.002 174 295C191.429 289.644 189.938 265.494 208 263C222.625 260.981 228.816 274.464 243.5 276C301.804 282.101 236.487 138.58 295 135C354.962 131.332 300.182 220.457 360 226C385.346 228.349 389.497 256.735 419 257.5C438.097 257.995 437.533 292.714 456.5 295C483.508 298.255 472.84 321.97 500 323.5C521.5 324.711 524.01 277.011 539 276C559.16 274.64 550.433 292.64 570.5 295C583.463 296.525 600 260.5 600 260.5L600 524L0 524L0 376.5Z" fill-rule="evenodd" fill="url(#paint_linear_42_3_0)"/>
		</g>
		<path id="Vector 7" d="M0 376.5C11 371 7.24585 368.766 25 366C55.3815 361.266 41.2521 314.585 72 314.5C94.8322 314.437 93.6854 280.835 116 276C139.294 270.953 151.217 302.002 174 295C191.429 289.644 189.938 265.494 208 263C222.625 260.981 228.816 274.464 243.5 276C301.804 282.101 236.487 138.58 295 135C354.962 131.332 300.182 220.457 360 226C385.346 228.349 389.497 256.735 419 257.5C438.097 257.995 437.533 292.714 456.5 295C483.508 298.255 472.84 321.97 500 323.5C521.5 324.711 524.01 277.011 539 276C559.16 274.64 550.433 292.64 570.5 295C583.463 296.525 600 260.5 600 260.5" stroke="url(#paint_linear_15_59_0)" stroke-width="5.000000" stroke-linecap="round"/>
		<g opacity="0.500000">
			<rect id="Rectangle 86" x="332.000000" y="170.000000" width="90.000000" height="354.000000" fill="url(#paint_linear_15_61_0)"/>
		</g>
		<g filter="url(#filter_15_60_dd)">
			<circle id="Ellipse 41" cx="377.000000" cy="230.000000" r="20.000000" fill="#FFFFFF"/>
			<circle id="Ellipse 41" cx="377.000000" cy="230.000000" r="14.500000" stroke="url(#paint_linear_15_60_0)" stroke-width="11.000000"/>
		</g>
		<g opacity="0.500000">
			<path id="Jan" opacity="0.500000" d="M37.7227 506.764C37.7227 508.428 36.7441 509.406 35.0859 509.406C33.5215 509.406 32.6074 508.451 32.5371 507.104L32.5312 507.033L33.8262 507.033L33.832 507.086C33.8848 507.73 34.2891 508.234 35.0742 508.234C35.9414 508.234 36.4102 507.719 36.4102 506.752L36.4102 500.811L37.7227 500.811L37.7227 506.764ZM39.8848 509.266L38.5078 509.266L41.584 500.811L43.002 500.811L46.0723 509.266L44.6953 509.266L43.9219 506.98L40.6641 506.98L39.8848 509.266ZM48.3105 509.266L47.0098 509.266L47.0098 500.811L48.2227 500.811L52.5703 507.062L52.6055 507.062L52.6055 500.811L53.9062 500.811L53.9062 509.266L52.6992 509.266L48.3457 503.002L48.3105 503.002L48.3105 509.266ZM42.3047 502.211L42.2812 502.211L41.0156 505.926L43.5645 505.926L42.3047 502.211Z" fill="#454459FF"/>
		</g>
		<path id="May" d="M365.664 509.266L364.299 509.266L364.299 500.811L366.045 500.811L368.635 507.268L368.676 507.268L371.266 500.811L373.012 500.811L373.012 509.266L371.652 509.266L371.652 503.254L371.605 503.254L369.168 509.266L368.143 509.266L365.705 503.254L365.664 503.254L365.664 509.266ZM375.502 509.266L373.92 509.266L376.943 500.811L378.643 500.811L381.666 509.266L380.078 509.266L379.363 507.08L376.217 507.08L375.502 509.266ZM385.316 509.266L383.811 509.266L383.811 505.932L380.846 500.811L382.498 500.811L384.543 504.49L384.584 504.49L386.629 500.811L388.281 500.811L385.316 505.932L385.316 509.266ZM377.811 502.316L377.775 502.316L376.598 505.914L378.982 505.914L377.811 502.316Z" fill="#454459FF"/>
		<g opacity="0.500000">
			<path id="Feb" opacity="0.500000" d="M116.82 509.266L115.508 509.266L115.508 500.811L120.787 500.811L120.787 501.941L116.82 501.941L116.82 504.619L120.453 504.619L120.453 505.727L116.82 505.727L116.82 509.266ZM127.297 509.266L121.93 509.266L121.93 500.811L127.297 500.811L127.297 501.941L123.242 501.941L123.242 504.408L127.08 504.408L127.08 505.51L123.242 505.51L123.242 508.135L127.297 508.135L127.297 509.266ZM132.037 509.266L128.645 509.266L128.645 500.811L132.02 500.811C133.52 500.811 134.504 501.648 134.504 502.926L134.504 502.938C134.504 503.828 133.83 504.654 132.939 504.783L132.939 504.807C134.141 504.93 134.92 505.756 134.92 506.869L134.92 506.881C134.92 508.363 133.836 509.266 132.037 509.266ZM133.197 503.084C133.197 502.311 132.652 501.883 131.703 501.883L129.957 501.883L129.957 504.414L131.41 504.414C132.57 504.414 133.197 503.945 133.197 503.096L133.197 503.084ZM133.578 506.805C133.578 505.896 132.934 505.428 131.68 505.428L129.957 505.428L129.957 508.193L131.768 508.193C132.945 508.193 133.578 507.719 133.578 506.816L133.578 506.805Z" fill="#454459FF"/>
		</g>
		<g opacity="0.500000">
			<path id="Mar" opacity="0.500000" d="M200.801 509.266L199.605 509.266L199.605 500.811L201.123 500.811L203.859 507.561L203.895 507.561L206.637 500.811L208.148 500.811L208.148 509.266L206.953 509.266L206.953 503.025L206.912 503.025L204.363 509.266L203.391 509.266L200.842 503.025L200.801 503.025L200.801 509.266ZM210.457 509.266L209.08 509.266L212.156 500.811L213.574 500.811L216.645 509.266L215.268 509.266L214.494 506.98L211.236 506.98L210.457 509.266ZM218.895 509.266L217.582 509.266L217.582 500.811L220.863 500.811C222.592 500.811 223.682 501.812 223.682 503.4L223.682 503.412C223.682 504.561 223.055 505.475 222.041 505.82L223.934 509.266L222.422 509.266L220.699 506.02L218.895 506.02L218.895 509.266ZM218.895 501.912L218.895 504.941L220.734 504.941C221.748 504.941 222.328 504.385 222.328 503.424L222.328 503.412C222.328 502.475 221.707 501.912 220.699 501.912L218.895 501.912ZM212.877 502.211L212.854 502.211L211.588 505.926L214.137 505.926L212.877 502.211Z" fill="#454459FF"/>
		</g>
		<path id="􀄤" d="M380.453 474.334C380.588 474.609 380.693 474.809 380.693 475.061C380.693 475.529 380.33 475.857 379.762 475.857L372.238 475.863C371.664 475.863 371.307 475.535 371.307 475.061C371.307 474.814 371.412 474.615 371.547 474.334L375.121 466.939C375.379 466.418 375.643 466.225 376 466.225C376.357 466.225 376.621 466.418 376.873 466.939L380.453 474.334Z" fill="#FFFFFFFF"/>
		<path id="􀄤" d="M380.453 406.334C380.588 406.609 380.693 406.809 380.693 407.061C380.693 407.529 380.33 407.857 379.762 407.857L372.238 407.863C371.664 407.863 371.307 407.535 371.307 407.061C371.307 406.814 371.412 406.615 371.547 406.334L375.121 398.939C375.379 398.418 375.643 398.225 376 398.225C376.357 398.225 376.621 398.418 376.873 398.939L380.453 406.334Z" fill="#FFFFFFFF"/>
		<path id="􀄤" d="M380.453 338.334C380.588 338.609 380.693 338.809 380.693 339.061C380.693 339.529 380.33 339.857 379.762 339.857L372.238 339.863C371.664 339.863 371.307 339.535 371.307 339.061C371.307 338.814 371.412 338.615 371.547 338.334L375.121 330.939C375.379 330.418 375.643 330.225 376 330.225C376.357 330.225 376.621 330.418 376.873 330.939L380.453 338.334Z" fill="#FFFFFFFF"/>
		<path id="􀄤" d="M380.453 440.334C380.588 440.609 380.693 440.809 380.693 441.061C380.693 441.529 380.33 441.857 379.762 441.857L372.238 441.863C371.664 441.863 371.307 441.535 371.307 441.061C371.307 440.814 371.412 440.615 371.547 440.334L375.121 432.939C375.379 432.418 375.643 432.225 376 432.225C376.357 432.225 376.621 432.418 376.873 432.939L380.453 440.334Z" fill="#FFFFFFFF"/>
		<path id="􀄤" d="M380.453 372.334C380.588 372.609 380.693 372.809 380.693 373.061C380.693 373.529 380.33 373.857 379.762 373.857L372.238 373.863C371.664 373.863 371.307 373.535 371.307 373.061C371.307 372.814 371.412 372.615 371.547 372.334L375.121 364.939C375.379 364.418 375.643 364.225 376 364.225C376.357 364.225 376.621 364.418 376.873 364.939L380.453 372.334Z" fill="#FFFFFFFF"/>
		<path id="􀄤" d="M380.453 304.334C380.588 304.609 380.693 304.809 380.693 305.061C380.693 305.529 380.33 305.857 379.762 305.857L372.238 305.863C371.664 305.863 371.307 305.535 371.307 305.061C371.307 304.814 371.412 304.615 371.547 304.334L375.121 296.939C375.379 296.418 375.643 296.225 376 296.225C376.357 296.225 376.621 296.418 376.873 296.939L380.453 304.334Z" fill="#FFFFFFFF"/>
		<path id="􀄤" d="M380.453 270.334C380.588 270.609 380.693 270.809 380.693 271.061C380.693 271.529 380.33 271.857 379.762 271.857L372.238 271.863C371.664 271.863 371.307 271.535 371.307 271.061C371.307 270.814 371.412 270.615 371.547 270.334L375.121 262.939C375.379 262.418 375.643 262.225 376 262.225C376.357 262.225 376.621 262.418 376.873 262.939L380.453 270.334Z" fill="#FFFFFFFF"/>
		<g opacity="0.500000">
			<path id="Jun" opacity="0.500000" d="M455.877 506.764C455.877 508.428 454.898 509.406 453.24 509.406C451.676 509.406 450.762 508.451 450.691 507.104L450.686 507.033L451.98 507.033L451.986 507.086C452.039 507.73 452.443 508.234 453.229 508.234C454.096 508.234 454.564 507.719 454.564 506.752L454.564 500.811L455.877 500.811L455.877 506.764ZM464.297 506.295C464.297 508.146 463.008 509.406 460.881 509.406C458.76 509.406 457.453 508.146 457.453 506.295L457.453 500.811L458.766 500.811L458.766 506.189C458.766 507.42 459.533 508.246 460.881 508.246C462.229 508.246 462.99 507.42 462.99 506.189L462.99 500.811L464.297 500.811L464.297 506.295ZM467.156 509.266L465.855 509.266L465.855 500.811L467.068 500.811L471.416 507.062L471.451 507.062L471.451 500.811L472.752 500.811L472.752 509.266L471.545 509.266L467.191 503.002L467.156 503.002L467.156 509.266Z" fill="#454459FF"/>
		</g>
		<g opacity="0.500000">
			<path id="Apr" opacity="0.500000" d="M282.855 509.266L281.479 509.266L284.555 500.811L285.973 500.811L289.043 509.266L287.666 509.266L286.893 506.98L283.635 506.98L282.855 509.266ZM291.293 509.266L289.98 509.266L289.98 500.811L293.127 500.811C294.785 500.811 295.934 501.924 295.934 503.582L295.934 503.594C295.934 505.246 294.785 506.377 293.127 506.377L291.293 506.377L291.293 509.266ZM298.395 509.266L297.082 509.266L297.082 500.811L300.363 500.811C302.092 500.811 303.182 501.812 303.182 503.4L303.182 503.412C303.182 504.561 302.555 505.475 301.541 505.82L303.434 509.266L301.922 509.266L300.199 506.02L298.395 506.02L298.395 509.266ZM298.395 501.912L298.395 504.941L300.234 504.941C301.248 504.941 301.828 504.385 301.828 503.424L301.828 503.412C301.828 502.475 301.207 501.912 300.199 501.912L298.395 501.912ZM294.598 503.588C294.598 502.533 293.941 501.918 292.799 501.918L291.293 501.918L291.293 505.275L292.799 505.275C293.941 505.275 294.598 504.66 294.598 503.6L294.598 503.588ZM285.275 502.211L285.252 502.211L283.986 505.926L286.535 505.926L285.275 502.211Z" fill="#454459FF"/>
		</g>
		<g opacity="0.500000">
			<path id="Jul" opacity="0.500000" d="M539.42 506.764C539.42 508.428 538.441 509.406 536.783 509.406C535.219 509.406 534.305 508.451 534.234 507.104L534.229 507.033L535.523 507.033L535.529 507.086C535.582 507.73 535.986 508.234 536.771 508.234C537.639 508.234 538.107 507.719 538.107 506.752L538.107 500.811L539.42 500.811L539.42 506.764ZM547.84 506.295C547.84 508.146 546.551 509.406 544.424 509.406C542.303 509.406 540.996 508.146 540.996 506.295L540.996 500.811L542.309 500.811L542.309 506.189C542.309 507.42 543.076 508.246 544.424 508.246C545.771 508.246 546.533 507.42 546.533 506.189L546.533 500.811L547.84 500.811L547.84 506.295ZM554.648 509.266L549.398 509.266L549.398 500.811L550.711 500.811L550.711 508.135L554.648 508.135L554.648 509.266Z" fill="#454459FF"/>
		</g>
	</g>
	<defs>
		<filter id="filter_15_60_dd" x="332.000000" y="190.000000" width="90.000000" height="90.000000" filterUnits="userSpaceOnUse" color-interpolation-filters="sRGB">
			<feFlood flood-opacity="0" result="BackgroundImageFix"/>
			<feColorMatrix in="SourceAlpha" type="matrix" values="0 0 0 0 0 0 0 0 0 0 0 0 0 0 0 0 0 0 127 0"/>
			<feOffset dx="0" dy="5"/>
			<feGaussianBlur stdDeviation="8.33333"/>
			<feColorMatrix type="matrix" values="0 0 0 0 0 0 0 0 0 0 0 0 0 0 0 0 0 0 0.1 0"/>
			<feBlend mode="normal" in2="BackgroundImageFix" result="effect_dropShadow_1"/>
			<feBlend mode="normal" in="SourceGraphic" in2="effect_dropShadow_1" result="shape"/>
		</filter>
		<clipPath id="clip15_31">
			<rect id="Chart 8" rx="16.000000" width="600.000000" height="600.000000" fill="white"/>
		</clipPath>
		<linearGradient id="paint_linear_42_3_0" x1="300.000000" y1="134.889832" x2="300.000000" y2="524.000122" gradientUnits="userSpaceOnUse">
			<stop stop-color="#FE6C6C"/>
			<stop offset="1.000000" stop-color="#FE464B" stop-opacity="0.000000"/>
		</linearGradient>
		<linearGradient id="paint_linear_15_59_0" x1="300.000000" y1="134.889832" x2="300.000000" y2="376.500000" gradientUnits="userSpaceOnUse">
			<stop stop-color="#FE6C6C"/>
			<stop offset="1.000000" stop-color="#FE464B"/>
		</linearGradient>
		<linearGradient id="paint_linear_15_61_0" x1="377.000000" y1="170.000000" x2="377.000000" y2="524.000000" gradientUnits="userSpaceOnUse">
			<stop offset="0.010417" stop-color="#FE6C6C" stop-opacity="0.000000"/>
			<stop offset="0.281250" stop-color="#FE6C6C"/>
			<stop offset="0.666667" stop-color="#FE464B"/>
			<stop offset="0.984375" stop-color="#FE464B" stop-opacity="0.000000"/>
		</linearGradient>
		<linearGradient id="paint_linear_15_60_0" x1="377.000000" y1="210.000000" x2="377.000000" y2="250.000000" gradientUnits="userSpaceOnUse">
			<stop stop-color="#FE6C6C"/>
			<stop offset="1.000000" stop-color="#FE464B"/>
		</linearGradient>
	</defs>
</svg>
