<svg width="600.000000" height="600.000000" viewBox="0 0 600 600" fill="none" xmlns="http://www.w3.org/2000/svg" xmlns:xlink="http://www.w3.org/1999/xlink">
	<desc>
			Created with Pixso.
	</desc>
	<rect id="Chart 1" rx="16.000000" width="600.000000" height="600.000000" fill="#FFFFFF"/>
	<g clip-path="url(#clip3_32)">
		<path id="Ellipse 2" d="M498 300C498 252.406 481.208 208.734 453.224 174.586C423.075 137.76 382.42 114.601 339.136 105.906L300 300L498 300Z" fill-rule="evenodd" fill="url(#paint_linear_3_37_0)"/>
		<path id="Ellipse 3" d="M456.004 393.737C472.567 366.173 480.977 335.983 481.902 305.979L300 300L456.004 393.737Z" fill-rule="evenodd" fill="url(#paint_linear_3_38_0)"/>
		<path id="Ellipse 4" d="M258.785 512.031C302.552 520.539 345.799 515.184 383.99 499.026C425.057 481.672 457.977 453.118 480.656 418.404L300 300L258.785 512.031Z" fill-rule="evenodd" fill="url(#paint_linear_3_39_0)"/>
		<path id="Ellipse 5" d="M150.567 429.9C179.438 463.111 216.943 484.374 256.835 493.238L300 300L150.567 429.9Z" fill-rule="evenodd" fill="url(#paint_linear_3_40_0)"/>
		<path id="Ellipse 6" d="M339.071 78.4182C292.109 70.1376 245.983 77.0681 205.748 95.6703C162.446 115.669 128.505 147.665 106.06 185.889C81.8911 227.01 72.2539 272.647 75.6116 316.847C79.2051 364.409 97.3113 407.395 125.296 441.787L300 300L339.071 78.4182Z" fill-rule="evenodd" fill="url(#paint_linear_3_41_0)"/>
		<g filter="url(#filter_3_42_dd)">
			<circle id="Ellipse 1" cx="300.000000" cy="300.000000" r="135.000000" fill="#FFFFFF"/>
		</g>
		<g opacity="0.050000">
			<circle id="Ellipse 7" cx="300.000000" cy="300.000000" r="119.000000" stroke="#454459" stroke-width="2.000000"/>
		</g>
		<path id="$452" d="M257.773 307.961L255.242 307.961L255.242 304.023C248.961 303.648 244.438 300.297 244.062 294.883L244.039 294.555L249.5 294.555L249.547 294.812C249.969 297.156 251.609 298.961 255.242 299.336L255.242 289.891L253.93 289.609C247.836 288.25 244.648 285.461 244.648 280.609L244.648 280.562C244.648 275.242 248.984 271.68 255.242 271.281L255.242 267.344L257.773 267.344L257.773 271.281C263.844 271.703 267.969 275.078 268.391 280.328L268.414 280.703L262.953 280.703L262.93 280.492C262.578 277.938 260.68 276.344 257.773 275.992L257.773 285.062L259.203 285.367C265.555 286.797 268.812 289.398 268.812 294.414L268.812 294.461C268.812 300.273 264.102 303.648 257.773 304.023L257.773 307.961ZM357.594 304.562L333.828 304.562L333.828 300.438L345.781 288.789C350.211 284.453 351.172 282.742 351.172 280.234L351.172 280.188C351.148 277.164 348.875 275.008 345.617 275.008C341.867 275.008 339.242 277.516 339.172 280.773L339.172 280.938L333.5 280.938L333.5 280.773C333.5 274.586 338.703 270.156 345.57 270.156C352.344 270.156 357.078 274.258 357.078 279.836L357.078 279.883C357.078 283.867 355.227 286.562 349.273 292.281L341.82 299.359L341.82 299.617L357.594 299.617L357.594 304.562ZM296.07 304.562L290.305 304.562L290.305 298.07L273.43 298.07L273.43 292.914L287.469 270.742L296.07 270.742L296.07 293.102L300.664 293.102L300.664 298.07L296.07 298.07L296.07 304.562ZM329.727 293.406C329.727 300.367 324.5 305.148 317.023 305.148C309.992 305.148 305.211 300.953 304.766 295.352L304.742 295.047L310.414 295.047L310.438 295.211C310.93 298.047 313.508 300.227 317.07 300.227C321.102 300.227 323.891 297.461 323.891 293.5L323.891 293.453C323.891 289.586 321.055 286.82 317.094 286.82C315.172 286.82 313.508 287.406 312.219 288.484C311.586 289 311.023 289.656 310.625 290.406L305.352 290.406L306.969 270.742L327.734 270.742L327.734 275.688L311.797 275.688L310.859 285.883L310.977 285.883C312.453 283.609 315.242 282.273 318.641 282.273C325.086 282.273 329.727 286.938 329.727 293.359L329.727 293.406ZM278.867 293.078L278.867 293.242L290.398 293.242L290.398 275.312L290.258 275.312L278.867 293.078ZM250.297 280.164L250.297 280.188C250.297 282.25 251.656 283.68 255.242 284.5L255.242 275.969C251.984 276.32 250.297 278.148 250.297 280.164ZM263.188 294.977L263.188 294.93C263.188 292.727 261.969 291.414 257.773 290.453L257.773 299.359C261.594 299.078 263.188 297.297 263.188 294.977Z" fill="#454459FF"/>
		<g opacity="0.700000">
			<path id="september" opacity="0.700000" d="M324.697 333.328C324.697 336.185 323.133 338.065 320.83 338.065C319.389 338.065 318.237 337.257 317.71 335.965L317.684 335.965L317.684 337.898L316.515 337.898L316.515 325.216L317.684 325.216L317.684 330.665L317.71 330.665C318.229 329.399 319.406 328.591 320.839 328.591C323.124 328.591 324.697 330.463 324.697 333.319L324.697 333.328ZM291.729 337.995C291.545 338.03 291.246 338.065 290.965 338.065C289.462 338.065 288.724 337.354 288.724 335.754L288.724 329.733L287.379 329.733L287.379 328.758L288.724 328.758L288.724 326.288L289.919 326.288L289.919 328.758L291.729 328.758L291.729 329.733L289.919 329.733L289.919 335.736C289.919 336.747 290.35 337.09 291.202 337.09C291.413 337.09 291.598 337.063 291.729 337.046L291.729 337.995ZM267.797 335.411C267.797 336.967 266.347 338.065 264.343 338.065C262.269 338.065 260.941 336.958 260.766 335.341L260.757 335.262L261.917 335.262L261.935 335.341C262.119 336.396 262.972 337.081 264.352 337.081C265.731 337.081 266.61 336.448 266.61 335.49L266.61 335.481C266.61 334.69 266.171 334.26 264.949 333.97L263.569 333.636C261.847 333.223 261.021 332.467 261.021 331.201L261.021 331.192C261.021 329.672 262.365 328.591 264.272 328.591C266.224 328.591 267.472 329.725 267.621 331.298L267.63 331.395L266.514 331.395L266.505 331.333C266.355 330.27 265.547 329.575 264.272 329.575C263.033 329.575 262.207 330.217 262.207 331.148L262.207 331.157C262.207 331.887 262.699 332.353 263.903 332.643L265.283 332.968C267.103 333.407 267.797 334.119 267.797 335.402L267.797 335.411ZM276.814 335.367C276.498 336.932 275.039 338.065 273.062 338.065C270.495 338.065 268.904 336.246 268.904 333.354L268.904 333.346C268.904 330.48 270.521 328.591 272.965 328.591C275.408 328.591 276.946 330.419 276.946 333.152L276.946 333.609L270.082 333.609C270.117 335.789 271.286 337.028 273.088 337.028C274.433 337.028 275.364 336.352 275.663 335.358L275.681 335.279L276.832 335.279L276.814 335.367ZM279.662 340.975L278.502 340.975L278.502 328.758L279.662 328.758L279.662 330.691L279.697 330.691C280.207 329.452 281.332 328.591 282.8 328.591C285.12 328.591 286.676 330.472 286.676 333.328L286.676 333.337C286.676 336.202 285.111 338.065 282.817 338.065C281.358 338.065 280.198 337.213 279.697 335.991L279.662 335.991L279.662 340.975ZM300.492 335.367C300.176 336.932 298.717 338.065 296.739 338.065C294.173 338.065 292.582 336.246 292.582 333.354L292.582 333.346C292.582 330.48 294.199 328.591 296.643 328.591C299.086 328.591 300.624 330.419 300.624 333.152L300.624 333.609L293.76 333.609C293.795 335.789 294.964 337.028 296.766 337.028C298.11 337.028 299.042 336.352 299.341 335.358L299.358 335.279L300.51 335.279L300.492 335.367ZM333.697 335.367C333.381 336.932 331.922 338.065 329.944 338.065C327.378 338.065 325.787 336.246 325.787 333.354L325.787 333.346C325.787 330.48 327.404 328.591 329.848 328.591C332.291 328.591 333.829 330.419 333.829 333.152L333.829 333.609L326.965 333.609C327 335.789 328.169 337.028 329.971 337.028C331.315 337.028 332.247 336.352 332.546 335.358L332.563 335.279L333.715 335.279L333.697 335.367ZM336.545 337.898L335.385 337.898L335.385 328.758L336.545 328.758L336.545 330.401L336.58 330.401C336.905 329.285 337.714 328.591 338.821 328.591C339.129 328.591 339.401 328.652 339.542 328.696L339.542 329.83C339.393 329.769 339.067 329.707 338.672 329.707C337.371 329.707 336.545 330.691 336.545 332.238L336.545 337.898ZM303.34 337.898L302.18 337.898L302.18 328.758L303.34 328.758L303.34 330.331L303.375 330.331C303.753 329.32 304.685 328.6 305.968 328.6C307.304 328.6 308.271 329.373 308.613 330.533L308.64 330.533C309.079 329.399 310.125 328.6 311.514 328.6C313.307 328.6 314.476 329.795 314.476 331.649L314.476 337.898L313.315 337.898L313.315 331.913C313.315 330.489 312.524 329.637 311.197 329.637C309.844 329.637 308.912 330.674 308.912 332.142L308.912 337.898L307.743 337.898L307.743 331.808C307.743 330.498 306.899 329.637 305.651 329.637C304.307 329.637 303.34 330.718 303.34 332.282L303.34 337.898ZM275.777 332.687C275.646 330.691 274.521 329.628 272.956 329.628C271.4 329.628 270.24 330.744 270.1 332.687L275.777 332.687ZM279.662 333.337C279.662 335.543 280.884 337.028 282.598 337.028C284.355 337.028 285.489 335.578 285.489 333.337L285.489 333.328C285.489 331.069 284.355 329.628 282.598 329.628C280.875 329.628 279.662 331.113 279.662 333.328L279.662 333.337ZM299.455 332.687C299.323 330.691 298.198 329.628 296.634 329.628C295.078 329.628 293.918 330.744 293.777 332.687L299.455 332.687ZM317.675 333.328C317.675 335.534 318.888 337.028 320.61 337.028C322.368 337.028 323.502 335.587 323.502 333.328L323.502 333.319C323.502 331.078 322.368 329.628 320.61 329.628C318.905 329.628 317.675 331.122 317.675 333.319L317.675 333.328ZM332.66 332.687C332.528 330.691 331.403 329.628 329.839 329.628C328.283 329.628 327.123 330.744 326.982 332.687L332.66 332.687Z" fill="#454459FF"/>
		</g>
	</g>
	<defs>
		<filter id="filter_3_42_dd" x="140.000000" y="145.000000" width="320.000000" height="320.000000" filterUnits="userSpaceOnUse" color-interpolation-filters="sRGB">
			<feFlood flood-opacity="0" result="BackgroundImageFix"/>
			<feColorMatrix in="SourceAlpha" type="matrix" values="0 0 0 0 0 0 0 0 0 0 0 0 0 0 0 0 0 0 127 0"/>
			<feOffset dx="0" dy="5"/>
			<feGaussianBlur stdDeviation="8.33333"/>
			<feColorMatrix type="matrix" values="0 0 0 0 0 0 0 0 0 0 0 0 0 0 0 0 0 0 0.1 0"/>
			<feBlend mode="normal" in2="BackgroundImageFix" result="effect_dropShadow_1"/>
			<feBlend mode="normal" in="SourceGraphic" in2="effect_dropShadow_1" result="shape"/>
		</filter>
		<clipPath id="clip3_32">
			<rect id="Chart 1" rx="16.000000" width="600.000000" height="600.000000" fill="white"/>
		</clipPath>
		<linearGradient id="paint_linear_3_37_0" x1="300.000000" y1="102.000000" x2="300.000000" y2="498.000000" gradientUnits="userSpaceOnUse">
			<stop stop-color="#7AD3FF"/>
			<stop offset="1.000000" stop-color="#4FBAF0"/>
		</linearGradient>
		<linearGradient id="paint_linear_3_38_0" x1="300.000000" y1="118.000000" x2="300.000000" y2="482.000000" gradientUnits="userSpaceOnUse">
			<stop stop-color="#FE6C6C"/>
			<stop offset="1.000000" stop-color="#FE464B"/>
		</linearGradient>
		<linearGradient id="paint_linear_3_39_0" x1="300.000000" y1="84.000000" x2="300.000000" y2="516.000000" gradientUnits="userSpaceOnUse">
			<stop stop-color="#FD95D3"/>
			<stop offset="1.000000" stop-color="#FF5CBE"/>
		</linearGradient>
		<linearGradient id="paint_linear_3_40_0" x1="300.000000" y1="102.000000" x2="300.000000" y2="498.000000" gradientUnits="userSpaceOnUse">
			<stop stop-color="#99FFA3"/>
			<stop offset="1.000000" stop-color="#68EE76"/>
		</linearGradient>
		<linearGradient id="paint_linear_3_41_0" x1="300.000000" y1="75.000000" x2="300.000000" y2="525.000000" gradientUnits="userSpaceOnUse">
			<stop stop-color="#FFD572"/>
			<stop offset="1.000000" stop-color="#FEBD38"/>
		</linearGradient>
	</defs>
</svg>
