<svg width="600.000000" height="600.000000" viewBox="0 0 600 600" fill="none" xmlns="http://www.w3.org/2000/svg" xmlns:xlink="http://www.w3.org/1999/xlink">
	<desc>
			Created with Pixso.
	</desc>
	<rect id="Chart 15" rx="16.000000" width="600.000000" height="600.000000" fill="#171724"/>
	<g clip-path="url(#clip15_79)">
		<g opacity="0.800000">
			<rect id="Rectangle 156" x="411.000000" y="114.000000" rx="20.000000" width="68.000000" height="370.000000" fill="url(#paint_linear_17_75_0)"/>
		</g>
		<g opacity="0.300000">
			<path id="Vector 12" d="M60 127L60 461" stroke="#454459" stroke-width="2.000000"/>
		</g>
		<g opacity="0.300000">
			<path id="Vector 13" d="M130 127L130 461" stroke="#454459" stroke-width="2.000000"/>
		</g>
		<g opacity="0.300000">
			<path id="Vector 16" d="M340 127L340 461" stroke="#454459" stroke-width="2.000000"/>
		</g>
		<g opacity="0.300000">
			<path id="Vector 14" d="M200 127L200 461" stroke="#454459" stroke-width="2.000000"/>
		</g>
		<g opacity="0.300000">
			<path id="Vector 17" d="M410 127L410 461" stroke="#454459" stroke-width="2.000000"/>
		</g>
		<g opacity="0.300000">
			<path id="Vector 15" d="M270 127L270 461" stroke="#454459" stroke-width="2.000000"/>
		</g>
		<g opacity="0.300000">
			<path id="Vector 18" d="M480 127L480 461" stroke="#454459" stroke-width="2.000000"/>
		</g>
		<g opacity="0.300000">
			<path id="Vector 19" d="M550 127L550 461" stroke="#454459" stroke-width="2.000000"/>
		</g>
		<g opacity="0.200000" filter="url(#filter_44_2_dd)">
			<path id="Vector 20" d="M-3 300.232C23.7509 309.409 41.8593 323.415 70 326.232C128.272 332.065 150.588 260.022 208.5 268.732C257.776 276.142 263.717 339.055 313.5 341.232C360.355 343.28 375.5 291.732 444 282.732" stroke="url(#paint_linear_44_2_0)" stroke-width="7.000000"/>
		</g>
		<path id="Vector 11" d="M-1.5 294C25.2509 303.177 43.3593 317.183 71.5 320C129.772 325.833 152.088 253.79 210 262.5C259.276 269.911 265.217 332.823 315 335C361.855 337.048 377 285.5 445.5 276.5" stroke="url(#paint_linear_17_65_0)" stroke-width="7.000000"/>
		<g filter="url(#filter_17_66_dd)">
			<circle id="Ellipse 43" cx="445.000000" cy="276.000000" r="19.000000" fill="#171724"/>
			<circle id="Ellipse 43" cx="445.000000" cy="276.000000" r="15.000000" stroke="url(#paint_linear_17_66_0)" stroke-width="8.000000"/>
		</g>
		<g opacity="0.500000">
			<path id="Mon" opacity="0.500000" d="M86.3789 483.266L85.1836 483.266L85.1836 474.811L86.7012 474.811L89.4375 481.561L89.4727 481.561L92.2148 474.811L93.7266 474.811L93.7266 483.266L92.5312 483.266L92.5312 477.025L92.4902 477.025L89.9414 483.266L88.9688 483.266L86.4199 477.025L86.3789 477.025L86.3789 483.266ZM100.705 480.184C100.705 482.17 99.5449 483.389 97.7812 483.389C96.0117 483.389 94.8574 482.164 94.8574 480.184L94.8574 480.172C94.8574 478.203 96.0234 476.984 97.7754 476.984C99.5332 476.984 100.705 478.197 100.705 480.172L100.705 480.184ZM102.949 483.266L101.684 483.266L101.684 477.102L102.949 477.102L102.949 478.033L102.979 478.033C103.301 477.406 103.934 476.984 104.865 476.984C106.219 476.984 106.998 477.857 106.998 479.275L106.998 483.266L105.727 483.266L105.727 479.516C105.727 478.59 105.293 478.068 104.414 478.068C103.523 478.068 102.949 478.713 102.949 479.674L102.949 483.266ZM96.1523 480.184C96.1523 481.549 96.7969 482.328 97.7871 482.328C98.7773 482.328 99.4102 481.543 99.4102 480.184L99.4102 480.172C99.4102 478.824 98.7656 478.045 97.7754 478.045C96.8027 478.045 96.1523 478.824 96.1523 480.172L96.1523 480.184Z" fill="#FFFFFFFF"/>
		</g>
		<g opacity="0.500000">
			<path id="Fri" opacity="0.500000" d="M382.418 475.426C382.418 475.824 382.096 476.152 381.68 476.152C381.27 476.152 380.941 475.824 380.941 475.426C380.941 475.021 381.27 474.693 381.68 474.693C382.096 474.693 382.418 475.021 382.418 475.426ZM372.1 483.266L370.787 483.266L370.787 474.811L376.066 474.811L376.066 475.941L372.1 475.941L372.1 478.619L375.732 478.619L375.732 479.727L372.1 479.727L372.1 483.266ZM378.322 483.266L377.057 483.266L377.057 477.102L378.322 477.102L378.322 478.156L378.352 478.156C378.551 477.436 379.066 476.984 379.77 476.984C379.951 476.984 380.109 477.014 380.209 477.031L380.209 478.209C380.109 478.168 379.887 478.139 379.641 478.139C378.826 478.139 378.322 478.672 378.322 479.592L378.322 483.266ZM382.312 477.102L382.312 483.266L381.047 483.266L381.047 477.102L382.312 477.102Z" fill="#FFFFFFFF"/>
		</g>
		<g opacity="0.500000">
			<path id="Tue" opacity="0.500000" d="M161.279 483.266L159.967 483.266L159.967 475.941L157.377 475.941L157.377 474.811L163.863 474.811L163.863 475.941L161.279 475.941L161.279 483.266ZM175.471 481.52C175.271 482.498 174.322 483.389 172.828 483.389C171.018 483.389 169.922 482.152 169.922 480.207L169.922 480.201C169.922 478.273 171.035 476.984 172.764 476.984C174.492 476.984 175.553 478.227 175.553 480.078L175.553 480.506L171.188 480.506C171.211 481.672 171.85 482.352 172.857 482.352C173.607 482.352 174.105 481.965 174.264 481.502L174.281 481.455L175.482 481.455L175.471 481.52ZM167.643 482.34C167.32 482.961 166.693 483.389 165.756 483.389C164.402 483.389 163.629 482.516 163.629 481.098L163.629 477.102L164.895 477.102L164.895 480.852C164.895 481.783 165.328 482.299 166.207 482.299C167.098 482.299 167.672 481.66 167.672 480.699L167.672 477.102L168.943 477.102L168.943 483.266L167.672 483.266L167.672 482.34L167.643 482.34ZM174.299 479.609C174.193 478.543 173.596 478.021 172.77 478.021C171.949 478.021 171.316 478.578 171.205 479.609L174.299 479.609Z" fill="#FFFFFFFF"/>
		</g>
		<g opacity="0.500000">
			<path id="Wed" opacity="0.500000" d="M227.908 483.266L226.648 483.266L224.369 474.811L225.734 474.811L227.311 481.438L227.334 481.438L229.121 474.811L230.363 474.811L232.15 481.438L232.18 481.438L233.756 474.811L235.121 474.811L232.836 483.266L231.576 483.266L229.76 476.891L229.73 476.891L227.908 483.266ZM245.92 482.223C245.551 482.943 244.871 483.389 243.986 483.389C242.416 483.389 241.408 482.146 241.408 480.184L241.408 480.178C241.408 478.215 242.428 476.984 243.975 476.984C244.848 476.984 245.551 477.424 245.92 478.15L245.943 478.15L245.943 474.811L247.215 474.811L247.215 483.266L245.943 483.266L245.943 482.223L245.92 482.223ZM240.617 481.52C240.418 482.498 239.469 483.389 237.975 483.389C236.164 483.389 235.068 482.152 235.068 480.207L235.068 480.201C235.068 478.273 236.182 476.984 237.91 476.984C239.639 476.984 240.699 478.227 240.699 480.078L240.699 480.506L236.334 480.506C236.357 481.672 236.996 482.352 238.004 482.352C238.754 482.352 239.252 481.965 239.41 481.502L239.428 481.455L240.629 481.455L240.617 481.52ZM239.445 479.609C239.34 478.543 238.742 478.021 237.916 478.021C237.096 478.021 236.463 478.578 236.352 479.609L239.445 479.609ZM242.703 480.184C242.703 481.496 243.318 482.299 244.32 482.299C245.275 482.299 245.949 481.467 245.949 480.184L245.949 480.178C245.949 478.9 245.27 478.068 244.32 478.068C243.324 478.068 242.703 478.877 242.703 480.178L242.703 480.184Z" fill="#FFFFFFFF"/>
		</g>
		<path id="Sat" d="M442.49 450.758C442.49 452.381 441.213 453.412 439.08 453.412C437.07 453.412 435.775 452.492 435.676 450.934L435.67 450.84L437.34 450.84L437.352 450.904C437.463 451.561 438.16 451.971 439.127 451.971C440.105 451.971 440.721 451.543 440.721 450.898L440.721 450.893C440.721 450.318 440.305 450.031 439.256 449.814L438.365 449.639C436.695 449.305 435.852 448.508 435.852 447.236L435.852 447.23C435.852 445.684 437.199 444.664 439.074 444.664C441.031 444.664 442.232 445.643 442.314 447.125L442.32 447.236L440.65 447.236L440.645 447.166C440.557 446.504 439.947 446.1 439.074 446.1C438.166 446.105 437.621 446.521 437.621 447.125L437.621 447.131C437.621 447.664 438.055 447.975 439.027 448.168L439.924 448.35C441.693 448.701 442.49 449.422 442.49 450.752L442.49 450.758ZM453.324 453.33C453.131 453.359 452.855 453.395 452.498 453.395C451.104 453.395 450.447 452.855 450.447 451.508L450.447 448.273L449.574 448.273L449.574 446.984L450.447 446.984L450.447 445.449L452.176 445.449L452.176 446.984L453.324 446.984L453.324 448.273L452.176 448.273L452.176 451.32C452.176 451.906 452.439 452.105 452.955 452.105C453.107 452.105 453.219 452.088 453.324 452.076L453.324 453.33ZM447.148 452.328C446.791 452.973 446.123 453.365 445.297 453.365C444.037 453.365 443.188 452.574 443.188 451.467L443.188 451.455C443.188 450.312 444.072 449.645 445.631 449.545L447.184 449.451L447.184 449.064C447.184 448.508 446.82 448.162 446.152 448.162C445.514 448.162 445.127 448.461 445.045 448.865L445.033 448.918L443.469 448.918L443.475 448.848C443.568 447.688 444.564 446.855 446.223 446.855C447.846 446.855 448.895 447.693 448.895 448.959L448.895 453.266L447.184 453.266L447.184 452.328L447.148 452.328ZM444.881 451.367L444.881 451.379C444.881 451.842 445.262 452.117 445.854 452.117C446.621 452.117 447.184 451.625 447.184 450.969L447.184 450.518L445.889 450.6C445.227 450.641 444.881 450.922 444.881 451.367Z" fill="#FFFFFFFF"/>
		<g opacity="0.500000">
			<path id="Thu" opacity="0.500000" d="M300.553 483.266L299.24 483.266L299.24 475.941L296.65 475.941L296.65 474.811L303.137 474.811L303.137 475.941L300.553 475.941L300.553 483.266ZM305.369 483.266L304.104 483.266L304.104 474.811L305.369 474.811L305.369 478.115L305.398 478.115C305.727 477.4 306.389 476.984 307.309 476.984C308.627 476.984 309.494 477.969 309.494 479.457L309.494 483.266L308.229 483.266L308.229 479.697C308.229 478.678 307.713 478.068 306.822 478.068C305.949 478.068 305.369 478.736 305.369 479.697L305.369 483.266ZM314.709 482.34C314.387 482.961 313.76 483.389 312.822 483.389C311.469 483.389 310.695 482.516 310.695 481.098L310.695 477.102L311.961 477.102L311.961 480.852C311.961 481.783 312.395 482.299 313.273 482.299C314.164 482.299 314.738 481.66 314.738 480.699L314.738 477.102L316.01 477.102L316.01 483.266L314.738 483.266L314.738 482.34L314.709 482.34Z" fill="#FFFFFFFF"/>
		</g>
		<g opacity="0.500000">
			<path id="Sun" opacity="0.500000" d="M513.201 480.887C513.201 482.428 511.982 483.406 509.979 483.406C508.08 483.406 506.826 482.504 506.721 481.016L506.715 480.928L507.992 480.928L508.004 481.004C508.121 481.783 508.9 482.27 510.031 482.27C511.162 482.27 511.877 481.76 511.877 480.969L511.877 480.963C511.877 480.283 511.414 479.914 510.295 479.668L509.375 479.475C507.717 479.123 506.914 478.361 506.914 477.107L506.914 477.102C506.92 475.66 508.191 474.67 509.979 474.67C511.742 474.67 512.949 475.631 513.037 477.049L513.043 477.148L511.766 477.148L511.76 477.066C511.643 476.281 510.963 475.807 509.961 475.807C508.912 475.812 508.244 476.311 508.244 477.049L508.244 477.055C508.244 477.688 508.725 478.074 509.779 478.303L510.705 478.496C512.451 478.865 513.201 479.574 513.201 480.881L513.201 480.887ZM522.037 483.266L520.771 483.266L520.771 477.102L522.037 477.102L522.037 478.033L522.066 478.033C522.389 477.406 523.021 476.984 523.953 476.984C525.307 476.984 526.086 477.857 526.086 479.275L526.086 483.266L524.814 483.266L524.814 479.516C524.814 478.59 524.381 478.068 523.502 478.068C522.611 478.068 522.037 478.713 522.037 479.674L522.037 483.266ZM518.217 482.34C517.895 482.961 517.268 483.389 516.33 483.389C514.977 483.389 514.203 482.516 514.203 481.098L514.203 477.102L515.469 477.102L515.469 480.852C515.469 481.783 515.902 482.299 516.781 482.299C517.672 482.299 518.246 481.66 518.246 480.699L518.246 477.102L519.518 477.102L519.518 483.266L518.246 483.266L518.246 482.34L518.217 482.34Z" fill="#FFFFFFFF"/>
		</g>
		<path id="Vector 42" d="M445 310.5L445 435" stroke="url(#paint_linear_45_50_0)"/>
	</g>
	<defs>
		<filter id="filter_44_2_dd" x="-18.135742" y="250.521851" width="476.591675" height="108.265869" filterUnits="userSpaceOnUse" color-interpolation-filters="sRGB">
			<feFlood flood-opacity="0" result="BackgroundImageFix"/>
			<feBlend mode="normal" in="SourceGraphic" in2="BackgroundImageFix" result="shape"/>
			<feGaussianBlur stdDeviation="4.66667" result="effect_layerBlur_1"/>
		</filter>
		<filter id="filter_17_66_dd" x="401.000000" y="237.000000" width="88.000000" height="88.000000" filterUnits="userSpaceOnUse" color-interpolation-filters="sRGB">
			<feFlood flood-opacity="0" result="BackgroundImageFix"/>
			<feColorMatrix in="SourceAlpha" type="matrix" values="0 0 0 0 0 0 0 0 0 0 0 0 0 0 0 0 0 0 127 0"/>
			<feOffset dx="0" dy="5"/>
			<feGaussianBlur stdDeviation="8.33333"/>
			<feColorMatrix type="matrix" values="0 0 0 0 0 0 0 0 0 0 0 0 0 0 0 0 0 0 0.1 0"/>
			<feBlend mode="normal" in2="BackgroundImageFix" result="effect_dropShadow_1"/>
			<feBlend mode="normal" in="SourceGraphic" in2="effect_dropShadow_1" result="shape"/>
		</filter>
		<clipPath id="clip15_79">
			<rect id="Chart 15" rx="16.000000" width="600.000000" height="600.000000" fill="white"/>
		</clipPath>
		<linearGradient id="paint_linear_17_75_0" x1="445.000000" y1="114.000000" x2="445.000000" y2="484.000000" gradientUnits="userSpaceOnUse">
			<stop stop-color="#99FFA3"/>
			<stop offset="1.000000" stop-color="#68EE76"/>
		</linearGradient>
		<linearGradient id="paint_linear_44_2_0" x1="220.500000" y1="268.000000" x2="220.500000" y2="341.291016" gradientUnits="userSpaceOnUse">
			<stop stop-color="#99FFA3"/>
			<stop offset="1.000000" stop-color="#68EE76"/>
		</linearGradient>
		<linearGradient id="paint_linear_17_65_0" x1="222.000000" y1="261.768311" x2="222.000000" y2="335.059326" gradientUnits="userSpaceOnUse">
			<stop stop-color="#99FFA3"/>
			<stop offset="1.000000" stop-color="#68EE76"/>
		</linearGradient>
		<linearGradient id="paint_linear_17_66_0" x1="445.000000" y1="257.000000" x2="445.000000" y2="295.000000" gradientUnits="userSpaceOnUse">
			<stop stop-color="#99FFA3"/>
			<stop offset="1.000000" stop-color="#68EE76"/>
		</linearGradient>
		<linearGradient id="paint_linear_45_50_0" x1="-nan" y1="310.500000" x2="-nan" y2="435.000000" gradientUnits="userSpaceOnUse">
			<stop stop-color="#FFFFFF" stop-opacity="0.000000"/>
			<stop offset="0.510417" stop-color="#FFFFFF"/>
			<stop offset="1.000000" stop-color="#FFFFFF" stop-opacity="0.000000"/>
		</linearGradient>
	</defs>
</svg>
