<svg width="600.000000" height="600.000000" viewBox="0 0 600 600" fill="none" xmlns="http://www.w3.org/2000/svg" xmlns:xlink="http://www.w3.org/1999/xlink">
	<desc>
			Created with Pixso.
	</desc>
	<rect id="Chart 10" rx="16.000000" width="600.000000" height="600.000000" fill="#FFFFFF"/>
	<g clip-path="url(#clip45_51)">
		<path id="Ellipse 52" d="M435.81 318.746Q447 345.76 447 375L507 375Q507 333.825 491.243 295.785Q475.486 257.744 446.371 228.629Q417.256 199.514 379.215 183.757Q341.175 168 300 168Q258.825 168 220.785 183.757Q182.744 199.514 153.629 228.629Q124.514 257.744 108.757 295.784Q93 333.825 93 375L153 375Q153 345.76 164.19 318.745Q175.379 291.731 196.055 271.055Q216.731 250.379 243.746 239.19Q270.76 228 300 228Q329.24 228 356.255 239.19Q383.269 250.379 403.945 271.055Q424.621 291.731 435.81 318.746Z" stroke="url(#paint_linear_45_62_0)" stroke-width="60.000000"/>
		<path id="Ellipse 54" d="M409 375C409 346.091 397.516 318.367 377.075 297.925C356.633 277.484 328.909 266 300 266C271.091 266 243.367 277.484 222.925 297.925C202.484 318.367 191 346.091 191 375" stroke="url(#paint_linear_46_3_0)" stroke-linecap="round" stroke-dasharray="0 1 10 0 1 10"/>
		<path id="Ellipse 53" d="M356.121 239.188Q383.118 250.376 403.781 271.05L446.219 228.634Q417.117 199.518 379.093 183.759Q341.067 168 299.907 168Q258.748 168 220.722 183.759Q182.698 199.517 153.596 228.634Q124.496 257.75 108.748 295.79Q93 333.828 93 375L153 375Q153 345.757 164.185 318.74Q175.369 291.725 196.034 271.05Q216.697 250.376 243.694 239.188Q270.689 228 299.907 228Q329.126 228 356.121 239.188Z" stroke="url(#paint_linear_46_2_0)" stroke-width="60.000000"/>
		<g opacity="0.400000" filter="url(#filter_46_6_dd)">
			<circle id="Ellipse 56" cx="300.000000" cy="375.000000" r="70.000000" fill="#FFFFFF"/>
		</g>
		<path id="Vector 43" d="M403 271L446 228" stroke="#FFFFFF" stroke-width="5.000000"/>
		<path id="ô€¾" d="M320.09 375.117C320.09 385.84 311.223 394.707 300.5 394.707C289.777 394.707 280.91 385.84 280.91 375.117C280.91 364.375 289.758 355.527 300.48 355.527C311.223 355.527 320.09 364.375 320.09 375.117ZM283.449 375.117C283.449 384.551 291.047 392.168 300.5 392.168C309.953 392.168 317.57 384.551 317.57 375.117C317.551 365.664 309.934 358.047 300.48 358.047C291.047 358.047 283.449 365.664 283.449 375.117ZM302.277 363.242C302.277 364.219 301.457 365.02 300.48 365.02C299.504 365.02 298.703 364.219 298.703 363.242C298.703 362.246 299.504 361.445 300.48 361.445C301.457 361.445 302.277 362.246 302.277 363.242ZM302.277 377.129C301.047 378.809 299.113 379.141 297.668 377.734C296.223 376.27 296.555 374.277 298.234 373.086L309.348 365.156C310.188 364.57 311.066 365.41 310.441 366.27L302.277 377.129ZM293.898 366.797C293.898 367.773 293.098 368.594 292.121 368.594C291.145 368.594 290.324 367.773 290.324 366.797C290.324 365.82 291.145 365.02 292.121 365.02C293.098 365.02 293.898 365.82 293.898 366.797ZM290.422 375.117C290.422 376.094 289.621 376.914 288.645 376.914C287.668 376.914 286.848 376.094 286.848 375.117C286.848 374.141 287.668 373.34 288.645 373.34C289.621 373.34 290.422 374.141 290.422 375.117ZM314.133 375.117C314.133 376.094 313.312 376.914 312.336 376.914C311.359 376.914 310.559 376.094 310.559 375.117C310.559 374.141 311.359 373.34 312.336 373.34C313.312 373.34 314.133 374.141 314.133 375.117ZM293.938 383.457C293.938 384.434 293.137 385.234 292.141 385.234C291.164 385.234 290.344 384.434 290.344 383.457C290.344 382.461 291.164 381.66 292.141 381.66C293.137 381.66 293.938 382.461 293.938 383.457ZM310.617 383.457C310.617 384.434 309.816 385.234 308.84 385.234C307.844 385.234 307.043 384.434 307.043 383.457C307.043 382.461 307.844 381.66 308.84 381.66C309.816 381.66 310.617 382.461 310.617 383.457Z" fill="url(#paint_linear_46_7_0)"/>
	</g>
	<defs>
		<filter id="filter_46_6_dd" x="205.000000" y="285.000000" width="190.000000" height="190.000000" filterUnits="userSpaceOnUse" color-interpolation-filters="sRGB">
			<feFlood flood-opacity="0" result="BackgroundImageFix"/>
			<feColorMatrix in="SourceAlpha" type="matrix" values="0 0 0 0 0 0 0 0 0 0 0 0 0 0 0 0 0 0 127 0"/>
			<feOffset dx="0" dy="5"/>
			<feGaussianBlur stdDeviation="8.33333"/>
			<feColorMatrix type="matrix" values="0 0 0 0 0 0 0 0 0 0 0 0 0 0 0 0 0 0 0.1 0"/>
			<feBlend mode="normal" in2="BackgroundImageFix" result="effect_dropShadow_1"/>
			<feBlend mode="normal" in="SourceGraphic" in2="effect_dropShadow_1" result="shape"/>
		</filter>
		<clipPath id="clip45_51">
			<rect id="Chart 10" rx="16.000000" width="600.000000" height="600.000000" fill="white"/>
		</clipPath>
		<linearGradient id="paint_linear_45_62_0" x1="300.000000" y1="198.000000" x2="300.000000" y2="375.000000" gradientUnits="userSpaceOnUse">
			<stop stop-color="#FFD572"/>
			<stop offset="1.000000" stop-color="#FEBD38"/>
		</linearGradient>
		<linearGradient id="paint_linear_46_3_0" x1="300.000000" y1="266.000000" x2="300.000000" y2="375.000000" gradientUnits="userSpaceOnUse">
			<stop stop-color="#FE6C6C"/>
			<stop offset="1.000000" stop-color="#FE464B"/>
		</linearGradient>
		<linearGradient id="paint_linear_46_2_0" x1="274.000000" y1="198.000000" x2="274.000000" y2="375.000000" gradientUnits="userSpaceOnUse">
			<stop stop-color="#FF9364"/>
			<stop offset="1.000000" stop-color="#F25F33"/>
		</linearGradient>
		<linearGradient id="paint_linear_46_7_0" x1="300.500000" y1="351.000000" x2="300.500000" y2="399.000000" gradientUnits="userSpaceOnUse">
			<stop stop-color="#FF9364"/>
			<stop offset="1.000000" stop-color="#F25F33"/>
		</linearGradient>
	</defs>
</svg>
