<svg width="600.000000" height="600.000000" viewBox="0 0 600 600" fill="none" xmlns="http://www.w3.org/2000/svg" xmlns:xlink="http://www.w3.org/1999/xlink">
	<desc>
			Created with Pixso.
	</desc>
	<rect id="Chart 5" rx="16.000000" width="600.000000" height="600.000000" fill="#FFFFFF"/>
	<g clip-path="url(#clip10_3)">
		<g opacity="0.100000">
			<path id="Subtract" d="M286 91L316 91C327.046 91 336 99.9543 336 111L336 481C336 492.046 327.046 501 316 501L286 501C274.954 501 266 492.046 266 481L266 111C266 99.9543 274.954 91 286 91Z" clip-rule="evenodd" fill-rule="evenodd" fill="#A08CFB" fill-opacity="1.000000"/>
		</g>
		<rect id="Rectangle 87" x="80.000000" y="336.000000" rx="4.000000" width="18.000000" height="106.000000" fill="url(#paint_linear_10_17_0)"/>
		<g opacity="0.400000">
			<rect id="Rectangle 94" x="59.000000" y="366.000000" rx="4.000000" width="18.000000" height="76.000000" fill="url(#paint_linear_10_25_0)"/>
		</g>
		<rect id="Rectangle 90" x="302.000000" y="200.000000" rx="4.000000" width="18.000000" height="242.000000" fill="url(#paint_linear_10_20_0)"/>
		<g opacity="0.400000">
			<rect id="Rectangle 95" x="281.000000" y="268.000000" rx="4.000000" width="18.000000" height="174.000000" fill="url(#paint_linear_10_26_0)"/>
		</g>
		<rect id="Rectangle 88" x="154.000000" y="244.000000" rx="4.000000" width="18.000000" height="198.000000" fill="url(#paint_linear_10_18_0)"/>
		<g opacity="0.400000">
			<rect id="Rectangle 96" x="133.000000" y="300.000000" rx="4.000000" width="18.000000" height="142.000000" fill="url(#paint_linear_10_27_0)"/>
		</g>
		<rect id="Rectangle 91" x="376.000000" y="366.000000" rx="4.000000" width="18.000000" height="76.000000" fill="url(#paint_linear_10_21_0)"/>
		<g opacity="0.400000">
			<rect id="Rectangle 97" x="355.000000" y="387.000000" rx="4.000000" width="18.000000" height="55.000000" fill="url(#paint_linear_10_28_0)"/>
		</g>
		<rect id="Rectangle 89" x="228.000000" y="140.000000" rx="4.000000" width="18.000000" height="302.000000" fill="url(#paint_linear_10_19_0)"/>
		<g opacity="0.400000">
			<rect id="Rectangle 98" x="207.000000" y="225.000000" rx="4.000000" width="18.000000" height="217.000000" fill="url(#paint_linear_10_29_0)"/>
		</g>
		<rect id="Rectangle 92" x="450.000000" y="148.000000" rx="4.000000" width="18.000000" height="294.000000" fill="url(#paint_linear_10_22_0)"/>
		<g opacity="0.400000">
			<rect id="Rectangle 99" x="429.000000" y="231.000000" rx="4.000000" width="18.000000" height="211.000000" fill="url(#paint_linear_10_30_0)"/>
		</g>
		<rect id="Rectangle 93" x="524.000000" y="235.000000" rx="4.000000" width="18.000000" height="207.000000" fill="url(#paint_linear_10_23_0)"/>
		<g opacity="0.400000">
			<rect id="Rectangle 100" x="503.000000" y="293.000000" rx="4.000000" width="18.000000" height="149.000000" fill="url(#paint_linear_10_31_0)"/>
		</g>
		<g opacity="0.500000">
			<path id="Mon" opacity="0.500000" d="M68.8789 473.266L67.6836 473.266L67.6836 464.811L69.2012 464.811L71.9375 471.561L71.9727 471.561L74.7148 464.811L76.2266 464.811L76.2266 473.266L75.0312 473.266L75.0312 467.025L74.9902 467.025L72.4414 473.266L71.4688 473.266L68.9199 467.025L68.8789 467.025L68.8789 473.266ZM83.2051 470.184C83.2051 472.17 82.0449 473.389 80.2812 473.389C78.5117 473.389 77.3574 472.164 77.3574 470.184L77.3574 470.172C77.3574 468.203 78.5234 466.984 80.2754 466.984C82.0332 466.984 83.2051 468.197 83.2051 470.172L83.2051 470.184ZM85.4492 473.266L84.1836 473.266L84.1836 467.102L85.4492 467.102L85.4492 468.033L85.4785 468.033C85.8008 467.406 86.4336 466.984 87.3652 466.984C88.7188 466.984 89.498 467.857 89.498 469.275L89.498 473.266L88.2266 473.266L88.2266 469.516C88.2266 468.59 87.793 468.068 86.9141 468.068C86.0234 468.068 85.4492 468.713 85.4492 469.674L85.4492 473.266ZM78.6523 470.184C78.6523 471.549 79.2969 472.328 80.2871 472.328C81.2773 472.328 81.9102 471.543 81.9102 470.184L81.9102 470.172C81.9102 468.824 81.2656 468.045 80.2754 468.045C79.3027 468.045 78.6523 468.824 78.6523 470.172L78.6523 470.184Z" fill="#454459FF"/>
		</g>
		<g opacity="0.500000">
			<path id="Fri" opacity="0.500000" d="M380.418 465.426C380.418 465.824 380.096 466.152 379.68 466.152C379.27 466.152 378.941 465.824 378.941 465.426C378.941 465.021 379.27 464.693 379.68 464.693C380.096 464.693 380.418 465.021 380.418 465.426ZM370.1 473.266L368.787 473.266L368.787 464.811L374.066 464.811L374.066 465.941L370.1 465.941L370.1 468.619L373.732 468.619L373.732 469.727L370.1 469.727L370.1 473.266ZM376.322 473.266L375.057 473.266L375.057 467.102L376.322 467.102L376.322 468.156L376.352 468.156C376.551 467.436 377.066 466.984 377.77 466.984C377.951 466.984 378.109 467.014 378.209 467.031L378.209 468.209C378.109 468.168 377.887 468.139 377.641 468.139C376.826 468.139 376.322 468.672 376.322 469.592L376.322 473.266ZM380.312 467.102L380.312 473.266L379.047 473.266L379.047 467.102L380.312 467.102Z" fill="#454459FF"/>
		</g>
		<g opacity="0.500000">
			<path id="Tue" opacity="0.500000" d="M146.779 473.266L145.467 473.266L145.467 465.941L142.877 465.941L142.877 464.811L149.363 464.811L149.363 465.941L146.779 465.941L146.779 473.266ZM160.971 471.52C160.771 472.498 159.822 473.389 158.328 473.389C156.518 473.389 155.422 472.152 155.422 470.207L155.422 470.201C155.422 468.273 156.535 466.984 158.264 466.984C159.992 466.984 161.053 468.227 161.053 470.078L161.053 470.506L156.688 470.506C156.711 471.672 157.35 472.352 158.357 472.352C159.107 472.352 159.605 471.965 159.764 471.502L159.781 471.455L160.982 471.455L160.971 471.52ZM153.143 472.34C152.82 472.961 152.193 473.389 151.256 473.389C149.902 473.389 149.129 472.516 149.129 471.098L149.129 467.102L150.395 467.102L150.395 470.852C150.395 471.783 150.828 472.299 151.707 472.299C152.598 472.299 153.172 471.66 153.172 470.699L153.172 467.102L154.443 467.102L154.443 473.266L153.172 473.266L153.172 472.34L153.143 472.34ZM159.799 469.609C159.693 468.543 159.096 468.021 158.27 468.021C157.449 468.021 156.816 468.578 156.705 469.609L159.799 469.609Z" fill="#454459FF"/>
		</g>
		<g opacity="0.500000">
			<path id="Wed" opacity="0.500000" d="M217.908 473.266L216.648 473.266L214.369 464.811L215.734 464.811L217.311 471.438L217.334 471.438L219.121 464.811L220.363 464.811L222.15 471.438L222.18 471.438L223.756 464.811L225.121 464.811L222.836 473.266L221.576 473.266L219.76 466.891L219.73 466.891L217.908 473.266ZM235.92 472.223C235.551 472.943 234.871 473.389 233.986 473.389C232.416 473.389 231.408 472.146 231.408 470.184L231.408 470.178C231.408 468.215 232.428 466.984 233.975 466.984C234.848 466.984 235.551 467.424 235.92 468.15L235.943 468.15L235.943 464.811L237.215 464.811L237.215 473.266L235.943 473.266L235.943 472.223L235.92 472.223ZM230.617 471.52C230.418 472.498 229.469 473.389 227.975 473.389C226.164 473.389 225.068 472.152 225.068 470.207L225.068 470.201C225.068 468.273 226.182 466.984 227.91 466.984C229.639 466.984 230.699 468.227 230.699 470.078L230.699 470.506L226.334 470.506C226.357 471.672 226.996 472.352 228.004 472.352C228.754 472.352 229.252 471.965 229.41 471.502L229.428 471.455L230.629 471.455L230.617 471.52ZM229.445 469.609C229.34 468.543 228.742 468.021 227.916 468.021C227.096 468.021 226.463 468.578 226.352 469.609L229.445 469.609ZM232.703 470.184C232.703 471.496 233.318 472.299 234.32 472.299C235.275 472.299 235.949 471.467 235.949 470.184L235.949 470.178C235.949 468.9 235.27 468.068 234.32 468.068C233.324 468.068 232.703 468.877 232.703 470.178L232.703 470.184Z" fill="#454459FF"/>
		</g>
		<g opacity="0.500000">
			<path id="Sat" opacity="0.500000" d="M446.701 470.887C446.701 472.428 445.482 473.406 443.479 473.406C441.58 473.406 440.326 472.504 440.221 471.016L440.215 470.928L441.492 470.928L441.504 471.004C441.621 471.783 442.4 472.27 443.531 472.27C444.662 472.27 445.377 471.76 445.377 470.969L445.377 470.963C445.377 470.283 444.914 469.914 443.795 469.668L442.875 469.475C441.217 469.123 440.414 468.361 440.414 467.107L440.414 467.102C440.42 465.66 441.691 464.67 443.479 464.67C445.242 464.67 446.449 465.631 446.537 467.049L446.543 467.148L445.266 467.148L445.26 467.066C445.143 466.281 444.463 465.807 443.461 465.807C442.412 465.812 441.744 466.311 441.744 467.049L441.744 467.055C441.744 467.688 442.225 468.074 443.279 468.303L444.205 468.496C445.951 468.865 446.701 469.574 446.701 470.881L446.701 470.887ZM456.762 473.336C456.615 473.359 456.375 473.389 456.117 473.389C454.898 473.389 454.312 472.873 454.312 471.643L454.312 468.109L453.428 468.109L453.428 467.102L454.312 467.102L454.312 465.496L455.607 465.496L455.607 467.102L456.762 467.102L456.762 468.109L455.607 468.109L455.607 471.566C455.607 472.193 455.889 472.381 456.422 472.381C456.557 472.381 456.668 472.369 456.762 472.357L456.762 473.336ZM451.43 472.293C451.072 472.955 450.357 473.377 449.543 473.377C448.312 473.377 447.486 472.621 447.486 471.514L447.486 471.502C447.486 470.43 448.318 469.773 449.777 469.686L451.453 469.586L451.453 469.123C451.453 468.443 451.014 468.033 450.229 468.033C449.496 468.033 449.045 468.379 448.939 468.871L448.928 468.924L447.732 468.924L447.738 468.859C447.826 467.799 448.746 466.984 450.264 466.984C451.77 466.984 452.725 467.781 452.725 469.018L452.725 473.266L451.453 473.266L451.453 472.293L451.43 472.293ZM448.764 471.473L448.764 471.484C448.764 472.023 449.209 472.363 449.889 472.363C450.779 472.363 451.453 471.76 451.453 470.957L451.453 470.477L449.947 470.57C449.186 470.617 448.764 470.951 448.764 471.473Z" fill="#454459FF"/>
		</g>
		<path id="Thu" d="M294.488 473.266L292.982 473.266L292.982 466.082L290.451 466.082L290.451 464.811L297.014 464.811L297.014 466.082L294.488 466.082L294.488 473.266ZM299.404 473.266L297.945 473.266L297.945 464.811L299.404 464.811L299.404 468.098L299.439 468.098C299.762 467.354 300.424 466.926 301.355 466.926C302.691 466.926 303.547 467.898 303.547 469.398L303.547 473.266L302.088 473.266L302.088 469.686C302.088 468.73 301.607 468.156 300.77 468.156C299.943 468.156 299.404 468.783 299.404 469.686L299.404 473.266ZM308.738 472.293C308.416 472.955 307.777 473.389 306.84 473.389C305.475 473.389 304.695 472.51 304.695 471.068L304.695 467.055L306.154 467.055L306.154 470.781C306.154 471.66 306.564 472.158 307.396 472.158C308.234 472.158 308.768 471.555 308.768 470.652L308.768 467.055L310.227 467.055L310.227 473.266L308.768 473.266L308.768 472.293L308.738 472.293Z" fill="#454459FF"/>
		<g opacity="0.500000">
			<path id="Sun" opacity="0.500000" d="M518.701 470.887C518.701 472.428 517.482 473.406 515.479 473.406C513.58 473.406 512.326 472.504 512.221 471.016L512.215 470.928L513.492 470.928L513.504 471.004C513.621 471.783 514.4 472.27 515.531 472.27C516.662 472.27 517.377 471.76 517.377 470.969L517.377 470.963C517.377 470.283 516.914 469.914 515.795 469.668L514.875 469.475C513.217 469.123 512.414 468.361 512.414 467.107L512.414 467.102C512.42 465.66 513.691 464.67 515.479 464.67C517.242 464.67 518.449 465.631 518.537 467.049L518.543 467.148L517.266 467.148L517.26 467.066C517.143 466.281 516.463 465.807 515.461 465.807C514.412 465.812 513.744 466.311 513.744 467.049L513.744 467.055C513.744 467.688 514.225 468.074 515.279 468.303L516.205 468.496C517.951 468.865 518.701 469.574 518.701 470.881L518.701 470.887ZM527.537 473.266L526.271 473.266L526.271 467.102L527.537 467.102L527.537 468.033L527.566 468.033C527.889 467.406 528.521 466.984 529.453 466.984C530.807 466.984 531.586 467.857 531.586 469.275L531.586 473.266L530.314 473.266L530.314 469.516C530.314 468.59 529.881 468.068 529.002 468.068C528.111 468.068 527.537 468.713 527.537 469.674L527.537 473.266ZM523.717 472.34C523.395 472.961 522.768 473.389 521.83 473.389C520.477 473.389 519.703 472.516 519.703 471.098L519.703 467.102L520.969 467.102L520.969 470.852C520.969 471.783 521.402 472.299 522.281 472.299C523.172 472.299 523.746 471.66 523.746 470.699L523.746 467.102L525.018 467.102L525.018 473.266L523.746 473.266L523.746 472.34L523.717 472.34Z" fill="#454459FF"/>
		</g>
		<circle id="Ellipse 44" cx="301.000000" cy="501.000000" r="10.000000" fill="url(#paint_linear_31_20_0)"/>
		<circle id="Ellipse 44" cx="301.000000" cy="501.000000" r="8.000000" stroke="#FFFFFF" stroke-width="4.000000"/>
	</g>
	<defs>
		<clipPath id="clip10_3">
			<rect id="Chart 5" rx="16.000000" width="600.000000" height="600.000000" fill="white"/>
		</clipPath>
		<linearGradient id="paint_linear_10_17_0" x1="89.000000" y1="336.000000" x2="89.000000" y2="442.000000" gradientUnits="userSpaceOnUse">
			<stop stop-color="#B09FFF"/>
			<stop offset="1.000000" stop-color="#8D79F6"/>
		</linearGradient>
		<linearGradient id="paint_linear_10_25_0" x1="68.000000" y1="366.000000" x2="68.000000" y2="442.000000" gradientUnits="userSpaceOnUse">
			<stop stop-color="#B09FFF"/>
			<stop offset="1.000000" stop-color="#8D79F6"/>
		</linearGradient>
		<linearGradient id="paint_linear_10_20_0" x1="311.000000" y1="200.000000" x2="311.000000" y2="442.000000" gradientUnits="userSpaceOnUse">
			<stop stop-color="#B09FFF"/>
			<stop offset="1.000000" stop-color="#8D79F6"/>
		</linearGradient>
		<linearGradient id="paint_linear_10_26_0" x1="290.000000" y1="268.000000" x2="290.000000" y2="442.000000" gradientUnits="userSpaceOnUse">
			<stop stop-color="#B09FFF"/>
			<stop offset="1.000000" stop-color="#8D79F6"/>
		</linearGradient>
		<linearGradient id="paint_linear_10_18_0" x1="163.000000" y1="244.000000" x2="163.000000" y2="442.000000" gradientUnits="userSpaceOnUse">
			<stop stop-color="#B09FFF"/>
			<stop offset="1.000000" stop-color="#8D79F6"/>
		</linearGradient>
		<linearGradient id="paint_linear_10_27_0" x1="142.000000" y1="300.000000" x2="142.000000" y2="442.000000" gradientUnits="userSpaceOnUse">
			<stop stop-color="#B09FFF"/>
			<stop offset="1.000000" stop-color="#8D79F6"/>
		</linearGradient>
		<linearGradient id="paint_linear_10_21_0" x1="385.000000" y1="366.000000" x2="385.000000" y2="442.000000" gradientUnits="userSpaceOnUse">
			<stop stop-color="#B09FFF"/>
			<stop offset="1.000000" stop-color="#8D79F6"/>
		</linearGradient>
		<linearGradient id="paint_linear_10_28_0" x1="364.000000" y1="387.000000" x2="364.000000" y2="442.000000" gradientUnits="userSpaceOnUse">
			<stop stop-color="#B09FFF"/>
			<stop offset="1.000000" stop-color="#8D79F6"/>
		</linearGradient>
		<linearGradient id="paint_linear_10_19_0" x1="237.000000" y1="140.000000" x2="237.000000" y2="442.000000" gradientUnits="userSpaceOnUse">
			<stop stop-color="#B09FFF"/>
			<stop offset="1.000000" stop-color="#8D79F6"/>
		</linearGradient>
		<linearGradient id="paint_linear_10_29_0" x1="216.000000" y1="225.000000" x2="216.000000" y2="442.000000" gradientUnits="userSpaceOnUse">
			<stop stop-color="#B09FFF"/>
			<stop offset="1.000000" stop-color="#8D79F6"/>
		</linearGradient>
		<linearGradient id="paint_linear_10_22_0" x1="459.000000" y1="148.000000" x2="459.000000" y2="442.000000" gradientUnits="userSpaceOnUse">
			<stop stop-color="#B09FFF"/>
			<stop offset="1.000000" stop-color="#8D79F6"/>
		</linearGradient>
		<linearGradient id="paint_linear_10_30_0" x1="438.000000" y1="231.000000" x2="438.000000" y2="442.000000" gradientUnits="userSpaceOnUse">
			<stop stop-color="#B09FFF"/>
			<stop offset="1.000000" stop-color="#8D79F6"/>
		</linearGradient>
		<linearGradient id="paint_linear_10_23_0" x1="533.000000" y1="235.000000" x2="533.000000" y2="442.000000" gradientUnits="userSpaceOnUse">
			<stop stop-color="#B09FFF"/>
			<stop offset="1.000000" stop-color="#8D79F6"/>
		</linearGradient>
		<linearGradient id="paint_linear_10_31_0" x1="512.000000" y1="293.000000" x2="512.000000" y2="442.000000" gradientUnits="userSpaceOnUse">
			<stop stop-color="#B09FFF"/>
			<stop offset="1.000000" stop-color="#8D79F6"/>
		</linearGradient>
		<linearGradient id="paint_linear_31_20_0" x1="301.000000" y1="491.000000" x2="301.000000" y2="511.000000" gradientUnits="userSpaceOnUse">
			<stop stop-color="#B09FFF"/>
			<stop offset="1.000000" stop-color="#8D79F6"/>
		</linearGradient>
	</defs>
</svg>
