<svg width="600.000000" height="600.000000" viewBox="0 0 600 600" fill="none" xmlns="http://www.w3.org/2000/svg" xmlns:xlink="http://www.w3.org/1999/xlink">
	<desc>
			Created with Pixso.
	</desc>
	<rect id="Chart 6" rx="16.000000" width="600.000000" height="600.000000" fill="#FFFFFF"/>
	<g clip-path="url(#clip10_65)">
		<g opacity="0.200000">
			<rect id="Rectangle 103" x="73.000000" y="105.000000" rx="10.000000" width="35.000000" height="360.000000" fill="#A08CFB"/>
		</g>
		<rect id="Rectangle 110" x="73.000000" y="271.000000" rx="10.000000" width="35.000000" height="194.000000" fill="url(#paint_linear_15_10_0)"/>
		<rect id="Rectangle 117" x="73.000000" y="342.000000" rx="10.000000" width="35.000000" height="123.000000" fill="url(#paint_linear_15_24_0)"/>
		<g opacity="0.200000">
			<rect id="Rectangle 106" x="283.000000" y="105.000000" rx="10.000000" width="35.000000" height="360.000000" fill="#A08CFB"/>
		</g>
		<rect id="Rectangle 111" x="283.000000" y="256.000000" rx="10.000000" width="35.000000" height="209.000000" fill="url(#paint_linear_15_11_0)"/>
		<rect id="Rectangle 118" x="283.000000" y="332.000000" rx="10.000000" width="35.000000" height="133.000000" fill="url(#paint_linear_15_25_0)"/>
		<g opacity="0.200000">
			<rect id="Rectangle 104" x="143.000000" y="105.000000" rx="10.000000" width="35.000000" height="360.000000" fill="#A08CFB"/>
		</g>
		<rect id="Rectangle 112" x="143.000000" y="225.000000" rx="10.000000" width="35.000000" height="240.000000" fill="url(#paint_linear_15_12_0)"/>
		<rect id="Rectangle 119" x="143.000000" y="313.000000" rx="10.000000" width="35.000000" height="152.000000" fill="url(#paint_linear_15_26_0)"/>
		<g opacity="0.200000">
			<rect id="Rectangle 107" x="353.000000" y="105.000000" rx="10.000000" width="35.000000" height="360.000000" fill="#A08CFB"/>
		</g>
		<rect id="Rectangle 113" x="353.000000" y="201.000000" rx="10.000000" width="35.000000" height="264.000000" fill="url(#paint_linear_15_13_0)"/>
		<rect id="Rectangle 120" x="353.000000" y="298.000000" rx="10.000000" width="35.000000" height="167.000000" fill="url(#paint_linear_15_27_0)"/>
		<g opacity="0.200000">
			<rect id="Rectangle 105" x="213.000000" y="105.000000" rx="10.000000" width="35.000000" height="360.000000" fill="#A08CFB"/>
		</g>
		<rect id="Rectangle 114" x="213.000000" y="313.000000" rx="10.000000" width="35.000000" height="152.000000" fill="url(#paint_linear_15_14_0)"/>
		<rect id="Rectangle 121" x="213.000000" y="369.000000" rx="10.000000" width="35.000000" height="96.000000" fill="url(#paint_linear_15_28_0)"/>
		<g opacity="0.200000">
			<rect id="Rectangle 108" x="423.000000" y="105.000000" rx="10.000000" width="35.000000" height="360.000000" fill="#A08CFB"/>
		</g>
		<rect id="Rectangle 115" x="423.000000" y="360.000000" rx="10.000000" width="35.000000" height="105.000000" fill="url(#paint_linear_15_15_0)"/>
		<rect id="Rectangle 122" x="423.000000" y="398.000000" rx="10.000000" width="35.000000" height="67.000000" fill="url(#paint_linear_15_29_0)"/>
		<g opacity="0.200000">
			<rect id="Rectangle 109" x="493.000000" y="105.000000" rx="10.000000" width="35.000000" height="360.000000" fill="#A08CFB"/>
		</g>
		<rect id="Rectangle 116" x="493.000000" y="271.000000" rx="10.000000" width="35.000000" height="194.000000" fill="url(#paint_linear_15_16_0)"/>
		<rect id="Rectangle 123" x="493.000000" y="342.000000" rx="10.000000" width="35.000000" height="123.000000" fill="url(#paint_linear_15_30_0)"/>
		<g opacity="0.500000">
			<path id="Mon" opacity="0.500000" d="M80.3789 491.266L79.1836 491.266L79.1836 482.811L80.7012 482.811L83.4375 489.561L83.4727 489.561L86.2148 482.811L87.7266 482.811L87.7266 491.266L86.5312 491.266L86.5312 485.025L86.4902 485.025L83.9414 491.266L82.9688 491.266L80.4199 485.025L80.3789 485.025L80.3789 491.266ZM94.7051 488.184C94.7051 490.17 93.5449 491.389 91.7812 491.389C90.0117 491.389 88.8574 490.164 88.8574 488.184L88.8574 488.172C88.8574 486.203 90.0234 484.984 91.7754 484.984C93.5332 484.984 94.7051 486.197 94.7051 488.172L94.7051 488.184ZM96.9492 491.266L95.6836 491.266L95.6836 485.102L96.9492 485.102L96.9492 486.033L96.9785 486.033C97.3008 485.406 97.9336 484.984 98.8652 484.984C100.219 484.984 100.998 485.857 100.998 487.275L100.998 491.266L99.7266 491.266L99.7266 487.516C99.7266 486.59 99.293 486.068 98.4141 486.068C97.5234 486.068 96.9492 486.713 96.9492 487.674L96.9492 491.266ZM90.1523 488.184C90.1523 489.549 90.7969 490.328 91.7871 490.328C92.7773 490.328 93.4102 489.543 93.4102 488.184L93.4102 488.172C93.4102 486.824 92.7656 486.045 91.7754 486.045C90.8027 486.045 90.1523 486.824 90.1523 488.172L90.1523 488.184Z" fill="#454459FF"/>
		</g>
		<g opacity="0.500000">
			<path id="Fri" opacity="0.500000" d="M376.418 483.426C376.418 483.824 376.096 484.152 375.68 484.152C375.27 484.152 374.941 483.824 374.941 483.426C374.941 483.021 375.27 482.693 375.68 482.693C376.096 482.693 376.418 483.021 376.418 483.426ZM366.1 491.266L364.787 491.266L364.787 482.811L370.066 482.811L370.066 483.941L366.1 483.941L366.1 486.619L369.732 486.619L369.732 487.727L366.1 487.727L366.1 491.266ZM372.322 491.266L371.057 491.266L371.057 485.102L372.322 485.102L372.322 486.156L372.352 486.156C372.551 485.436 373.066 484.984 373.77 484.984C373.951 484.984 374.109 485.014 374.209 485.031L374.209 486.209C374.109 486.168 373.887 486.139 373.641 486.139C372.826 486.139 372.322 486.672 372.322 487.592L372.322 491.266ZM376.312 485.102L376.312 491.266L375.047 491.266L375.047 485.102L376.312 485.102Z" fill="#454459FF"/>
		</g>
		<g opacity="0.500000">
			<path id="Tue" opacity="0.500000" d="M155.279 491.266L153.967 491.266L153.967 483.941L151.377 483.941L151.377 482.811L157.863 482.811L157.863 483.941L155.279 483.941L155.279 491.266ZM169.471 489.52C169.271 490.498 168.322 491.389 166.828 491.389C165.018 491.389 163.922 490.152 163.922 488.207L163.922 488.201C163.922 486.273 165.035 484.984 166.764 484.984C168.492 484.984 169.553 486.227 169.553 488.078L169.553 488.506L165.188 488.506C165.211 489.672 165.85 490.352 166.857 490.352C167.607 490.352 168.105 489.965 168.264 489.502L168.281 489.455L169.482 489.455L169.471 489.52ZM161.643 490.34C161.32 490.961 160.693 491.389 159.756 491.389C158.402 491.389 157.629 490.516 157.629 489.098L157.629 485.102L158.895 485.102L158.895 488.852C158.895 489.783 159.328 490.299 160.207 490.299C161.098 490.299 161.672 489.66 161.672 488.699L161.672 485.102L162.943 485.102L162.943 491.266L161.672 491.266L161.672 490.34L161.643 490.34ZM168.299 487.609C168.193 486.543 167.596 486.021 166.77 486.021C165.949 486.021 165.316 486.578 165.205 487.609L168.299 487.609Z" fill="#454459FF"/>
		</g>
		<g opacity="0.500000">
			<path id="Wed" opacity="0.500000" d="M221.908 491.266L220.648 491.266L218.369 482.811L219.734 482.811L221.311 489.438L221.334 489.438L223.121 482.811L224.363 482.811L226.15 489.438L226.18 489.438L227.756 482.811L229.121 482.811L226.836 491.266L225.576 491.266L223.76 484.891L223.73 484.891L221.908 491.266ZM239.92 490.223C239.551 490.943 238.871 491.389 237.986 491.389C236.416 491.389 235.408 490.146 235.408 488.184L235.408 488.178C235.408 486.215 236.428 484.984 237.975 484.984C238.848 484.984 239.551 485.424 239.92 486.15L239.943 486.15L239.943 482.811L241.215 482.811L241.215 491.266L239.943 491.266L239.943 490.223L239.92 490.223ZM234.617 489.52C234.418 490.498 233.469 491.389 231.975 491.389C230.164 491.389 229.068 490.152 229.068 488.207L229.068 488.201C229.068 486.273 230.182 484.984 231.91 484.984C233.639 484.984 234.699 486.227 234.699 488.078L234.699 488.506L230.334 488.506C230.357 489.672 230.996 490.352 232.004 490.352C232.754 490.352 233.252 489.965 233.41 489.502L233.428 489.455L234.629 489.455L234.617 489.52ZM233.445 487.609C233.34 486.543 232.742 486.021 231.916 486.021C231.096 486.021 230.463 486.578 230.352 487.609L233.445 487.609ZM236.703 488.184C236.703 489.496 237.318 490.299 238.32 490.299C239.275 490.299 239.949 489.467 239.949 488.184L239.949 488.178C239.949 486.9 239.27 486.068 238.32 486.068C237.324 486.068 236.703 486.877 236.703 488.178L236.703 488.184Z" fill="#454459FF"/>
		</g>
		<g opacity="0.500000">
			<path id="Sat" opacity="0.500000" d="M438.201 488.887C438.201 490.428 436.982 491.406 434.979 491.406C433.08 491.406 431.826 490.504 431.721 489.016L431.715 488.928L432.992 488.928L433.004 489.004C433.121 489.783 433.9 490.27 435.031 490.27C436.162 490.27 436.877 489.76 436.877 488.969L436.877 488.963C436.877 488.283 436.414 487.914 435.295 487.668L434.375 487.475C432.717 487.123 431.914 486.361 431.914 485.107L431.914 485.102C431.92 483.66 433.191 482.67 434.979 482.67C436.742 482.67 437.949 483.631 438.037 485.049L438.043 485.148L436.766 485.148L436.76 485.066C436.643 484.281 435.963 483.807 434.961 483.807C433.912 483.812 433.244 484.311 433.244 485.049L433.244 485.055C433.244 485.688 433.725 486.074 434.779 486.303L435.705 486.496C437.451 486.865 438.201 487.574 438.201 488.881L438.201 488.887ZM448.262 491.336C448.115 491.359 447.875 491.389 447.617 491.389C446.398 491.389 445.812 490.873 445.812 489.643L445.812 486.109L444.928 486.109L444.928 485.102L445.812 485.102L445.812 483.496L447.107 483.496L447.107 485.102L448.262 485.102L448.262 486.109L447.107 486.109L447.107 489.566C447.107 490.193 447.389 490.381 447.922 490.381C448.057 490.381 448.168 490.369 448.262 490.357L448.262 491.336ZM442.93 490.293C442.572 490.955 441.857 491.377 441.043 491.377C439.812 491.377 438.986 490.621 438.986 489.514L438.986 489.502C438.986 488.43 439.818 487.773 441.277 487.686L442.953 487.586L442.953 487.123C442.953 486.443 442.514 486.033 441.729 486.033C440.996 486.033 440.545 486.379 440.439 486.871L440.428 486.924L439.232 486.924L439.238 486.859C439.326 485.799 440.246 484.984 441.764 484.984C443.27 484.984 444.225 485.781 444.225 487.018L444.225 491.266L442.953 491.266L442.953 490.293L442.93 490.293ZM440.264 489.473L440.264 489.484C440.264 490.023 440.709 490.363 441.389 490.363C442.279 490.363 442.953 489.76 442.953 488.957L442.953 488.477L441.447 488.57C440.686 488.617 440.264 488.951 440.264 489.473Z" fill="#454459FF"/>
		</g>
		<g opacity="0.500000">
			<path id="Thu" opacity="0.500000" d="M294.553 491.266L293.24 491.266L293.24 483.941L290.65 483.941L290.65 482.811L297.137 482.811L297.137 483.941L294.553 483.941L294.553 491.266ZM299.369 491.266L298.104 491.266L298.104 482.811L299.369 482.811L299.369 486.115L299.398 486.115C299.727 485.4 300.389 484.984 301.309 484.984C302.627 484.984 303.494 485.969 303.494 487.457L303.494 491.266L302.229 491.266L302.229 487.697C302.229 486.678 301.713 486.068 300.822 486.068C299.949 486.068 299.369 486.736 299.369 487.697L299.369 491.266ZM308.709 490.34C308.387 490.961 307.76 491.389 306.822 491.389C305.469 491.389 304.695 490.516 304.695 489.098L304.695 485.102L305.961 485.102L305.961 488.852C305.961 489.783 306.395 490.299 307.273 490.299C308.164 490.299 308.738 489.66 308.738 488.699L308.738 485.102L310.01 485.102L310.01 491.266L308.738 491.266L308.738 490.34L308.709 490.34Z" fill="#454459FF"/>
		</g>
		<g opacity="0.500000">
			<path id="Sun" opacity="0.500000" d="M507.201 488.887C507.201 490.428 505.982 491.406 503.979 491.406C502.08 491.406 500.826 490.504 500.721 489.016L500.715 488.928L501.992 488.928L502.004 489.004C502.121 489.783 502.9 490.27 504.031 490.27C505.162 490.27 505.877 489.76 505.877 488.969L505.877 488.963C505.877 488.283 505.414 487.914 504.295 487.668L503.375 487.475C501.717 487.123 500.914 486.361 500.914 485.107L500.914 485.102C500.92 483.66 502.191 482.67 503.979 482.67C505.742 482.67 506.949 483.631 507.037 485.049L507.043 485.148L505.766 485.148L505.76 485.066C505.643 484.281 504.963 483.807 503.961 483.807C502.912 483.812 502.244 484.311 502.244 485.049L502.244 485.055C502.244 485.688 502.725 486.074 503.779 486.303L504.705 486.496C506.451 486.865 507.201 487.574 507.201 488.881L507.201 488.887ZM516.037 491.266L514.771 491.266L514.771 485.102L516.037 485.102L516.037 486.033L516.066 486.033C516.389 485.406 517.021 484.984 517.953 484.984C519.307 484.984 520.086 485.857 520.086 487.275L520.086 491.266L518.814 491.266L518.814 487.516C518.814 486.59 518.381 486.068 517.502 486.068C516.611 486.068 516.037 486.713 516.037 487.674L516.037 491.266ZM512.217 490.34C511.895 490.961 511.268 491.389 510.33 491.389C508.977 491.389 508.203 490.516 508.203 489.098L508.203 485.102L509.469 485.102L509.469 488.852C509.469 489.783 509.902 490.299 510.781 490.299C511.672 490.299 512.246 489.66 512.246 488.699L512.246 485.102L513.518 485.102L513.518 491.266L512.246 491.266L512.246 490.34L512.217 490.34Z" fill="#454459FF"/>
		</g>
	</g>
	<defs>
		<clipPath id="clip10_65">
			<rect id="Chart 6" rx="16.000000" width="600.000000" height="600.000000" fill="white"/>
		</clipPath>
		<linearGradient id="paint_linear_15_10_0" x1="90.500000" y1="271.000000" x2="90.500000" y2="465.000000" gradientUnits="userSpaceOnUse">
			<stop stop-color="#B09FFF"/>
			<stop offset="1.000000" stop-color="#8D79F6"/>
		</linearGradient>
		<linearGradient id="paint_linear_15_24_0" x1="90.500000" y1="342.000000" x2="90.500000" y2="465.000000" gradientUnits="userSpaceOnUse">
			<stop stop-color="#FFD572"/>
			<stop offset="1.000000" stop-color="#FEBD38"/>
		</linearGradient>
		<linearGradient id="paint_linear_15_11_0" x1="300.500000" y1="256.000000" x2="300.500000" y2="465.000000" gradientUnits="userSpaceOnUse">
			<stop stop-color="#B09FFF"/>
			<stop offset="1.000000" stop-color="#8D79F6"/>
		</linearGradient>
		<linearGradient id="paint_linear_15_25_0" x1="300.500000" y1="332.000000" x2="300.500000" y2="465.000000" gradientUnits="userSpaceOnUse">
			<stop stop-color="#FFD572"/>
			<stop offset="1.000000" stop-color="#FEBD38"/>
		</linearGradient>
		<linearGradient id="paint_linear_15_12_0" x1="160.500000" y1="225.000000" x2="160.500000" y2="465.000000" gradientUnits="userSpaceOnUse">
			<stop stop-color="#B09FFF"/>
			<stop offset="1.000000" stop-color="#8D79F6"/>
		</linearGradient>
		<linearGradient id="paint_linear_15_26_0" x1="160.500000" y1="313.000000" x2="160.500000" y2="465.000000" gradientUnits="userSpaceOnUse">
			<stop stop-color="#FFD572"/>
			<stop offset="1.000000" stop-color="#FEBD38"/>
		</linearGradient>
		<linearGradient id="paint_linear_15_13_0" x1="370.500000" y1="201.000000" x2="370.500000" y2="465.000000" gradientUnits="userSpaceOnUse">
			<stop stop-color="#B09FFF"/>
			<stop offset="1.000000" stop-color="#8D79F6"/>
		</linearGradient>
		<linearGradient id="paint_linear_15_27_0" x1="370.500000" y1="298.000000" x2="370.500000" y2="465.000000" gradientUnits="userSpaceOnUse">
			<stop stop-color="#FFD572"/>
			<stop offset="1.000000" stop-color="#FEBD38"/>
		</linearGradient>
		<linearGradient id="paint_linear_15_14_0" x1="230.500000" y1="313.000000" x2="230.500000" y2="465.000000" gradientUnits="userSpaceOnUse">
			<stop stop-color="#B09FFF"/>
			<stop offset="1.000000" stop-color="#8D79F6"/>
		</linearGradient>
		<linearGradient id="paint_linear_15_28_0" x1="230.500000" y1="369.000000" x2="230.500000" y2="465.000000" gradientUnits="userSpaceOnUse">
			<stop stop-color="#FFD572"/>
			<stop offset="1.000000" stop-color="#FEBD38"/>
		</linearGradient>
		<linearGradient id="paint_linear_15_15_0" x1="440.500000" y1="360.000000" x2="440.500000" y2="465.000000" gradientUnits="userSpaceOnUse">
			<stop stop-color="#B09FFF"/>
			<stop offset="1.000000" stop-color="#8D79F6"/>
		</linearGradient>
		<linearGradient id="paint_linear_15_29_0" x1="440.500000" y1="398.000000" x2="440.500000" y2="465.000000" gradientUnits="userSpaceOnUse">
			<stop stop-color="#FFD572"/>
			<stop offset="1.000000" stop-color="#FEBD38"/>
		</linearGradient>
		<linearGradient id="paint_linear_15_16_0" x1="510.500000" y1="271.000000" x2="510.500000" y2="465.000000" gradientUnits="userSpaceOnUse">
			<stop stop-color="#B09FFF"/>
			<stop offset="1.000000" stop-color="#8D79F6"/>
		</linearGradient>
		<linearGradient id="paint_linear_15_30_0" x1="510.500000" y1="342.000000" x2="510.500000" y2="465.000000" gradientUnits="userSpaceOnUse">
			<stop stop-color="#FFD572"/>
			<stop offset="1.000000" stop-color="#FEBD38"/>
		</linearGradient>
	</defs>
</svg>
