<svg width="600.000000" height="600.000000" viewBox="0 0 600 600" fill="none" xmlns="http://www.w3.org/2000/svg" xmlns:xlink="http://www.w3.org/1999/xlink">
	<desc>
			Created with Pixso.
	</desc>
	<rect id="Chart 7" rx="16.000000" width="600.000000" height="600.000000" fill="#FFFFFF"/>
	<g clip-path="url(#clip9_4)">
		<g filter="url(#filter_39_11_dd)">
			<rect id="Rectangle 158" x="359.000000" y="499.000000" rx="15.000000" width="50.000000" height="30.000000" fill="#FF75D8"/>
		</g>
		<path id="Vector 20" d="M0 285.175C0 285.175 37.5 252.722 79.5244 252.722C112 252.722 147.114 330.061 204.861 331.239C281.949 332.811 303.52 193.331 351.339 198.867C399.159 204.403 401.636 265.142 437.5 265.142C486.326 265.142 494.084 167.936 549.664 181.251C580.5 188.638 600 211.45 600 211.45L600 478.998L0 478.998L0 285.175Z" fill-rule="evenodd" fill="url(#paint_linear_39_12_0)"/>
		<path id="Vector 1" d="M1 284.759C1 284.759 37.5 252.6 79.5244 252.6C114.5 252.6 147.114 329.811 204.861 330.987C281.949 332.557 303.52 193.308 351.339 198.836C399.159 204.363 401.636 265 437.5 265C486.326 265 494.084 167.956 549.664 181.249C580.5 188.624 600 211.397 600 211.397" stroke="url(#paint_linear_9_19_0)" stroke-width="5.000000" stroke-linecap="round"/>
		<g opacity="0.300000">
			<path id="Rectangle 86" d="M364 114L404 114C415.046 114 424 122.954 424 134L424 479L344 479L344 134C344 122.954 352.954 114 364 114Z" fill-rule="evenodd" fill="url(#paint_linear_9_23_0)"/>
		</g>
		<g filter="url(#filter_9_22_dd)">
			<circle id="Ellipse 40" cx="384.000000" cy="213.000000" r="25.000000" fill="url(#paint_linear_9_22_0)"/>
			<circle id="Ellipse 40" cx="384.000000" cy="213.000000" r="22.000000" stroke="#FFFFFF" stroke-width="6.000000"/>
		</g>
		<g opacity="0.500000">
			<path id="Jan" opacity="0.500000" d="M47.4863 515.764C47.4863 517.428 46.5078 518.406 44.8496 518.406C43.2852 518.406 42.3711 517.451 42.3008 516.104L42.2949 516.033L43.5898 516.033L43.5957 516.086C43.6484 516.73 44.0527 517.234 44.8379 517.234C45.7051 517.234 46.1738 516.719 46.1738 515.752L46.1738 509.811L47.4863 509.811L47.4863 515.764ZM52.4902 517.293C52.1328 517.955 51.418 518.377 50.6035 518.377C49.373 518.377 48.5469 517.621 48.5469 516.514L48.5469 516.502C48.5469 515.43 49.3789 514.773 50.8379 514.686L52.5137 514.586L52.5137 514.123C52.5137 513.443 52.0742 513.033 51.2891 513.033C50.5566 513.033 50.1055 513.379 50 513.871L49.9883 513.924L48.793 513.924L48.7988 513.859C48.8867 512.799 49.8066 511.984 51.3242 511.984C52.8301 511.984 53.7852 512.781 53.7852 514.018L53.7852 518.266L52.5137 518.266L52.5137 517.293L52.4902 517.293ZM56.2812 518.266L55.0156 518.266L55.0156 512.102L56.2812 512.102L56.2812 513.033L56.3105 513.033C56.6328 512.406 57.2656 511.984 58.1973 511.984C59.5508 511.984 60.3301 512.857 60.3301 514.275L60.3301 518.266L59.0586 518.266L59.0586 514.516C59.0586 513.59 58.625 513.068 57.7461 513.068C56.8555 513.068 56.2812 513.713 56.2812 514.674L56.2812 518.266ZM49.8242 516.473L49.8242 516.484C49.8242 517.023 50.2695 517.363 50.9492 517.363C51.8398 517.363 52.5137 516.76 52.5137 515.957L52.5137 515.477L51.0078 515.57C50.2461 515.617 49.8242 515.951 49.8242 516.473Z" fill="#454459FF"/>
		</g>
		<path id="May" d="M374.789 518.266L373.424 518.266L373.424 509.811L375.17 509.811L377.76 516.268L377.801 516.268L380.391 509.811L382.137 509.811L382.137 518.266L380.777 518.266L380.777 512.254L380.73 512.254L378.293 518.266L377.268 518.266L374.83 512.254L374.789 512.254L374.789 518.266ZM387.035 517.311C386.678 517.961 385.986 518.371 385.166 518.371C383.924 518.371 383.086 517.604 383.086 516.496L383.086 516.484C383.086 515.383 383.941 514.721 385.447 514.627L387.07 514.527L387.07 514.1C387.07 513.473 386.66 513.092 385.922 513.092C385.23 513.092 384.809 513.414 384.715 513.871L384.703 513.924L383.35 513.924L383.355 513.854C383.443 512.752 384.398 511.926 385.975 511.926C387.527 511.926 388.529 512.746 388.529 513.994L388.529 518.266L387.07 518.266L387.07 517.311L387.035 517.311ZM393.012 518.477C392.537 519.842 391.811 520.328 390.516 520.328C390.234 520.328 389.941 520.293 389.766 520.264L389.766 519.15C389.877 519.174 390.047 519.203 390.252 519.203C390.809 519.203 391.119 519.045 391.307 518.523L391.395 518.271L389.162 512.055L390.756 512.055L392.209 517.023L392.25 517.023L393.709 512.055L395.244 512.055L393.012 518.477ZM384.539 516.432L384.539 516.438C384.539 516.947 384.961 517.258 385.6 517.258C386.438 517.258 387.07 516.701 387.07 515.963L387.07 515.494L385.652 515.582C384.932 515.629 384.539 515.939 384.539 516.432Z" fill="#FFFFFFFF"/>
		<g opacity="0.500000">
			<path id="Feb" opacity="0.500000" d="M125.4 518.266L124.088 518.266L124.088 509.811L129.367 509.811L129.367 510.941L125.4 510.941L125.4 513.619L129.033 513.619L129.033 514.727L125.4 514.727L125.4 518.266ZM142.34 515.184C142.34 517.146 141.326 518.389 139.762 518.389C138.877 518.389 138.191 517.943 137.828 517.223L137.799 517.223L137.799 518.266L136.533 518.266L136.533 509.811L137.799 509.811L137.799 513.15L137.828 513.15C138.197 512.424 138.9 511.984 139.773 511.984C141.32 511.984 142.34 513.215 142.34 515.178L142.34 515.184ZM135.42 516.52C135.221 517.498 134.271 518.389 132.777 518.389C130.967 518.389 129.871 517.152 129.871 515.207L129.871 515.201C129.871 513.273 130.984 511.984 132.713 511.984C134.441 511.984 135.502 513.227 135.502 515.078L135.502 515.506L131.137 515.506C131.16 516.672 131.799 517.352 132.807 517.352C133.557 517.352 134.055 516.965 134.213 516.502L134.23 516.455L135.432 516.455L135.42 516.52ZM134.248 514.609C134.143 513.543 133.545 513.021 132.719 513.021C131.898 513.021 131.266 513.578 131.154 514.609L134.248 514.609ZM137.793 515.184C137.793 516.467 138.467 517.299 139.428 517.299C140.424 517.299 141.045 516.496 141.045 515.184L141.045 515.178C141.045 513.877 140.424 513.068 139.428 513.068C138.473 513.068 137.793 513.9 137.793 515.178L137.793 515.184Z" fill="#454459FF"/>
		</g>
		<g opacity="0.500000">
			<path id="Mar" opacity="0.500000" d="M209.426 518.266L208.23 518.266L208.23 509.811L209.748 509.811L212.484 516.561L212.52 516.561L215.262 509.811L216.773 509.811L216.773 518.266L215.578 518.266L215.578 512.025L215.537 512.025L212.988 518.266L212.016 518.266L209.467 512.025L209.426 512.025L209.426 518.266ZM221.713 517.293C221.355 517.955 220.641 518.377 219.826 518.377C218.596 518.377 217.77 517.621 217.77 516.514L217.77 516.502C217.77 515.43 218.602 514.773 220.061 514.686L221.736 514.586L221.736 514.123C221.736 513.443 221.297 513.033 220.512 513.033C219.779 513.033 219.328 513.379 219.223 513.871L219.211 513.924L218.016 513.924L218.021 513.859C218.109 512.799 219.029 511.984 220.547 511.984C222.053 511.984 223.008 512.781 223.008 514.018L223.008 518.266L221.736 518.266L221.736 517.293L221.713 517.293ZM225.504 518.266L224.238 518.266L224.238 512.102L225.504 512.102L225.504 513.156L225.533 513.156C225.732 512.436 226.248 511.984 226.951 511.984C227.133 511.984 227.291 512.014 227.391 512.031L227.391 513.209C227.291 513.168 227.068 513.139 226.822 513.139C226.008 513.139 225.504 513.672 225.504 514.592L225.504 518.266ZM219.047 516.473L219.047 516.484C219.047 517.023 219.492 517.363 220.172 517.363C221.062 517.363 221.736 516.76 221.736 515.957L221.736 515.477L220.23 515.57C219.469 515.617 219.047 515.951 219.047 516.473Z" fill="#454459FF"/>
		</g>
		<g opacity="0.500000">
			<path id="Jun" opacity="0.500000" d="M465.77 515.764C465.77 517.428 464.791 518.406 463.133 518.406C461.568 518.406 460.654 517.451 460.584 516.104L460.578 516.033L461.873 516.033L461.879 516.086C461.932 516.73 462.336 517.234 463.121 517.234C463.988 517.234 464.457 516.719 464.457 515.752L464.457 509.811L465.77 509.811L465.77 515.764ZM474.998 518.266L473.732 518.266L473.732 512.102L474.998 512.102L474.998 513.033L475.027 513.033C475.35 512.406 475.982 511.984 476.914 511.984C478.268 511.984 479.047 512.857 479.047 514.275L479.047 518.266L477.775 518.266L477.775 514.516C477.775 513.59 477.342 513.068 476.463 513.068C475.572 513.068 474.998 513.713 474.998 514.674L474.998 518.266ZM471.178 517.34C470.855 517.961 470.229 518.389 469.291 518.389C467.938 518.389 467.164 517.516 467.164 516.098L467.164 512.102L468.43 512.102L468.43 515.852C468.43 516.783 468.863 517.299 469.742 517.299C470.633 517.299 471.207 516.66 471.207 515.699L471.207 512.102L472.479 512.102L472.479 518.266L471.207 518.266L471.207 517.34L471.178 517.34Z" fill="#454459FF"/>
		</g>
		<g opacity="0.500000">
			<path id="Apr" opacity="0.500000" d="M292.73 518.266L291.354 518.266L294.43 509.811L295.848 509.811L298.918 518.266L297.541 518.266L296.768 515.98L293.51 515.98L292.73 518.266ZM295.15 511.211L295.127 511.211L293.861 514.926L296.41 514.926L295.15 511.211ZM300.969 520.316L299.703 520.316L299.703 512.102L300.969 512.102L300.969 513.162L300.998 513.162C301.367 512.43 302.047 511.984 302.926 511.984C304.496 511.984 305.504 513.215 305.504 515.184L305.504 515.189C305.504 517.152 304.49 518.389 302.943 518.389C302.07 518.389 301.361 517.943 300.998 517.229L300.969 517.229L300.969 520.316ZM307.754 518.266L306.488 518.266L306.488 512.102L307.754 512.102L307.754 513.156L307.783 513.156C307.982 512.436 308.498 511.984 309.201 511.984C309.383 511.984 309.541 512.014 309.641 512.031L309.641 513.209C309.541 513.168 309.318 513.139 309.072 513.139C308.258 513.139 307.754 513.672 307.754 514.592L307.754 518.266ZM300.963 515.189C300.963 516.467 301.643 517.299 302.598 517.299C303.594 517.299 304.215 516.49 304.215 515.189L304.215 515.184C304.215 513.871 303.588 513.068 302.598 513.068C301.637 513.068 300.963 513.9 300.963 515.184L300.963 515.189Z" fill="#454459FF"/>
		</g>
		<g opacity="0.500000">
			<path id="Jul" opacity="0.500000" d="M547.732 515.764C547.732 517.428 546.754 518.406 545.096 518.406C543.531 518.406 542.617 517.451 542.547 516.104L542.541 516.033L543.836 516.033L543.842 516.086C543.895 516.73 544.299 517.234 545.084 517.234C545.951 517.234 546.42 516.719 546.42 515.752L546.42 509.811L547.732 509.811L547.732 515.764ZM557.008 518.266L555.742 518.266L555.742 509.811L557.008 509.811L557.008 518.266ZM553.141 517.34C552.818 517.961 552.191 518.389 551.254 518.389C549.9 518.389 549.127 517.516 549.127 516.098L549.127 512.102L550.393 512.102L550.393 515.852C550.393 516.783 550.826 517.299 551.705 517.299C552.596 517.299 553.17 516.66 553.17 515.699L553.17 512.102L554.441 512.102L554.441 518.266L553.17 518.266L553.17 517.34L553.141 517.34Z" fill="#454459FF"/>
		</g>
		<g opacity="0.100000">
			<path id="Vector 19" d="M0 479L600 479" stroke="#454459"/>
		</g>
	</g>
	<defs>
		<filter id="filter_39_11_dd" x="334.000000" y="479.000000" width="100.000000" height="80.000000" filterUnits="userSpaceOnUse" color-interpolation-filters="sRGB">
			<feFlood flood-opacity="0" result="BackgroundImageFix"/>
			<feColorMatrix in="SourceAlpha" type="matrix" values="0 0 0 0 0 0 0 0 0 0 0 0 0 0 0 0 0 0 127 0"/>
			<feOffset dx="0" dy="5"/>
			<feGaussianBlur stdDeviation="8.33333"/>
			<feColorMatrix type="matrix" values="0 0 0 0 0 0 0 0 0 0 0 0 0 0 0 0 0 0 0.1 0"/>
			<feBlend mode="normal" in2="BackgroundImageFix" result="effect_dropShadow_1"/>
			<feBlend mode="normal" in="SourceGraphic" in2="effect_dropShadow_1" result="shape"/>
		</filter>
		<filter id="filter_9_22_dd" x="334.000000" y="168.000000" width="100.000000" height="100.000000" filterUnits="userSpaceOnUse" color-interpolation-filters="sRGB">
			<feFlood flood-opacity="0" result="BackgroundImageFix"/>
			<feColorMatrix in="SourceAlpha" type="matrix" values="0 0 0 0 0 0 0 0 0 0 0 0 0 0 0 0 0 0 127 0"/>
			<feOffset dx="0" dy="5"/>
			<feGaussianBlur stdDeviation="8.33333"/>
			<feColorMatrix type="matrix" values="0 0 0 0 0 0 0 0 0 0 0 0 0 0 0 0 0 0 0.1 0"/>
			<feBlend mode="normal" in2="BackgroundImageFix" result="effect_dropShadow_1"/>
			<feBlend mode="normal" in="SourceGraphic" in2="effect_dropShadow_1" result="shape"/>
		</filter>
		<clipPath id="clip9_4">
			<rect id="Chart 7" rx="16.000000" width="600.000000" height="600.000000" fill="white"/>
		</clipPath>
		<linearGradient id="paint_linear_39_12_0" x1="300.000000" y1="179.998047" x2="300.000000" y2="478.998047" gradientUnits="userSpaceOnUse">
			<stop stop-color="#B09FFF" stop-opacity="0.301961"/>
			<stop offset="1.000000" stop-color="#8D79F6" stop-opacity="0.000000"/>
		</linearGradient>
		<linearGradient id="paint_linear_9_19_0" x1="300.500000" y1="179.998047" x2="300.500000" y2="330.999969" gradientUnits="userSpaceOnUse">
			<stop stop-color="#B09FFF"/>
			<stop offset="1.000000" stop-color="#8D79F6"/>
		</linearGradient>
		<linearGradient id="paint_linear_9_23_0" x1="384.000000" y1="114.000000" x2="384.000000" y2="479.000000" gradientUnits="userSpaceOnUse">
			<stop stop-color="#B09FFF" stop-opacity="0.149020"/>
			<stop offset="1.000000" stop-color="#8D79F6"/>
		</linearGradient>
		<linearGradient id="paint_linear_9_22_0" x1="384.000000" y1="188.000000" x2="384.000000" y2="238.000000" gradientUnits="userSpaceOnUse">
			<stop stop-color="#FD95D3"/>
			<stop offset="1.000000" stop-color="#FF5CBE"/>
		</linearGradient>
	</defs>
</svg>
