<svg width="600.000000" height="600.000000" viewBox="0 0 600 600" fill="none" xmlns="http://www.w3.org/2000/svg" xmlns:xlink="http://www.w3.org/1999/xlink">
	<desc>
			Created with Pixso.
	</desc>
	<rect id="Chart 14" rx="16.000000" width="600.000000" height="600.000000" fill="#171724"/>
	<g clip-path="url(#clip41_2)">
		<g opacity="0.300000">
			<path id="Rectangle 124" d="M84 326L94 326L94 431C94 433.761 91.7614 436 89 436C86.2386 436 84 433.761 84 431L84 326Z" fill-rule="evenodd" fill="#FFC54A"/>
		</g>
		<path id="Rectangle 131" d="M84 221C84 218.239 86.2386 216 89 216C91.7614 216 94 218.239 94 221L94 326L84 326L84 221Z" fill-rule="evenodd" fill="url(#paint_linear_41_28_0)"/>
		<g opacity="0.300000">
			<path id="Rectangle 126" d="M224 326L234 326L234 420C234 422.761 231.761 425 229 425C226.239 425 224 422.761 224 420L224 326Z" fill-rule="evenodd" fill="#FFC54A"/>
		</g>
		<path id="Rectangle 132" d="M224 143C224 140.239 226.239 138 229 138C231.761 138 234 140.239 234 143L234 326L224 326L224 143Z" fill-rule="evenodd" fill="url(#paint_linear_41_29_0)"/>
		<g opacity="0.300000">
			<path id="Rectangle 128" d="M364 326L374 326L374 431C374 433.761 371.761 436 369 436C366.239 436 364 433.761 364 431L364 326Z" fill-rule="evenodd" fill="#FFC54A"/>
		</g>
		<path id="Rectangle 133" d="M364 134C364 131.239 366.239 129 369 129C371.761 129 374 131.239 374 134L374 326L364 326L364 134Z" fill-rule="evenodd" fill="url(#paint_linear_41_30_0)"/>
		<g opacity="0.300000">
			<path id="Rectangle 130" d="M504 326L514 326L514 420C514 422.761 511.761 425 509 425C506.239 425 504 422.761 504 420L504 326Z" fill-rule="evenodd" fill="#FFC54A"/>
		</g>
		<path id="Rectangle 134" d="M504 206C504 203.239 506.239 201 509 201C511.761 201 514 203.239 514 206L514 326L504 326L504 206Z" fill-rule="evenodd" fill="url(#paint_linear_41_31_0)"/>
		<g opacity="0.300000">
			<path id="Rectangle 125" d="M154 326L164 326L164 431C164 433.761 161.761 436 159 436C156.239 436 154 433.761 154 431L154 326Z" fill-rule="evenodd" fill="#FFC54A"/>
		</g>
		<path id="Rectangle 135" d="M154 199C154 196.239 156.239 194 159 194C161.761 194 164 196.239 164 199L164 326L154 326L154 199Z" fill-rule="evenodd" fill="url(#paint_linear_41_32_0)"/>
		<g opacity="0.300000">
			<path id="Rectangle 127" d="M294 326L304 326L304 391C304 393.761 301.761 396 299 396C296.239 396 294 393.761 294 391L294 326Z" fill-rule="evenodd" fill="#FFC54A"/>
		</g>
		<path id="Rectangle 136" d="M294 261C294 258.239 296.239 256 299 256C301.761 256 304 258.239 304 261L304 326L294 326L294 261Z" fill-rule="evenodd" fill="url(#paint_linear_41_33_0)"/>
		<g opacity="0.300000">
			<path id="Rectangle 129" d="M434 326L444 326L444 399C444 401.761 441.761 404 439 404C436.239 404 434 401.761 434 399L434 326Z" fill-rule="evenodd" fill="#FFC54A"/>
		</g>
		<path id="Rectangle 137" d="M434 181C434 178.239 436.239 176 439 176C441.761 176 444 178.239 444 181L444 326L434 326L434 181Z" fill-rule="evenodd" fill="url(#paint_linear_41_34_0)"/>
		<path id="Mon" d="M79.3789 470.266L78.1836 470.266L78.1836 461.811L79.7012 461.811L82.4375 468.561L82.4727 468.561L85.2148 461.811L86.7266 461.811L86.7266 470.266L85.5312 470.266L85.5312 464.025L85.4902 464.025L82.9414 470.266L81.9688 470.266L79.4199 464.025L79.3789 464.025L79.3789 470.266ZM93.7051 467.184C93.7051 469.17 92.5449 470.389 90.7812 470.389C89.0117 470.389 87.8574 469.164 87.8574 467.184L87.8574 467.172C87.8574 465.203 89.0234 463.984 90.7754 463.984C92.5332 463.984 93.7051 465.197 93.7051 467.172L93.7051 467.184ZM95.9492 470.266L94.6836 470.266L94.6836 464.102L95.9492 464.102L95.9492 465.033L95.9785 465.033C96.3008 464.406 96.9336 463.984 97.8652 463.984C99.2188 463.984 99.998 464.857 99.998 466.275L99.998 470.266L98.7266 470.266L98.7266 466.516C98.7266 465.59 98.293 465.068 97.4141 465.068C96.5234 465.068 95.9492 465.713 95.9492 466.674L95.9492 470.266ZM89.1523 467.184C89.1523 468.549 89.7969 469.328 90.7871 469.328C91.7773 469.328 92.4102 468.543 92.4102 467.184L92.4102 467.172C92.4102 465.824 91.7656 465.045 90.7754 465.045C89.8027 465.045 89.1523 465.824 89.1523 467.172L89.1523 467.184Z" fill="#FFFFFFFF"/>
		<path id="Fri" d="M375.418 462.426C375.418 462.824 375.096 463.152 374.68 463.152C374.27 463.152 373.941 462.824 373.941 462.426C373.941 462.021 374.27 461.693 374.68 461.693C375.096 461.693 375.418 462.021 375.418 462.426ZM365.1 470.266L363.787 470.266L363.787 461.811L369.066 461.811L369.066 462.941L365.1 462.941L365.1 465.619L368.732 465.619L368.732 466.727L365.1 466.727L365.1 470.266ZM371.322 470.266L370.057 470.266L370.057 464.102L371.322 464.102L371.322 465.156L371.352 465.156C371.551 464.436 372.066 463.984 372.77 463.984C372.951 463.984 373.109 464.014 373.209 464.031L373.209 465.209C373.109 465.168 372.887 465.139 372.641 465.139C371.826 465.139 371.322 465.672 371.322 466.592L371.322 470.266ZM375.312 464.102L375.312 470.266L374.047 470.266L374.047 464.102L375.312 464.102Z" fill="#FFFFFFFF"/>
		<path id="Tue" d="M154.279 470.266L152.967 470.266L152.967 462.941L150.377 462.941L150.377 461.811L156.863 461.811L156.863 462.941L154.279 462.941L154.279 470.266ZM168.471 468.52C168.271 469.498 167.322 470.389 165.828 470.389C164.018 470.389 162.922 469.152 162.922 467.207L162.922 467.201C162.922 465.273 164.035 463.984 165.764 463.984C167.492 463.984 168.553 465.227 168.553 467.078L168.553 467.506L164.188 467.506C164.211 468.672 164.85 469.352 165.857 469.352C166.607 469.352 167.105 468.965 167.264 468.502L167.281 468.455L168.482 468.455L168.471 468.52ZM160.643 469.34C160.32 469.961 159.693 470.389 158.756 470.389C157.402 470.389 156.629 469.516 156.629 468.098L156.629 464.102L157.895 464.102L157.895 467.852C157.895 468.783 158.328 469.299 159.207 469.299C160.098 469.299 160.672 468.66 160.672 467.699L160.672 464.102L161.943 464.102L161.943 470.266L160.672 470.266L160.672 469.34L160.643 469.34ZM167.299 466.609C167.193 465.543 166.596 465.021 165.77 465.021C164.949 465.021 164.316 465.578 164.205 466.609L167.299 466.609Z" fill="#FFFFFFFF"/>
		<path id="Wed" d="M220.908 470.266L219.648 470.266L217.369 461.811L218.734 461.811L220.311 468.438L220.334 468.438L222.121 461.811L223.363 461.811L225.15 468.438L225.18 468.438L226.756 461.811L228.121 461.811L225.836 470.266L224.576 470.266L222.76 463.891L222.73 463.891L220.908 470.266ZM238.92 469.223C238.551 469.943 237.871 470.389 236.986 470.389C235.416 470.389 234.408 469.146 234.408 467.184L234.408 467.178C234.408 465.215 235.428 463.984 236.975 463.984C237.848 463.984 238.551 464.424 238.92 465.15L238.943 465.15L238.943 461.811L240.215 461.811L240.215 470.266L238.943 470.266L238.943 469.223L238.92 469.223ZM233.617 468.52C233.418 469.498 232.469 470.389 230.975 470.389C229.164 470.389 228.068 469.152 228.068 467.207L228.068 467.201C228.068 465.273 229.182 463.984 230.91 463.984C232.639 463.984 233.699 465.227 233.699 467.078L233.699 467.506L229.334 467.506C229.357 468.672 229.996 469.352 231.004 469.352C231.754 469.352 232.252 468.965 232.41 468.502L232.428 468.455L233.629 468.455L233.617 468.52ZM232.445 466.609C232.34 465.543 231.742 465.021 230.916 465.021C230.096 465.021 229.463 465.578 229.352 466.609L232.445 466.609ZM235.703 467.184C235.703 468.496 236.318 469.299 237.32 469.299C238.275 469.299 238.949 468.467 238.949 467.184L238.949 467.178C238.949 465.9 238.27 465.068 237.32 465.068C236.324 465.068 235.703 465.877 235.703 467.178L235.703 467.184Z" fill="#FFFFFFFF"/>
		<path id="Sat" d="M438.201 467.887C438.201 469.428 436.982 470.406 434.979 470.406C433.08 470.406 431.826 469.504 431.721 468.016L431.715 467.928L432.992 467.928L433.004 468.004C433.121 468.783 433.9 469.27 435.031 469.27C436.162 469.27 436.877 468.76 436.877 467.969L436.877 467.963C436.877 467.283 436.414 466.914 435.295 466.668L434.375 466.475C432.717 466.123 431.914 465.361 431.914 464.107L431.914 464.102C431.92 462.66 433.191 461.67 434.979 461.67C436.742 461.67 437.949 462.631 438.037 464.049L438.043 464.148L436.766 464.148L436.76 464.066C436.643 463.281 435.963 462.807 434.961 462.807C433.912 462.812 433.244 463.311 433.244 464.049L433.244 464.055C433.244 464.688 433.725 465.074 434.779 465.303L435.705 465.496C437.451 465.865 438.201 466.574 438.201 467.881L438.201 467.887ZM448.262 470.336C448.115 470.359 447.875 470.389 447.617 470.389C446.398 470.389 445.812 469.873 445.812 468.643L445.812 465.109L444.928 465.109L444.928 464.102L445.812 464.102L445.812 462.496L447.107 462.496L447.107 464.102L448.262 464.102L448.262 465.109L447.107 465.109L447.107 468.566C447.107 469.193 447.389 469.381 447.922 469.381C448.057 469.381 448.168 469.369 448.262 469.357L448.262 470.336ZM442.93 469.293C442.572 469.955 441.857 470.377 441.043 470.377C439.812 470.377 438.986 469.621 438.986 468.514L438.986 468.502C438.986 467.43 439.818 466.773 441.277 466.686L442.953 466.586L442.953 466.123C442.953 465.443 442.514 465.033 441.729 465.033C440.996 465.033 440.545 465.379 440.439 465.871L440.428 465.924L439.232 465.924L439.238 465.859C439.326 464.799 440.246 463.984 441.764 463.984C443.27 463.984 444.225 464.781 444.225 466.018L444.225 470.266L442.953 470.266L442.953 469.293L442.93 469.293ZM440.264 468.473L440.264 468.484C440.264 469.023 440.709 469.363 441.389 469.363C442.279 469.363 442.953 468.76 442.953 467.957L442.953 467.477L441.447 467.57C440.686 467.617 440.264 467.951 440.264 468.473Z" fill="#FFFFFFFF"/>
		<path id="Thu" d="M294.553 470.266L293.24 470.266L293.24 462.941L290.65 462.941L290.65 461.811L297.137 461.811L297.137 462.941L294.553 462.941L294.553 470.266ZM299.369 470.266L298.104 470.266L298.104 461.811L299.369 461.811L299.369 465.115L299.398 465.115C299.727 464.4 300.389 463.984 301.309 463.984C302.627 463.984 303.494 464.969 303.494 466.457L303.494 470.266L302.229 470.266L302.229 466.697C302.229 465.678 301.713 465.068 300.822 465.068C299.949 465.068 299.369 465.736 299.369 466.697L299.369 470.266ZM308.709 469.34C308.387 469.961 307.76 470.389 306.822 470.389C305.469 470.389 304.695 469.516 304.695 468.098L304.695 464.102L305.961 464.102L305.961 467.852C305.961 468.783 306.395 469.299 307.273 469.299C308.164 469.299 308.738 468.66 308.738 467.699L308.738 464.102L310.01 464.102L310.01 470.266L308.738 470.266L308.738 469.34L308.709 469.34Z" fill="#FFFFFFFF"/>
		<path id="Sun" d="M507.201 467.887C507.201 469.428 505.982 470.406 503.979 470.406C502.08 470.406 500.826 469.504 500.721 468.016L500.715 467.928L501.992 467.928L502.004 468.004C502.121 468.783 502.9 469.27 504.031 469.27C505.162 469.27 505.877 468.76 505.877 467.969L505.877 467.963C505.877 467.283 505.414 466.914 504.295 466.668L503.375 466.475C501.717 466.123 500.914 465.361 500.914 464.107L500.914 464.102C500.92 462.66 502.191 461.67 503.979 461.67C505.742 461.67 506.949 462.631 507.037 464.049L507.043 464.148L505.766 464.148L505.76 464.066C505.643 463.281 504.963 462.807 503.961 462.807C502.912 462.812 502.244 463.311 502.244 464.049L502.244 464.055C502.244 464.688 502.725 465.074 503.779 465.303L504.705 465.496C506.451 465.865 507.201 466.574 507.201 467.881L507.201 467.887ZM516.037 470.266L514.771 470.266L514.771 464.102L516.037 464.102L516.037 465.033L516.066 465.033C516.389 464.406 517.021 463.984 517.953 463.984C519.307 463.984 520.086 464.857 520.086 466.275L520.086 470.266L518.814 470.266L518.814 466.516C518.814 465.59 518.381 465.068 517.502 465.068C516.611 465.068 516.037 465.713 516.037 466.674L516.037 470.266ZM512.217 469.34C511.895 469.961 511.268 470.389 510.33 470.389C508.977 470.389 508.203 469.516 508.203 468.098L508.203 464.102L509.469 464.102L509.469 467.852C509.469 468.783 509.902 469.299 510.781 469.299C511.672 469.299 512.246 468.66 512.246 467.699L512.246 464.102L513.518 464.102L513.518 470.266L512.246 470.266L512.246 469.34L512.217 469.34Z" fill="#FFFFFFFF"/>
		<g opacity="0.200000">
			<path id="Vector 34" d="M0 306L600 306" stroke="#454459"/>
		</g>
		<g opacity="0.200000">
			<path id="Vector 35" d="M0 276L600 276" stroke="#454459"/>
		</g>
		<g opacity="0.200000">
			<path id="Vector 37" d="M0 246L600 246" stroke="#454459"/>
		</g>
		<g opacity="0.200000">
			<path id="Vector 38" d="M0 216L600 216" stroke="#454459"/>
		</g>
		<g opacity="0.200000">
			<path id="Vector 40" d="M0 186L600 186" stroke="#454459"/>
		</g>
		<g opacity="0.200000">
			<path id="Vector 41" d="M0 156L600 156" stroke="#454459"/>
		</g>
		<g opacity="0.200000">
			<path id="Vector 29" d="M0 336L600 336" stroke="#454459"/>
		</g>
		<g opacity="0.200000">
			<path id="Vector 30" d="M0 366L600 366" stroke="#454459"/>
		</g>
		<g opacity="0.200000">
			<path id="Vector 32" d="M0 396L600 396" stroke="#454459"/>
		</g>
		<g opacity="0.200000">
			<path id="Vector 33" d="M0 426L600 426" stroke="#454459"/>
		</g>
	</g>
	<defs>
		<clipPath id="clip41_2">
			<rect id="Chart 14" rx="16.000000" width="600.000000" height="600.000000" fill="white"/>
		</clipPath>
		<linearGradient id="paint_linear_41_28_0" x1="89.000000" y1="216.000000" x2="89.000000" y2="326.000000" gradientUnits="userSpaceOnUse">
			<stop stop-color="#FFD572"/>
			<stop offset="1.000000" stop-color="#FEBD38"/>
		</linearGradient>
		<linearGradient id="paint_linear_41_29_0" x1="229.000000" y1="138.000000" x2="229.000000" y2="326.000000" gradientUnits="userSpaceOnUse">
			<stop stop-color="#FFD572"/>
			<stop offset="1.000000" stop-color="#FEBD38"/>
		</linearGradient>
		<linearGradient id="paint_linear_41_30_0" x1="369.000000" y1="129.000000" x2="369.000000" y2="326.000000" gradientUnits="userSpaceOnUse">
			<stop stop-color="#FFD572"/>
			<stop offset="1.000000" stop-color="#FEBD38"/>
		</linearGradient>
		<linearGradient id="paint_linear_41_31_0" x1="509.000000" y1="201.000000" x2="509.000000" y2="326.000000" gradientUnits="userSpaceOnUse">
			<stop stop-color="#FFD572"/>
			<stop offset="1.000000" stop-color="#FEBD38"/>
		</linearGradient>
		<linearGradient id="paint_linear_41_32_0" x1="159.000000" y1="194.000000" x2="159.000000" y2="326.000000" gradientUnits="userSpaceOnUse">
			<stop stop-color="#FFD572"/>
			<stop offset="1.000000" stop-color="#FEBD38"/>
		</linearGradient>
		<linearGradient id="paint_linear_41_33_0" x1="299.000000" y1="256.000000" x2="299.000000" y2="326.000000" gradientUnits="userSpaceOnUse">
			<stop stop-color="#FFD572"/>
			<stop offset="1.000000" stop-color="#FEBD38"/>
		</linearGradient>
		<linearGradient id="paint_linear_41_34_0" x1="439.000000" y1="176.000000" x2="439.000000" y2="326.000000" gradientUnits="userSpaceOnUse">
			<stop stop-color="#FFD572"/>
			<stop offset="1.000000" stop-color="#FEBD38"/>
		</linearGradient>
	</defs>
</svg>
