<svg width="600.000000" height="600.000000" viewBox="0 0 600 600" fill="none" xmlns="http://www.w3.org/2000/svg" xmlns:xlink="http://www.w3.org/1999/xlink">
	<desc>
			Created with Pixso.
	</desc>
	<rect id="Chart 12" rx="16.000000" width="600.000000" height="600.000000" fill="#171724"/>
	<g clip-path="url(#clip17_25)">
		<g opacity="0.300000">
			<rect id="Rectangle 138" x="60.000000" y="97.000000" rx="15.000000" width="480.000000" height="30.000000" fill="#454459"/>
		</g>
		<rect id="Rectangle 144" x="60.250000" y="97.250000" rx="14.750000" width="317.500000" height="29.500000" fill="url(#paint_linear_17_52_0)"/>
		<rect id="Rectangle 144" x="60.250000" y="97.250000" rx="14.750000" width="317.500000" height="29.500000" stroke="#FFFFFF" stroke-width="0.500000"/>
		<g opacity="0.300000">
			<rect id="Rectangle 140" x="60.000000" y="257.000000" rx="15.000000" width="480.000000" height="30.000000" fill="#454459"/>
		</g>
		<rect id="Rectangle 145" x="60.250000" y="257.250000" rx="14.750000" width="209.500000" height="29.500000" fill="url(#paint_linear_17_53_0)"/>
		<rect id="Rectangle 145" x="60.250000" y="257.250000" rx="14.750000" width="209.500000" height="29.500000" stroke="#FFFFFF" stroke-width="0.500000"/>
		<g opacity="0.300000">
			<rect id="Rectangle 142" x="60.000000" y="417.000000" rx="15.000000" width="480.000000" height="30.000000" fill="#454459"/>
		</g>
		<rect id="Rectangle 146" x="60.250000" y="417.250000" rx="14.750000" width="157.500000" height="29.500000" fill="url(#paint_linear_17_54_0)"/>
		<rect id="Rectangle 146" x="60.250000" y="417.250000" rx="14.750000" width="157.500000" height="29.500000" stroke="#FFFFFF" stroke-width="0.500000"/>
		<g opacity="0.300000">
			<rect id="Rectangle 139" x="60.000000" y="177.000000" rx="15.000000" width="480.000000" height="30.000000" fill="#454459"/>
		</g>
		<rect id="Rectangle 147" x="60.250000" y="177.250000" rx="14.750000" width="384.500000" height="29.500000" fill="url(#paint_linear_17_55_0)"/>
		<rect id="Rectangle 147" x="60.250000" y="177.250000" rx="14.750000" width="384.500000" height="29.500000" stroke="#FFFFFF" stroke-width="0.500000"/>
		<g opacity="0.300000">
			<rect id="Rectangle 141" x="60.000000" y="337.000000" rx="15.000000" width="480.000000" height="30.000000" fill="#454459"/>
		</g>
		<rect id="Rectangle 148" x="60.250000" y="337.250000" rx="14.750000" width="280.500000" height="29.500000" fill="url(#paint_linear_17_56_0)"/>
		<rect id="Rectangle 148" x="60.250000" y="337.250000" rx="14.750000" width="280.500000" height="29.500000" stroke="#FFFFFF" stroke-width="0.500000"/>
		<g opacity="0.300000">
			<rect id="Rectangle 143" x="60.000000" y="497.000000" rx="15.000000" width="480.000000" height="30.000000" fill="#454459"/>
		</g>
		<rect id="Rectangle 149" x="60.250000" y="497.250000" rx="14.750000" width="346.500000" height="29.500000" fill="url(#paint_linear_17_57_0)"/>
		<rect id="Rectangle 149" x="60.250000" y="497.250000" rx="14.750000" width="346.500000" height="29.500000" stroke="#FFFFFF" stroke-width="0.500000"/>
		<rect id="Rectangle 150" x="432.000000" y="187.000000" rx="1.500000" width="3.000000" height="10.000000" fill="#FFFFFF"/>
		<rect id="Rectangle 152" x="257.000000" y="267.000000" rx="1.500000" width="3.000000" height="10.000000" fill="#FFFFFF"/>
		<rect id="Rectangle 153" x="328.000000" y="347.000000" rx="1.500000" width="3.000000" height="10.000000" fill="#FFFFFF"/>
		<rect id="Rectangle 154" x="205.000000" y="427.000000" rx="1.500000" width="3.000000" height="10.000000" fill="#FFFFFF"/>
		<rect id="Rectangle 155" x="394.000000" y="507.000000" rx="1.500000" width="3.000000" height="10.000000" fill="#FFFFFF"/>
		<rect id="Rectangle 151" x="362.000000" y="107.000000" rx="1.500000" width="3.000000" height="10.000000" fill="#FFFFFF"/>
		<path id="Sport" d="M67.0195 81.834C67.0195 83.4102 65.7773 84.4121 63.7148 84.4121C61.7754 84.4121 60.498 83.498 60.3984 81.9805L60.3926 81.8926L61.8398 81.8926L61.8516 81.9629C61.9629 82.6895 62.707 83.1406 63.7676 83.1406C64.834 83.1406 65.502 82.666 65.502 81.9395L65.502 81.9336C65.502 81.3008 65.0625 80.9609 63.9727 80.7324L63.0645 80.5449C61.4004 80.1992 60.5801 79.4258 60.5801 78.166L60.5801 78.1602C60.5859 76.6719 61.8926 75.6641 63.7148 75.6641C65.5605 75.6641 66.7676 76.6367 66.8555 78.084L66.8613 78.1836L65.4141 78.1836L65.4023 78.1133C65.3027 77.375 64.6523 76.9355 63.7031 76.9355C62.7129 76.9414 62.0977 77.4043 62.0977 78.0781L62.0977 78.084C62.0977 78.6816 62.5605 79.0332 63.5801 79.2441L64.4941 79.4316C66.252 79.7949 67.0195 80.5098 67.0195 81.8281L67.0195 81.834ZM88.7754 84.3359C88.6055 84.3594 88.3477 84.3887 88.0547 84.3887C86.7539 84.3887 86.1387 83.8613 86.1387 82.584L86.1387 79.1797L85.2598 79.1797L85.2598 78.0547L86.1387 78.0547L86.1387 76.4785L87.6211 76.4785L87.6211 78.0547L88.7754 78.0547L88.7754 79.1797L87.6211 79.1797L87.6211 82.4609C87.6211 83.0703 87.8906 83.2637 88.4238 83.2637C88.5645 83.2637 88.6758 83.2461 88.7754 83.2402L88.7754 84.3359ZM69.4629 86.3164L68.0039 86.3164L68.0039 78.0547L69.4629 78.0547L69.4629 79.127L69.4922 79.127C69.8496 78.3828 70.5293 77.9258 71.4199 77.9258C72.9961 77.9258 73.9922 79.1562 73.9922 81.1602L73.9922 81.166C73.9922 83.1582 72.9961 84.3887 71.4375 84.3887C70.5527 84.3887 69.8438 83.9434 69.4922 83.2168L69.4629 83.2168L69.4629 86.3164ZM80.6836 81.1602C80.6836 83.1758 79.5 84.3887 77.6777 84.3887C75.8496 84.3887 74.6719 83.1699 74.6719 81.1602L74.6719 81.1484C74.6719 79.1562 75.8672 77.9258 77.6719 77.9258C79.4824 77.9258 80.6836 79.1445 80.6836 81.1484L80.6836 81.1602ZM83.0801 84.2656L81.6211 84.2656L81.6211 78.0547L83.0801 78.0547L83.0801 79.127L83.1094 79.127C83.3027 78.377 83.8184 77.9258 84.5332 77.9258C84.7148 77.9258 84.8848 77.9551 84.9961 77.9844L84.9961 79.3027C84.873 79.2559 84.6504 79.2207 84.4043 79.2207C83.5781 79.2207 83.0801 79.7422 83.0801 80.6621L83.0801 84.2656ZM76.1602 81.1602C76.1602 82.4668 76.752 83.2109 77.6836 83.2109C78.6035 83.2109 79.1953 82.4609 79.1953 81.1602L79.1953 81.1484C79.1953 79.8535 78.5977 79.1094 77.6719 79.1094C76.7637 79.1094 76.1602 79.8594 76.1602 81.1484L76.1602 81.1602ZM69.4512 81.166C69.4512 82.3789 70.084 83.1582 70.9863 83.1582C71.918 83.1582 72.5039 82.3906 72.5039 81.166L72.5039 81.1602C72.5039 79.918 71.918 79.1562 70.9863 79.1562C70.084 79.1562 69.4512 79.9414 69.4512 81.1602L69.4512 81.166Z" fill="#FFFFFFFF"/>
		<path id="Friends" d="M72.7969 236.367C72.7969 236.801 72.4453 237.164 71.9883 237.164C71.5312 237.164 71.1738 236.801 71.1738 236.367C71.1738 235.922 71.5312 235.564 71.9883 235.564C72.4453 235.564 72.7969 235.922 72.7969 236.367ZM62.2559 244.266L60.7441 244.266L60.7441 235.811L66.1348 235.811L66.1348 237.082L62.2559 237.082L62.2559 239.584L65.8008 239.584L65.8008 240.814L62.2559 240.814L62.2559 244.266ZM91.3828 243.211C91.0312 243.943 90.3457 244.389 89.4492 244.389C87.8789 244.389 86.8828 243.158 86.8828 241.16L86.8828 241.154C86.8828 239.15 87.8848 237.926 89.4434 237.926C90.3223 237.926 91.0312 238.377 91.3828 239.121L91.418 239.121L91.418 235.811L92.877 235.811L92.877 244.266L91.418 244.266L91.418 243.211L91.3828 243.211ZM68.5488 244.266L67.0898 244.266L67.0898 238.055L68.5488 238.055L68.5488 239.127L68.5781 239.127C68.7715 238.377 69.2871 237.926 70.002 237.926C70.1836 237.926 70.3535 237.955 70.4648 237.984L70.4648 239.303C70.3418 239.256 70.1191 239.221 69.873 239.221C69.0469 239.221 68.5488 239.742 68.5488 240.662L68.5488 244.266ZM79.418 242.473C79.2246 243.428 78.3105 244.389 76.6875 244.389C74.8242 244.389 73.6992 243.152 73.6992 241.178L73.6992 241.172C73.6992 239.215 74.8418 237.926 76.6172 237.926C78.3926 237.926 79.4941 239.174 79.4941 241.049L79.4941 241.518L75.1465 241.518C75.1699 242.607 75.7676 243.252 76.7168 243.252C77.4434 243.252 77.918 242.865 78.0586 242.449L78.0703 242.408L79.4355 242.408L79.418 242.473ZM81.8965 244.266L80.4375 244.266L80.4375 238.055L81.8965 238.055L81.8965 239.027L81.9258 239.027C82.248 238.359 82.8809 237.926 83.8242 237.926C85.1895 237.926 85.9688 238.805 85.9688 240.246L85.9688 244.266L84.5098 244.266L84.5098 240.539C84.5098 239.654 84.0996 239.156 83.2676 239.156C82.4297 239.156 81.8965 239.766 81.8965 240.662L81.8965 244.266ZM99.1348 242.432C99.1348 243.604 98.0508 244.389 96.5273 244.389C94.8984 244.389 93.9668 243.615 93.8379 242.461L93.832 242.408L95.2676 242.408L95.2793 242.461C95.3906 242.994 95.7949 243.311 96.5332 243.311C97.2422 243.311 97.6699 243.023 97.6699 242.566L97.6699 242.561C97.6699 242.186 97.4531 241.975 96.8086 241.828L95.7773 241.6C94.5879 241.336 93.9902 240.756 93.9902 239.836L93.9902 239.83C93.9902 238.693 94.9805 237.926 96.4805 237.926C98.0273 237.926 98.9297 238.775 98.9824 239.848L98.9883 239.912L97.6289 239.912L97.623 239.865C97.5586 239.367 97.1602 239.004 96.4805 239.004C95.8359 239.004 95.4316 239.303 95.4316 239.76L95.4316 239.766C95.4316 240.123 95.6719 240.357 96.3164 240.504L97.3535 240.732C98.6367 241.02 99.1348 241.523 99.1348 242.426L99.1348 242.432ZM72.7148 244.266L71.2559 244.266L71.2559 238.055L72.7148 238.055L72.7148 244.266ZM78.0762 240.545C77.9707 239.561 77.4082 239.068 76.6348 239.068C75.8613 239.068 75.2812 239.59 75.1641 240.545L78.0762 240.545ZM88.3711 241.16C88.3711 242.396 88.9512 243.158 89.8887 243.158C90.791 243.158 91.418 242.379 91.418 241.16L91.418 241.154C91.418 239.941 90.7852 239.156 89.8887 239.156C88.957 239.156 88.3711 239.918 88.3711 241.154L88.3711 241.16Z" fill="#FFFFFFFF"/>
		<path id="Work" d="M63.9785 164.266L62.5195 164.266L60.252 155.811L61.8223 155.811L63.293 162.191L63.3223 162.191L65.0156 155.811L66.3867 155.811L68.0801 162.191L68.1094 162.191L69.5801 155.811L71.1504 155.811L68.8828 164.266L67.4238 164.266L65.7188 158.201L65.6836 158.201L63.9785 164.266ZM83.6602 164.266L82.2012 164.266L82.2012 155.811L83.6602 155.811L83.6602 160.633L83.6895 160.633L86.0098 158.055L87.6973 158.055L85.2363 160.727L87.7969 164.266L86.1152 164.266L84.1523 161.594L83.6602 162.109L83.6602 164.266ZM77.0742 161.16C77.0742 163.176 75.8906 164.389 74.0684 164.389C72.2402 164.389 71.0625 163.17 71.0625 161.16L71.0625 161.148C71.0625 159.156 72.2578 157.926 74.0625 157.926C75.873 157.926 77.0742 159.145 77.0742 161.148L77.0742 161.16ZM79.4707 164.266L78.0117 164.266L78.0117 158.055L79.4707 158.055L79.4707 159.127L79.5 159.127C79.6934 158.377 80.209 157.926 80.9238 157.926C81.1055 157.926 81.2754 157.955 81.3867 157.984L81.3867 159.303C81.2637 159.256 81.041 159.221 80.7949 159.221C79.9688 159.221 79.4707 159.742 79.4707 160.662L79.4707 164.266ZM72.5508 161.16C72.5508 162.467 73.1426 163.211 74.0742 163.211C74.9941 163.211 75.5859 162.461 75.5859 161.16L75.5859 161.148C75.5859 159.854 74.9883 159.109 74.0625 159.109C73.1543 159.109 72.5508 159.859 72.5508 161.148L72.5508 161.16Z" fill="#FFFFFFFF"/>
		<path id="Movie" d="M84.9961 316.367C84.9961 316.801 84.6445 317.164 84.1875 317.164C83.7305 317.164 83.373 316.801 83.373 316.367C83.373 315.922 83.7305 315.564 84.1875 315.564C84.6445 315.564 84.9961 315.922 84.9961 316.367ZM62.1094 324.266L60.7441 324.266L60.7441 315.811L62.4902 315.811L65.0801 322.268L65.1211 322.268L67.7109 315.811L69.457 315.811L69.457 324.266L68.0977 324.266L68.0977 318.254L68.0508 318.254L65.6133 324.266L64.5879 324.266L62.1504 318.254L62.1094 318.254L62.1094 324.266ZM76.5586 321.16C76.5586 323.176 75.375 324.389 73.5527 324.389C71.7246 324.389 70.5469 323.17 70.5469 321.16L70.5469 321.148C70.5469 319.156 71.7422 317.926 73.5469 317.926C75.3574 317.926 76.5586 319.145 76.5586 321.148L76.5586 321.16ZM91.6172 322.473C91.4238 323.428 90.5098 324.389 88.8867 324.389C87.0234 324.389 85.8984 323.152 85.8984 321.178L85.8984 321.172C85.8984 319.215 87.041 317.926 88.8164 317.926C90.5918 317.926 91.6934 319.174 91.6934 321.049L91.6934 321.518L87.3457 321.518C87.3691 322.607 87.9668 323.252 88.916 323.252C89.6426 323.252 90.1172 322.865 90.2578 322.449L90.2695 322.408L91.6348 322.408L91.6172 322.473ZM80.5547 324.266L78.9492 324.266L76.752 318.055L78.3047 318.055L79.7461 322.912L79.7812 322.912L81.2168 318.055L82.7402 318.055L80.5547 324.266ZM84.9141 324.266L83.4551 324.266L83.4551 318.055L84.9141 318.055L84.9141 324.266ZM90.2754 320.545C90.1699 319.561 89.6074 319.068 88.834 319.068C88.0605 319.068 87.4805 319.59 87.3633 320.545L90.2754 320.545ZM72.0352 321.16C72.0352 322.467 72.627 323.211 73.5586 323.211C74.4785 323.211 75.0703 322.461 75.0703 321.16L75.0703 321.148C75.0703 319.854 74.4727 319.109 73.5469 319.109C72.6387 319.109 72.0352 319.859 72.0352 321.148L72.0352 321.16Z" fill="#FFFFFFFF"/>
		<path id="Travel" d="M64.3184 404.266L62.8125 404.266L62.8125 397.082L60.2812 397.082L60.2812 395.811L66.8438 395.811L66.8438 397.082L64.3184 397.082L64.3184 404.266ZM90.9727 404.266L89.5137 404.266L89.5137 395.811L90.9727 395.811L90.9727 404.266ZM68.1973 404.266L66.7383 404.266L66.7383 398.055L68.1973 398.055L68.1973 399.127L68.2266 399.127C68.4199 398.377 68.9355 397.926 69.6504 397.926C69.832 397.926 70.002 397.955 70.1133 397.984L70.1133 399.303C69.9902 399.256 69.7676 399.221 69.5215 399.221C68.6953 399.221 68.1973 399.742 68.1973 400.662L68.1973 404.266ZM74.4258 403.311C74.0684 403.961 73.377 404.371 72.5566 404.371C71.3145 404.371 70.4766 403.604 70.4766 402.496L70.4766 402.484C70.4766 401.383 71.332 400.721 72.8379 400.627L74.4609 400.527L74.4609 400.1C74.4609 399.473 74.0508 399.092 73.3125 399.092C72.6211 399.092 72.1992 399.414 72.1055 399.871L72.0938 399.924L70.7402 399.924L70.7461 399.854C70.834 398.752 71.7891 397.926 73.3652 397.926C74.918 397.926 75.9199 398.746 75.9199 399.994L75.9199 404.266L74.4609 404.266L74.4609 403.311L74.4258 403.311ZM88.4531 402.473C88.2598 403.428 87.3457 404.389 85.7227 404.389C83.8594 404.389 82.7344 403.152 82.7344 401.178L82.7344 401.172C82.7344 399.215 83.877 397.926 85.6523 397.926C87.4277 397.926 88.5293 399.174 88.5293 401.049L88.5293 401.518L84.1816 401.518C84.2051 402.607 84.8027 403.252 85.752 403.252C86.4785 403.252 86.9531 402.865 87.0938 402.449L87.1055 402.408L88.4707 402.408L88.4531 402.473ZM80.3555 404.266L78.75 404.266L76.5527 398.055L78.1055 398.055L79.5469 402.912L79.582 402.912L81.0176 398.055L82.541 398.055L80.3555 404.266ZM87.1113 400.545C87.0059 399.561 86.4434 399.068 85.6699 399.068C84.8965 399.068 84.3164 399.59 84.1992 400.545L87.1113 400.545ZM71.9297 402.432L71.9297 402.438C71.9297 402.947 72.3516 403.258 72.9902 403.258C73.8281 403.258 74.4609 402.701 74.4609 401.963L74.4609 401.494L73.043 401.582C72.3223 401.629 71.9297 401.939 71.9297 402.432Z" fill="#FFFFFFFF"/>
		<path id="Food" d="M62.2559 484.266L60.7441 484.266L60.7441 475.811L66.1348 475.811L66.1348 477.082L62.2559 477.082L62.2559 479.584L65.8008 479.584L65.8008 480.814L62.2559 480.814L62.2559 484.266ZM84.5156 483.211C84.1641 483.943 83.4785 484.389 82.582 484.389C81.0117 484.389 80.0156 483.158 80.0156 481.16L80.0156 481.154C80.0156 479.15 81.0176 477.926 82.5762 477.926C83.4551 477.926 84.1641 478.377 84.5156 479.121L84.5508 479.121L84.5508 475.811L86.0098 475.811L86.0098 484.266L84.5508 484.266L84.5508 483.211L84.5156 483.211ZM72.6445 481.16C72.6445 483.176 71.4609 484.389 69.6387 484.389C67.8105 484.389 66.6328 483.17 66.6328 481.16L66.6328 481.148C66.6328 479.156 67.8281 477.926 69.6328 477.926C71.4434 477.926 72.6445 479.145 72.6445 481.148L72.6445 481.16ZM79.3359 481.16C79.3359 483.176 78.1523 484.389 76.3301 484.389C74.502 484.389 73.3242 483.17 73.3242 481.16L73.3242 481.148C73.3242 479.156 74.5195 477.926 76.3242 477.926C78.1348 477.926 79.3359 479.145 79.3359 481.148L79.3359 481.16ZM68.1211 481.16C68.1211 482.467 68.7129 483.211 69.6445 483.211C70.5645 483.211 71.1562 482.461 71.1562 481.16L71.1562 481.148C71.1562 479.854 70.5586 479.109 69.6328 479.109C68.7246 479.109 68.1211 479.859 68.1211 481.148L68.1211 481.16ZM74.8125 481.16C74.8125 482.467 75.4043 483.211 76.3359 483.211C77.2559 483.211 77.8477 482.461 77.8477 481.16L77.8477 481.148C77.8477 479.854 77.25 479.109 76.3242 479.109C75.416 479.109 74.8125 479.859 74.8125 481.148L74.8125 481.16ZM81.5039 481.16C81.5039 482.396 82.084 483.158 83.0215 483.158C83.9238 483.158 84.5508 482.379 84.5508 481.16L84.5508 481.154C84.5508 479.941 83.918 479.156 83.0215 479.156C82.0898 479.156 81.5039 479.918 81.5039 481.154L81.5039 481.16Z" fill="#FFFFFFFF"/>
		<g opacity="0.400000">
			<circle id="Ellipse 45" cx="396.000000" cy="112.000000" r="3.000000" fill="#454459"/>
		</g>
		<g opacity="0.400000">
			<circle id="Ellipse 46" cx="417.000000" cy="112.000000" r="3.000000" fill="#454459"/>
		</g>
		<g opacity="0.400000">
			<circle id="Ellipse 47" cx="438.000000" cy="112.000000" r="3.000000" fill="#454459"/>
		</g>
		<g opacity="0.400000">
			<circle id="Ellipse 48" cx="459.000000" cy="112.000000" r="3.000000" fill="#454459"/>
		</g>
		<g opacity="0.400000">
			<circle id="Ellipse 49" cx="480.000000" cy="112.000000" r="3.000000" fill="#454459"/>
		</g>
		<g opacity="0.400000">
			<circle id="Ellipse 50" cx="501.000000" cy="112.000000" r="3.000000" fill="#454459"/>
		</g>
		<g opacity="0.400000">
			<circle id="Ellipse 51" cx="522.000000" cy="112.000000" r="3.000000" fill="#454459"/>
		</g>
		<g opacity="0.400000">
			<circle id="Ellipse 46" cx="417.000000" cy="512.000000" r="3.000000" fill="#454459"/>
		</g>
		<g opacity="0.400000">
			<circle id="Ellipse 47" cx="438.000000" cy="512.000000" r="3.000000" fill="#454459"/>
		</g>
		<g opacity="0.400000">
			<circle id="Ellipse 48" cx="459.000000" cy="512.000000" r="3.000000" fill="#454459"/>
		</g>
		<g opacity="0.400000">
			<circle id="Ellipse 49" cx="480.000000" cy="512.000000" r="3.000000" fill="#454459"/>
		</g>
		<g opacity="0.400000">
			<circle id="Ellipse 50" cx="501.000000" cy="512.000000" r="3.000000" fill="#454459"/>
		</g>
		<g opacity="0.400000">
			<circle id="Ellipse 51" cx="522.000000" cy="512.000000" r="3.000000" fill="#454459"/>
		</g>
		<g opacity="0.400000">
			<circle id="Ellipse 55" cx="459.000000" cy="192.000000" r="3.000000" fill="#454459"/>
		</g>
		<g opacity="0.400000">
			<circle id="Ellipse 56" cx="480.000000" cy="192.000000" r="3.000000" fill="#454459"/>
		</g>
		<g opacity="0.400000">
			<circle id="Ellipse 57" cx="501.000000" cy="192.000000" r="3.000000" fill="#454459"/>
		</g>
		<g opacity="0.400000">
			<circle id="Ellipse 58" cx="522.000000" cy="192.000000" r="3.000000" fill="#454459"/>
		</g>
		<g opacity="0.400000">
			<circle id="Ellipse 59" cx="291.000000" cy="272.000000" r="3.000000" fill="#454459"/>
		</g>
		<g opacity="0.400000">
			<circle id="Ellipse 66" cx="438.000000" cy="272.000000" r="3.000000" fill="#454459"/>
		</g>
		<g opacity="0.400000">
			<circle id="Ellipse 60" cx="312.000000" cy="272.000000" r="3.000000" fill="#454459"/>
		</g>
		<g opacity="0.400000">
			<circle id="Ellipse 67" cx="459.000000" cy="272.000000" r="3.000000" fill="#454459"/>
		</g>
		<g opacity="0.400000">
			<circle id="Ellipse 61" cx="333.000000" cy="272.000000" r="3.000000" fill="#454459"/>
		</g>
		<g opacity="0.400000">
			<circle id="Ellipse 68" cx="480.000000" cy="272.000000" r="3.000000" fill="#454459"/>
		</g>
		<g opacity="0.400000">
			<circle id="Ellipse 62" cx="354.000000" cy="272.000000" r="3.000000" fill="#454459"/>
		</g>
		<g opacity="0.400000">
			<circle id="Ellipse 69" cx="501.000000" cy="272.000000" r="3.000000" fill="#454459"/>
		</g>
		<g opacity="0.400000">
			<circle id="Ellipse 63" cx="375.000000" cy="272.000000" r="3.000000" fill="#454459"/>
		</g>
		<g opacity="0.400000">
			<circle id="Ellipse 70" cx="522.000000" cy="272.000000" r="3.000000" fill="#454459"/>
		</g>
		<g opacity="0.400000">
			<circle id="Ellipse 64" cx="396.000000" cy="272.000000" r="3.000000" fill="#454459"/>
		</g>
		<g opacity="0.400000">
			<circle id="Ellipse 65" cx="417.000000" cy="272.000000" r="3.000000" fill="#454459"/>
		</g>
		<g opacity="0.400000">
			<circle id="Ellipse 71" cx="291.000000" cy="432.000000" r="3.000000" fill="#454459"/>
		</g>
		<g opacity="0.400000">
			<circle id="Ellipse 83" cx="228.000000" cy="432.000000" r="3.000000" fill="#454459"/>
		</g>
		<g opacity="0.400000">
			<circle id="Ellipse 72" cx="438.000000" cy="432.000000" r="3.000000" fill="#454459"/>
		</g>
		<g opacity="0.400000">
			<circle id="Ellipse 73" cx="312.000000" cy="432.000000" r="3.000000" fill="#454459"/>
		</g>
		<g opacity="0.400000">
			<circle id="Ellipse 84" cx="249.000000" cy="432.000000" r="3.000000" fill="#454459"/>
		</g>
		<g opacity="0.400000">
			<circle id="Ellipse 74" cx="459.000000" cy="432.000000" r="3.000000" fill="#454459"/>
		</g>
		<g opacity="0.400000">
			<circle id="Ellipse 75" cx="333.000000" cy="432.000000" r="3.000000" fill="#454459"/>
		</g>
		<g opacity="0.400000">
			<circle id="Ellipse 85" cx="270.000000" cy="432.000000" r="3.000000" fill="#454459"/>
		</g>
		<g opacity="0.400000">
			<circle id="Ellipse 76" cx="480.000000" cy="432.000000" r="3.000000" fill="#454459"/>
		</g>
		<g opacity="0.400000">
			<circle id="Ellipse 77" cx="354.000000" cy="432.000000" r="3.000000" fill="#454459"/>
		</g>
		<g opacity="0.400000">
			<circle id="Ellipse 78" cx="501.000000" cy="432.000000" r="3.000000" fill="#454459"/>
		</g>
		<g opacity="0.400000">
			<circle id="Ellipse 79" cx="375.000000" cy="432.000000" r="3.000000" fill="#454459"/>
		</g>
		<g opacity="0.400000">
			<circle id="Ellipse 80" cx="522.000000" cy="432.000000" r="3.000000" fill="#454459"/>
		</g>
		<g opacity="0.400000">
			<circle id="Ellipse 81" cx="396.000000" cy="432.000000" r="3.000000" fill="#454459"/>
		</g>
		<g opacity="0.400000">
			<circle id="Ellipse 82" cx="417.000000" cy="432.000000" r="3.000000" fill="#454459"/>
		</g>
		<g opacity="0.400000">
			<circle id="Ellipse 84" cx="438.000000" cy="352.000000" r="3.000000" fill="#454459"/>
		</g>
		<g opacity="0.400000">
			<circle id="Ellipse 86" cx="459.000000" cy="352.000000" r="3.000000" fill="#454459"/>
		</g>
		<g opacity="0.400000">
			<circle id="Ellipse 88" cx="480.000000" cy="352.000000" r="3.000000" fill="#454459"/>
		</g>
		<g opacity="0.400000">
			<circle id="Ellipse 89" cx="354.000000" cy="352.000000" r="3.000000" fill="#454459"/>
		</g>
		<g opacity="0.400000">
			<circle id="Ellipse 90" cx="501.000000" cy="352.000000" r="3.000000" fill="#454459"/>
		</g>
		<g opacity="0.400000">
			<circle id="Ellipse 91" cx="375.000000" cy="352.000000" r="3.000000" fill="#454459"/>
		</g>
		<g opacity="0.400000">
			<circle id="Ellipse 92" cx="522.000000" cy="352.000000" r="3.000000" fill="#454459"/>
		</g>
		<g opacity="0.400000">
			<circle id="Ellipse 93" cx="396.000000" cy="352.000000" r="3.000000" fill="#454459"/>
		</g>
		<g opacity="0.400000">
			<circle id="Ellipse 94" cx="417.000000" cy="352.000000" r="3.000000" fill="#454459"/>
		</g>
	</g>
	<defs>
		<clipPath id="clip17_25">
			<rect id="Chart 12" rx="16.000000" width="600.000000" height="600.000000" fill="white"/>
		</clipPath>
		<linearGradient id="paint_linear_17_52_0" x1="219.000000" y1="97.000000" x2="219.000000" y2="127.000000" gradientUnits="userSpaceOnUse">
			<stop stop-color="#7AD3FF"/>
			<stop offset="1.000000" stop-color="#4FBAF0"/>
		</linearGradient>
		<linearGradient id="paint_linear_17_53_0" x1="165.000000" y1="257.000000" x2="165.000000" y2="287.000000" gradientUnits="userSpaceOnUse">
			<stop stop-color="#B09FFF"/>
			<stop offset="1.000000" stop-color="#8D79F6"/>
		</linearGradient>
		<linearGradient id="paint_linear_17_54_0" x1="139.000000" y1="417.000000" x2="139.000000" y2="447.000000" gradientUnits="userSpaceOnUse">
			<stop stop-color="#99FFA3"/>
			<stop offset="1.000000" stop-color="#68EE76"/>
		</linearGradient>
		<linearGradient id="paint_linear_17_55_0" x1="252.500000" y1="177.000000" x2="252.500000" y2="207.000000" gradientUnits="userSpaceOnUse">
			<stop stop-color="#FF9364"/>
			<stop offset="1.000000" stop-color="#F25F33"/>
		</linearGradient>
		<linearGradient id="paint_linear_17_56_0" x1="200.500000" y1="337.000000" x2="200.500000" y2="367.000000" gradientUnits="userSpaceOnUse">
			<stop stop-color="#FE6C6C"/>
			<stop offset="1.000000" stop-color="#FE464B"/>
		</linearGradient>
		<linearGradient id="paint_linear_17_57_0" x1="233.500000" y1="497.000000" x2="233.500000" y2="527.000000" gradientUnits="userSpaceOnUse">
			<stop stop-color="#FFD572"/>
			<stop offset="1.000000" stop-color="#FEBD38"/>
		</linearGradient>
	</defs>
</svg>
